<svg xmlns="http://www.w3.org/2000/svg" width="24.504" height="20.5" viewBox="0 0 24.504 20.5">
  <g transform="translate(-461.067 -4128.556)">
    <path id="_24gl-volumeHigh" data-name="24gl-volumeHigh" d="M10.5,105.329a.5.5,0,0,1-.354-.146l-4.853-4.854H1.25A1.251,1.251,0,0,1,0,99.079v-7.5a1.251,1.251,0,0,1,1.25-1.25H5.293l4.853-4.854a.5.5,0,0,1,.854.354v19A.5.5,0,0,1,10.5,105.329Zm-9.25-14a.25.25,0,0,0-.25.25v7.5a.25.25,0,0,0,.25.25H5.5a.5.5,0,0,1,.354.146L10,103.622V87.036L5.854,91.183a.5.5,0,0,1-.354.146Zm17.589,13.747a.5.5,0,0,1-.3-.9,11.129,11.129,0,0,0,1.237-1.068,11.01,11.01,0,0,0-1.237-16.624.5.5,0,0,1,.6-.8,12.149,12.149,0,0,1,1.348,1.164,11.991,11.991,0,0,1,0,16.971,12.166,12.166,0,0,1-1.349,1.164.5.5,0,0,1-.3.1Zm-2.021-3.5a.5.5,0,0,1-.322-.883c.156-.131.308-.271.453-.415a7,7,0,0,0,0-9.9c-.145-.145-.3-.285-.453-.415a.5.5,0,1,1,.643-.766q.268.226.517.474a7.994,7.994,0,0,1,0,11.314q-.248.248-.517.474a.5.5,0,0,1-.321.117ZM14.75,97.995a.5.5,0,0,1-.392-.81,2.985,2.985,0,0,0,0-3.711.5.5,0,1,1,.785-.62,4,4,0,0,1,0,4.95A.5.5,0,0,1,14.75,97.995Z" transform="translate(461.317 4043.477)" fill="#ff7f00"/>
    <path id="_24gl-volumeHigh_-_轮廓" data-name="24gl-volumeHigh - 轮廓" d="M10.5,105.579h0a.745.745,0,0,1-.53-.22l-4.78-4.78H1.25a1.5,1.5,0,0,1-1.5-1.5v-7.5a1.5,1.5,0,0,1,1.5-1.5h3.94L9.97,85.3a.75.75,0,0,1,1.28.53v19A.751.751,0,0,1,10.5,105.579Zm-9.25-15a1,1,0,0,0-1,1v7.5a1,1,0,0,0,1,1H5.4l4.926,4.927a.248.248,0,0,0,.177.073v0a.25.25,0,0,0,.25-.25v-19A.249.249,0,0,0,10.6,85.6a.253.253,0,0,0-.272.054L5.4,90.579Zm17.59,14.747h0a.75.75,0,0,1-.447-1.352,10.915,10.915,0,0,0,1.209-1.044,10.762,10.762,0,0,0,0-15.2,10.9,10.9,0,0,0-1.209-1.044.75.75,0,1,1,.894-1.2,12.439,12.439,0,0,1,1.376,1.188,12.241,12.241,0,0,1,0,17.324,12.456,12.456,0,0,1-1.376,1.188A.752.752,0,0,1,18.84,105.327Zm0-19.495a.25.25,0,0,0-.149.451,11.4,11.4,0,0,1,1.265,1.092,11.263,11.263,0,0,1,0,15.91,11.419,11.419,0,0,1-1.265,1.092.25.25,0,0,0,.149.451v0a.249.249,0,0,0,.148-.049,11.956,11.956,0,0,0,1.321-1.14,11.741,11.741,0,0,0,0-16.617,11.94,11.94,0,0,0-1.321-1.14A.248.248,0,0,0,18.839,85.832ZM10.25,104.226,5.677,99.652a.248.248,0,0,0-.177-.073H1.25a.5.5,0,0,1-.5-.5v-7.5a.5.5,0,0,1,.5-.5H5.5a.248.248,0,0,0,.177-.073l4.573-4.573Zm-9-12.646h0v7.5H5.5a.745.745,0,0,1,.53.22l3.72,3.72V87.64L6.03,91.36a.745.745,0,0,1-.53.22Zm15.319,10.248v-.044a.75.75,0,0,1-.233-1.281c.147-.123.294-.258.437-.4a6.749,6.749,0,0,0,0-9.545c-.141-.141-.288-.276-.437-.4a.75.75,0,1,1,.965-1.149c.184.154.363.319.533.488a8.244,8.244,0,0,1,0,11.667c-.17.17-.349.334-.533.488a.748.748,0,0,1-.482.176Zm.25-12.5a.25.25,0,0,0-.161.441c.16.134.317.278.469.43a7.249,7.249,0,0,1,0,10.252c-.154.153-.312.3-.469.43a.25.25,0,0,0,.161.441h.018a.248.248,0,0,0,.142-.058c.173-.146.342-.3.5-.46a7.744,7.744,0,0,0,0-10.96c-.16-.16-.328-.314-.5-.459A.247.247,0,0,0,16.818,89.331ZM14.75,98.245v0a.75.75,0,0,1-.588-1.215,2.724,2.724,0,0,0,0-3.4.75.75,0,1,1,1.177-.93,4.24,4.24,0,0,1,0,5.26A.746.746,0,0,1,14.75,98.245Zm0-5.331a.25.25,0,0,0-.2.4,3.222,3.222,0,0,1,0,4.022.25.25,0,0,0,.2.4v0a.249.249,0,0,0,.2-.1,3.741,3.741,0,0,0,0-4.641A.249.249,0,0,0,14.75,92.914Z" transform="translate(461.317 4043.477)" fill="#ff7f00"/>
  </g>
</svg>
