<svg xmlns="http://www.w3.org/2000/svg" width="11.5" height="20.5" viewBox="0 0 11.5 20.5">
  <g transform="translate(-349.053 -4128.556)">
    <path id="_24gl-volumeZero" data-name="24gl-volumeZero" d="M10.5,105.329a.5.5,0,0,1-.354-.146l-4.853-4.854H1.25A1.251,1.251,0,0,1,0,99.079v-7.5a1.251,1.251,0,0,1,1.25-1.25H5.293l4.853-4.854a.5.5,0,0,1,.854.354v19A.5.5,0,0,1,10.5,105.329Zm-9.25-14a.25.25,0,0,0-.25.25v7.5a.25.25,0,0,0,.25.25H5.5a.5.5,0,0,1,.354.146L10,103.622V87.036L5.854,91.183a.5.5,0,0,1-.354.146Z" transform="translate(349.303 4043.477)" fill="#ff7f00"/>
    <path id="_24gl-volumeZero_-_轮廓" data-name="24gl-volumeZero - 轮廓" d="M10.5,105.579h0a.745.745,0,0,1-.53-.22l-4.78-4.78H1.25a1.5,1.5,0,0,1-1.5-1.5v-7.5a1.5,1.5,0,0,1,1.5-1.5h3.94L9.97,85.3a.75.75,0,0,1,1.28.53v19A.751.751,0,0,1,10.5,105.579Zm-9.25-15a1,1,0,0,0-1,1v7.5a1,1,0,0,0,1,1H5.4l4.926,4.927a.248.248,0,0,0,.177.073v0a.25.25,0,0,0,.25-.25v-19A.249.249,0,0,0,10.6,85.6a.252.252,0,0,0-.272.054L5.4,90.579Zm9,13.646L5.677,99.652a.248.248,0,0,0-.177-.073H1.25a.5.5,0,0,1-.5-.5v-7.5a.5.5,0,0,1,.5-.5H5.5a.248.248,0,0,0,.177-.073l4.573-4.573Zm-9-12.646h0v7.5H5.5a.745.745,0,0,1,.53.22l3.72,3.72V87.64L6.03,91.36a.745.745,0,0,1-.53.22Z" transform="translate(349.303 4043.477)" fill="#ff7f00"/>
  </g>
</svg>
