<?xml version="1.0" standalone="no"?><!DOCTYPE svg PUBLIC "-//W3C//DTD SVG 1.1//EN" "http://www.w3.org/Graphics/SVG/1.1/DTD/svg11.dtd"><svg t="1678846988036" class="icon" viewBox="0 0 1196 1024" version="1.1" xmlns="http://www.w3.org/2000/svg" p-id="3006" xmlns:xlink="http://www.w3.org/1999/xlink" width="74.75" height="64"><path d="M1054.37502593 740.94267906l-131.00068227-120.32127929a15.0460927 15.0460927 0 0 0-25.25085658 11.10657974v90.18162914a225.92871429 225.92871429 0 0 1-188.28974898-110.97086885l-50.16946475-85.43522742 52.21041657-89.18488504a225.59646587 225.59646587 0 0 1 186.15386886-110.97086884v66.82933487a15.09355744 15.09355744 0 0 0 25.25085658 11.10657856l131.00068343-120.22635099a15.09355744 15.09355744 0 0 0 0-22.11823116l-131.00068343-120.41620755a15.0460927 15.0460927 0 0 0-25.25085658 11.10657971V236.21033822h-17.4667577a44.80603086 44.80603086 0 0 0-14.99862798 2.56305685 313.26250284 313.26250284 0 0 0-230.43779588 152.59680958l-27.00702473 46.13502342-27.00702467-46.13502342a313.26250284 313.26250284 0 0 0-270.5448886-155.11240287H154.31490037a44.47378241 44.47378241 0 0 0 0 88.94756487h156.01421873a225.69139414 225.69139414 0 0 1 193.93796768 111.11326069l52.21041657 89.18488504-50.1694647 85.43522742a225.59646587 225.59646587 0 0 1-193.93796659 111.11326068h-158.05517169a44.47378241 44.47378241 0 0 0 0 88.94756489h157.91277985a313.64221487 313.64221487 0 0 0 270.5448874-155.11240287l24.91860822-42.71761315 24.9186081 42.71761315a313.78460672 313.78460672 0 0 0 234.09252514 153.0239863 43.85675029 43.85675029 0 0 0 13.24245988 1.9934894h17.70407787V872.22814623a15.09355744 15.09355744 0 0 0 25.25085654 11.10657971L1054.37502593 763.06091023a15.0460927 15.0460927 0 0 0 0-22.11823117z" fill="#FF7F00" p-id="3007"></path></svg>