<?xml version="1.0" standalone="no"?><!DOCTYPE svg PUBLIC "-//W3C//DTD SVG 1.1//EN" "http://www.w3.org/Graphics/SVG/1.1/DTD/svg11.dtd"><svg t="1678858963494" class="icon" viewBox="0 0 1024 1024" version="1.1" xmlns="http://www.w3.org/2000/svg" p-id="3241" xmlns:xlink="http://www.w3.org/1999/xlink" width="64" height="64"><path d="M926.12864 270.994286V841.142857a182.857143 182.857143 0 0 1-182.857143 182.857143h-460.068571a182.857143 182.857143 0 0 1-182.857143-182.857143V270.994286a45.129143 45.129143 0 1 1 0-90.185143h196.534857a219.867429 219.867429 0 0 1 432.64 0h196.534857a45.056 45.056 0 0 1 0 90.112zM513.237211 90.404571a132.534857 132.534857 0 0 0-124.342857 90.331429h249.197715a132.534857 132.534857 0 0 0-124.342858-90.331429z m324.388572 180.662858h-648.777143v552.886857a109.714286 109.714286 0 0 0 109.714286 109.714285h429.348571a109.714286 109.714286 0 0 0 109.714286-109.714285V271.140571z m-221.257143 481.865142a43.885714 43.885714 0 0 1-43.885714-43.885714V496.054857a44.251429 44.251429 0 0 1 88.502857 0V708.754286a43.885714 43.885714 0 0 1-43.885714 43.885714z m-206.409143 0a43.885714 43.885714 0 0 1-43.885714-43.885714V496.054857a44.251429 44.251429 0 0 1 88.502857 0V708.754286a43.885714 43.885714 0 0 1-43.885714 43.885714z" fill="#A4A4A4" p-id="3242"></path></svg>