<?xml version="1.0" standalone="no"?><!DOCTYPE svg PUBLIC "-//W3C//DTD SVG 1.1//EN" "http://www.w3.org/Graphics/SVG/1.1/DTD/svg11.dtd"><svg t="1678789770391" class="icon" viewBox="0 0 1024 1024" version="1.1" xmlns="http://www.w3.org/2000/svg" p-id="2859" width="64" height="64" xmlns:xlink="http://www.w3.org/1999/xlink"><path d="M131.47347809 43.41500204h175.74711125a29.58705601 29.58705601 0 0 1 29.587056 29.58705601v356.08021847l534.78603472-379.23208983 10.28150206-7.39676402a28.9953144 28.9953144 0 0 1 40.38633122 27.5899304v884.20916468a28.9953144 28.9953144 0 0 1-40.38633122 26.92422028l-10.28150206-7.396764L336.43780762 595.21359427v356.45005622a29.58705601 29.58705601 0 0 1-29.58705601 29.58705601H131.47347809a29.58705601 29.58705601 0 0 1-29.58705604-29.58705601V72.70618723a29.58705601 29.58705601 0 0 1 29.58705604-29.58705444z" fill="#FF7F00" p-id="2860"></path></svg>