<?xml version="1.0" standalone="no"?><!DOCTYPE svg PUBLIC "-//W3C//DTD SVG 1.1//EN" "http://www.w3.org/Graphics/SVG/1.1/DTD/svg11.dtd"><svg t="1678852584016" class="icon" viewBox="0 0 1024 1024" version="1.1" xmlns="http://www.w3.org/2000/svg" p-id="2847" xmlns:xlink="http://www.w3.org/1999/xlink" width="64" height="64"><path d="M512.11946667 3.70517333C231.83871999 3.70517333 3.82464001 231.74314666 3.82464001 512S231.83871999 1020.29482667 512.11946667 1020.29482667 1020.41429333 792.25685334 1020.41429333 512 792.40021333 3.70517333 512.11946667 3.70517333z m0 965.75658667c-252.24192 0-457.46176-205.20789333-457.46176001-457.46176S259.87754667 54.53824 512.11946667 54.53824 969.58122668 259.73418667 969.58122668 512 764.36138667 969.46176 512.11946667 969.46176z" fill="#FF7F00" p-id="2848"></path><path d="M410.46528 308.67968h-50.83306667c-28.07466667 0-50.83306668 22.75840001-50.83306666 50.83306667v304.97450666c0 28.07466667 22.75840001 50.83306668 50.83306666 50.83306667h50.83306667c28.07466667 0 50.83306668-22.75840001 50.83306667-50.83306667V359.51274667c0-28.07466667-22.75840001-50.83306668-50.83306667-50.83306667zM664.61866666 308.67968H613.78560001c-28.07466667 0-50.83306668 22.75840001-50.83306668 50.83306667v304.97450666c0 28.07466667 22.75840001 50.83306668 50.83306668 50.83306667h50.83306665c28.07466667 0 50.83306668-22.75840001 50.83306667-50.83306667V359.51274667c-0.01194667-28.07466667-22.77034668-50.83306668-50.83306667-50.83306667z" fill="#FF7F00" p-id="2849"></path></svg>