<?xml version="1.0" standalone="no"?><!DOCTYPE svg PUBLIC "-//W3C//DTD SVG 1.1//EN" "http://www.w3.org/Graphics/SVG/1.1/DTD/svg11.dtd"><svg t="1678846979635" class="icon" viewBox="0 0 1024 1024" version="1.1" xmlns="http://www.w3.org/2000/svg" p-id="2861" xmlns:xlink="http://www.w3.org/1999/xlink" width="64" height="64"><path d="M762.32297259 187.18773332l-0.30144249 0.45216378a34.01277458 34.01277458 0 0 0-20.59857826-6.58149689 34.81662225 34.81662225 0 0 0-33.3596496 36.1731136 34.21373721 34.21373721 0 0 0 15.82573647 27.12983661 379.96841814 379.96841814 0 0 1-211.66295612 695.52859589 337.21380623 337.21380623 0 0 1-54.96303814-2.91394529 330.73279068 330.73279068 0 0 1-157.40328573-61.94645743 379.66697561 379.66697561 0 0 1 195.58601706-694.17210457l-42.50340788 41.2976378 0.80384623 0.85408763a34.26397714 34.26397714 0 0 0-15.42381409 29.54137673 34.81662225 34.81662225 0 0 0 36.0726337 33.40988956 34.21373721 34.21373721 0 0 0 26.32598895-14.61996642l0.30144252 0.35168249 130.12272928-126.25421508-129.82128676-129.92176807-0.40192382 0.4019238a34.11325589 34.11325589 0 0 0-26.62743149-11.55530126 34.81662225 34.81662225 0 0 0-33.35964959 36.12287362 34.31421852 34.31421852 0 0 0 13.21323513 25.47190134l45.76903707 45.81927844a448.64709373 448.64709373 0 0 0-241.15409294 818.91910706 419.95980458 419.95980458 0 0 0 253.51324045 78.52580164 449.09925749 449.09925749 0 0 0 250.19737131-821.9837736m-234.4218748 199.35404996a33.66109212 33.66109212 0 0 0-17.33295045 6.12933309v-0.30144253l-108.06717841 70.33661085v0.30144252a34.41469843 34.41469843 0 0 0-16.0266991 30.1442618 34.76638229 34.76638229 0 0 0 36.07263368 33.35964961 33.51037085 33.51037085 0 0 0 17.28271058-6.12933452v0.25120257l54.66159419-35.67070985v254.21660678a34.66590099 34.66590099 0 0 0 69.23132066-1.40673129v-1.15553013-315.25873667-1.35649134a34.81662225 34.81662225 0 0 0-36.0726337-33.40989095" fill="#FF7F00" p-id="2862"></path></svg>