<?xml version="1.0" standalone="no"?><!DOCTYPE svg PUBLIC "-//W3C//DTD SVG 1.1//EN" "http://www.w3.org/Graphics/SVG/1.1/DTD/svg11.dtd"><svg t="1678789824464" class="icon" viewBox="0 0 1024 1024" version="1.1" xmlns="http://www.w3.org/2000/svg" p-id="3042" xmlns:xlink="http://www.w3.org/1999/xlink" width="64" height="64"><path d="M892.97032812 43.41500204H717.37115229a29.58705601 29.58705601 0 0 0-29.58705602 29.58705601v356.08021847L152.85012615 49.85018669l-10.28150205-7.39676402a28.9953144 28.9953144 0 0 0-40.38633123 27.5899304v884.20916468a28.9953144 28.9953144 0 0 0 40.38633123 26.92422028l10.28150205-7.396764L687.78409627 595.21359427v356.45005622a29.58705601 29.58705601 0 0 0 29.58705602 29.58705601h175.74711124a29.58705601 29.58705601 0 0 0 29.58705603-29.58705601V72.70618723a29.58705601 29.58705601 0 0 0-29.58705603-29.58705444z" fill="#FF7F00" p-id="3043"></path></svg>