<?xml version="1.0" standalone="no"?><!DOCTYPE svg PUBLIC "-//W3C//DTD SVG 1.1//EN" "http://www.w3.org/Graphics/SVG/1.1/DTD/svg11.dtd"><svg t="1678858948462" class="icon" viewBox="0 0 1024 1024" version="1.1" xmlns="http://www.w3.org/2000/svg" p-id="3044" xmlns:xlink="http://www.w3.org/1999/xlink" width="64" height="64"><path d="M512.11946667 3.70517333C231.83871999 3.70517333 3.82464001 231.74314666 3.82464001 512S231.83871999 1020.29482667 512.11946667 1020.29482667 1020.41429333 792.25685334 1020.41429333 512 792.40021333 3.70517333 512.11946667 3.70517333z m0 965.75658667c-252.24192 0-457.46176-205.20789333-457.46176001-457.46176S259.87754667 54.53824 512.11946667 54.53824 969.58122668 259.73418667 969.58122668 512 764.36138667 969.46176 512.11946667 969.46176z" fill="#A4A4A4" p-id="3045"></path><path d="M719.35829334 468.13184L436.13866667 302.58688a50.82350933 50.82350933 0 0 0-25.25525333-6.8096c-28.07466667-0.08362667-50.8928 22.60309333-50.98837335 50.67776v331.10186667a50.86890667 50.86890667 0 0 0 6.80960002 25.26720001c14.03733334 24.31146667 45.12256 32.63829333 69.43402666 18.60095999l283.21962667-165.50912001a50.828288 50.828288 0 0 0 18.25450665-18.25450665c14.1568-24.23978666 5.98528001-55.3728-18.25450665-69.52960001z" fill="#A4A4A4" p-id="3046"></path></svg>