<?xml version="1.0" standalone="no"?><!DOCTYPE svg PUBLIC "-//W3C//DTD SVG 1.1//EN" "http://www.w3.org/Graphics/SVG/1.1/DTD/svg11.dtd"><svg t="1678846995182" class="icon" viewBox="0 0 1024 1024" version="1.1" xmlns="http://www.w3.org/2000/svg" p-id="3151" xmlns:xlink="http://www.w3.org/1999/xlink" width="64" height="64"><path d="M918.24335992 511.94968238a405.76533816 405.76533816 0 0 0-176.11342798-334.66583177c-1.25795358-0.85540827-2.36495146-1.96240612-3.67322267-2.81781441V174.86858152a30.84500839 30.84500839 0 0 0-18.61770582-5.93753887 31.49914473 31.49914473 0 0 0-30.19087349 32.70677926 30.89532744 30.89532744 0 0 0 14.34066587 24.55524325 343.67277462 343.67277462 0 0 1-183.20828375 628.9765289l39.49972641-39.49972643a30.99596271 30.99596271 0 0 0 11.82475867-22.99538243 31.49914473 31.49914473 0 0 0-30.1908735-32.70677926 30.99596271 30.99596271 0 0 0-24.05206266 10.46616982l-0.35222627-0.35222629-118.09663388 117.79472382 117.84504288 114.52404646 0.30190862-0.30190864a30.94564508 30.94564508 0 0 0 23.80047167 13.23366517 31.49914473 31.49914473 0 0 0 32.65646163-30.19087349 31.14691703 31.14691703 0 0 0-13.98843818-26.7692404l0.7547716-0.80509063-40.6570419-39.55004402a406.62074642 406.62074642 0 0 0 398.06666513-405.96661012M496.57749509 168.93104265l-38.44304473 37.38636453 0.75477156 0.80509063a30.99596271 30.99596271 0 0 0-13.98843817 26.76924039 31.44882708 31.44882708 0 0 0 32.65646163 30.19087349 30.94564508 30.94564508 0 0 0 23.80047167-13.23366659l0.30190864 0.30190864 117.84504286-114.52404502-117.49281516-117.54313424-0.3522277 0.30190864a30.94564508 30.94564508 0 0 0-24.10238031-10.41585076 31.19723608 31.19723608 0 0 0-18.21516049 55.75247933l41.41181487 41.4118149a406.16788205 406.16788205 0 0 0-216.36792595 742.84643758l35.22268646-51.82766566a343.62245699 343.62245699 0 0 1 177.01915388-628.27207349" fill="#FF7F00" p-id="3152"></path></svg>