<?xml version="1.0" standalone="no"?><!DOCTYPE svg PUBLIC "-//W3C//DTD SVG 1.1//EN" "http://www.w3.org/Graphics/SVG/1.1/DTD/svg11.dtd"><svg t="1678847441863" class="icon" viewBox="0 0 1066 1024" version="1.1" xmlns="http://www.w3.org/2000/svg" p-id="3296" xmlns:xlink="http://www.w3.org/1999/xlink" width="66.625" height="64"><path d="M1050.39016755 172.56597917a555.99030516 555.99030516 0 0 0-216.39901857-151.50028167 43.40561716 43.40561716 0 0 0-59.23713417 40.46997172v536.22712012a228.35128848 228.35128848 0 1 0 87.0733449 179.17922522c0-2.41142294 0-4.77042349-0.41937773-7.18184783 0-1.31055554 0.41937772-2.41142294 0.41937773-3.7219785V130.10396223a473.47769561 473.47769561 0 0 1 123.24469322 99.60226111 43.40561716 43.40561716 0 0 0 65.31811462-57.14024417z m-417.12378449 745.86366714a141.54005557 141.54005557 0 1 1 141.54005414-141.54005413 141.54005557 141.54005557 0 0 1-141.38278838 141.54005413zM56.35960309 265.3009268h500.73726141a43.56288293 43.56288293 0 1 0 0-87.07334488H56.35960309a43.56288293 43.56288293 0 1 0 0 87.07334488z m304.78291757 195.95434243H56.35960309a43.56288293 43.56288293 0 1 0 0 87.07334488h304.78291757a43.56288293 43.56288293 0 0 0 0-87.07334488z m-130.63622781 283.0801097H56.35960309a43.56288293 43.56288293 0 1 0 0 87.07334489H230.50629285a43.56288293 43.56288293 0 1 0 0-87.07334489z" fill="#FF7F00" p-id="3297"></path></svg>