<svg width="14" height="16" viewBox="0 0 14 16" fill="none" xmlns="http://www.w3.org/2000/svg">
  <path d="M2.08983 14H12.0396C13.2726 14 14 13.2103 14 11.7323V4.26772C14 2.78965 13.2726 2 11.9102 2H1.95421C0.721268 2 0 2.78965 0 4.26772V11.7323C0 13.2171 0.727433 14 2.08983 14ZM6.33113 8.16873L1.95421 3.43082C2.00352 3.42407 2.05901 3.42407 2.11449 3.42407H11.8793C11.941 3.42407 12.0026 3.42407 12.0581 3.43757L7.6812 8.16873C7.42845 8.4387 7.22501 8.55343 7.00308 8.55343C6.78732 8.55343 6.58388 8.43195 6.33113 8.16873ZM1.27609 4.47019L4.51255 7.95951L1.27609 11.4691V4.47019ZM9.49978 7.95276L12.7177 4.49044V11.4556L9.49978 7.95276ZM2.11449 12.5827C2.04051 12.5827 1.9727 12.5759 1.90489 12.5624L5.33245 8.84364L5.62836 9.16085C6.08454 9.65354 6.5284 9.86277 7.00308 9.86277C7.48393 9.86277 7.92779 9.65354 8.37781 9.16085L8.67371 8.84364L12.1013 12.5624C12.0335 12.5759 11.9595 12.5827 11.8793 12.5827H2.11449Z" fill="white" />
</svg>
