<svg width="10" height="6" viewBox="0 0 10 6" fill="none" xmlns="http://www.w3.org/2000/svg">
  <path d="M5 6C5.22803 6 5.42269 5.9084 5.60067 5.71947L9.78309 1.31679C9.9277 1.16794 10 0.990458 10 0.778626C10 0.349237 9.6663 0 9.24917 0C9.04894 0 8.85428 0.0916031 8.70411 0.246183L5.00556 4.16221L1.29588 0.246183C1.14572 0.0916031 0.956618 0 0.745273 0C0.333704 0 0 0.349237 0 0.778626C0 0.990458 0.0778643 1.16794 0.216908 1.31679L4.39933 5.72519C4.58287 5.9084 4.77197 6 5 6Z" fill="#11142D" fill-opacity="0.6" />
</svg>
