<svg width="16" height="16" viewBox="0 0 16 16" fill="none" xmlns="http://www.w3.org/2000/svg">
  <path d="M8.3391 10.4083C8.73356 10.4083 9.04498 10.09 9.04498 9.71626V2.84429L8.98962 1.82007L9.391 2.3391L10.2976 3.30796C10.4221 3.44637 10.5952 3.51557 10.7682 3.51557C11.1073 3.51557 11.391 3.26644 11.391 2.91349C11.391 2.73356 11.3218 2.59516 11.1972 2.47059L8.88581 0.249135C8.69896 0.0692042 8.52595 0 8.3391 0C8.15225 0 7.97232 0.0692042 7.79239 0.249135L5.48097 2.47059C5.34948 2.59516 5.28028 2.73356 5.28028 2.91349C5.28028 3.26644 5.56401 3.51557 5.90311 3.51557C6.07612 3.51557 6.25606 3.44637 6.3737 3.30796L7.2872 2.3391L7.68858 1.82007L7.6263 2.84429V9.71626C7.6263 10.09 7.94464 10.4083 8.3391 10.4083ZM4.34602 16H12.3322C13.8685 16 14.6782 15.1903 14.6782 13.6747V6.93426C14.6782 5.41868 13.8685 4.609 12.3322 4.609H10.4983V6.15225H12.2007C12.8028 6.15225 13.1349 6.46367 13.1349 7.09343V13.5156C13.1349 14.1522 12.8028 14.4567 12.2007 14.4567H4.47751C3.86851 14.4567 3.54325 14.1522 3.54325 13.5156V7.09343C3.54325 6.46367 3.86851 6.15225 4.47751 6.15225H6.20069V4.609H4.34602C2.81661 4.609 2 5.41868 2 6.93426V13.6747C2 15.1972 2.81661 16 4.34602 16Z" fill="#11142D" />
</svg>
