<svg width="20" height="21" viewBox="0 0 20 21" fill="none" xmlns="http://www.w3.org/2000/svg">
  <circle cx="10" cy="10.5" r="10" fill="#1DA1F2" />
  <path d="M7.94307 16.3338C12.9745 16.3338 15.7265 12.1652 15.7265 8.55032C15.7265 8.43192 15.7265 8.31405 15.7185 8.19672C16.2539 7.80947 16.7161 7.32999 17.0833 6.78072C16.5841 7.00205 16.0545 7.14714 15.5121 7.21112C16.0832 6.86928 16.5106 6.33155 16.7148 5.69805C16.1778 6.01672 15.5904 6.24129 14.9777 6.36205C14.5653 5.92348 14.0198 5.63307 13.4257 5.53576C12.8315 5.43845 12.2219 5.53967 11.6911 5.82375C11.1603 6.10782 10.7379 6.55892 10.4893 7.10724C10.2407 7.65556 10.1797 8.27053 10.3159 8.85698C9.22828 8.80243 8.16431 8.51978 7.19303 8.02739C6.22175 7.53499 5.36487 6.84386 4.678 5.99885C4.32818 6.60107 4.22104 7.31398 4.37839 7.99242C4.53574 8.67086 4.94575 9.26382 5.52493 9.65058C5.08957 9.63783 4.66369 9.52038 4.28333 9.30818V9.34285C4.28351 9.97443 4.50214 10.5865 4.90215 11.0753C5.30216 11.564 5.85892 11.8994 6.478 12.0244C6.07527 12.1343 5.65271 12.1504 5.2428 12.0714C5.41767 12.6149 5.75802 13.0902 6.21624 13.4308C6.67447 13.7714 7.22768 13.9603 7.79853 13.9711C7.23135 14.4169 6.58184 14.7466 5.88715 14.9411C5.19246 15.1357 4.46623 15.1914 3.75 15.105C5.00102 15.9078 6.45662 16.3336 7.94307 16.3317" fill="white" />
</svg>
