<?xml version="1.0" encoding="UTF-8"?>
<svg width="30px" height="30px" viewBox="0 0 30 30" version="1.1" xmlns="http://www.w3.org/2000/svg" xmlns:xlink="http://www.w3.org/1999/xlink">
    <title>ic-bilibili</title>
    <g id="ic-bilibili" stroke="none" stroke-width="1" fill="none" fill-rule="evenodd">
        <path d="M19.7282582,1.60165 C20.4442582,0.73765 21.1847582,0.93515 21.8017582,1.37915 C22.4192582,1.82365 22.6167582,2.51465 22.1722582,3.08265 C21.9082582,3.41965 21.0532582,4.52265 20.4017582,5.36265 C22.1802582,5.39865 23.9352582,5.45565 24.9992582,5.54615 C27.3592582,5.74665 29.7277582,7.28615 29.9197582,11.89915 C29.9804356,13.3544887 29.9962228,14.9935204 29.999353,16.0443746 L29.9992707,16.9277386 C29.9991748,16.9547223 29.9990768,16.979289 29.9989814,17.0013262 L29.9983175,17.1283234 L29.9983175,17.1283234 C29.9982582,17.13715 29.9982795,17.1401292 29.9983175,17.1459751 L29.9989814,17.2729521 C29.9990768,17.2949859 29.9991748,17.3195489 29.9992707,17.3465287 L29.999353,18.2297876 C29.9962228,19.2805423 29.9804356,20.9195048 29.9197582,22.37515 C29.7277582,26.98765 27.3592582,28.52715 24.9992582,28.72765 C22.6397582,28.92815 16.8827582,28.96615 14.9997582,28.96615 L14.7914939,28.9660093 C12.7242629,28.9633361 7.27887888,28.9212362 5.00025819,28.72765 C2.64075819,28.52715 0.271758189,26.98765 0.0802581888,22.37515 C0.0259678662,21.0727306 0.00761458836,19.6235558 0.00211017427,18.5802576 L0.000269601618,18.0688796 C0.000170276319,18.016948 0.000101312538,17.9667583 5.80108694e-05,17.9184229 L0.00023428894,17.5365088 C0.000302665295,17.5003119 0.000382605546,17.4663067 0.000469410285,17.4346059 L0.000469410285,16.8396488 C0.000382605546,16.8079435 0.000302665295,16.7739337 0.00023428894,16.737732 L5.80108694e-05,16.3557714 C0.000101312538,16.3074306 0.000170276319,16.2572355 0.000269601618,16.2052985 L0.00211017427,15.6938746 C0.00761458836,14.6504965 0.0259678662,13.2012952 0.0802581888,11.89915 C0.271758189,7.28615 2.64075819,5.74665 5.00025819,5.54615 C6.06475819,5.45565 7.81975819,5.39865 9.59825819,5.36265 C8.94675819,4.52265 8.09175819,3.41965 7.82775819,3.08265 C7.38325819,2.51465 7.58075819,1.82365 8.19775819,1.37915 C8.81525819,0.93515 9.55575819,0.73765 10.2717582,1.60165 C10.5464687,1.93309737 11.0970324,2.71469155 11.6713763,3.55241075 L11.985498,4.01254634 C12.2989479,4.4735115 12.6058371,4.92986053 12.8652582,5.31765 C13.5563137,5.31220556 14.1669125,5.30948333 14.6349475,5.30854232 L15.3648281,5.30854232 C15.8330792,5.30948333 16.4435915,5.31220556 17.1342582,5.31765 C17.3938371,4.92986053 17.7008344,4.4735115 18.0143582,4.01254634 L18.3285431,3.55241075 C18.902984,2.71469155 19.4535477,1.93309737 19.7282582,1.60165 Z M15.2327932,8.26332403 L14.7667252,8.26332403 C12.6242369,8.26638663 7.36735078,8.31105741 5.25075819,8.49065 C4.62875819,8.54365 3.17225819,8.66765 3.03275819,12.02215 C3.02325819,12.24975 3.01489819,12.482485 3.00754519,12.71708 L2.99414245,13.1877796 C2.96784152,14.2087972 2.95878486,15.2237433 2.95615019,15.96613 L2.95535078,16.2884463 C2.95513967,16.4389574 2.95518189,16.5727702 2.95534445,16.6866096 L2.95606011,16.964933 C2.95615019,16.9884722 2.95623886,17.0094283 2.95632119,17.02768 L2.95633469,17.2462285 C2.95625519,17.264503 2.95616974,17.2854851 2.95608323,17.3090531 L2.95577899,18.1423561 C2.95838374,19.1646711 2.97290819,20.8129 3.03275819,22.25215 C3.17225819,25.60665 4.62875819,25.73065 5.25075819,25.78315 C7.28594337,25.9562981 12.2245065,26.0038462 14.5060496,26.0099403 L15.4934746,26.0099403 C17.7750812,26.0038462 22.714073,25.9562981 24.7492582,25.78315 C25.3712582,25.73065 26.8277582,25.60665 26.9672582,22.25215 C27.0302582,20.7344833 27.043036,18.9888167 27.0445545,17.9853722 L27.0444262,17.480134 C27.0443549,17.4467467 27.0442749,17.4157 27.0441911,17.3871153 L27.043315,17.1700337 L27.043315,17.1700337 L27.0432582,17.15815 L27.0432582,17.11615 C27.0432582,17.1152 27.0432787,17.1111778 27.043315,17.1042051 L27.0441911,16.8866986 C27.0442749,16.8580694 27.0443549,16.8269767 27.0444262,16.793542 L27.0445545,16.2877056 C27.0434915,15.5845944 27.0369115,14.5179033 27.0114502,13.421638 L26.9993432,12.9509731 C26.9904493,12.6372878 26.9798582,12.3250833 26.9672582,12.02215 C26.8277582,8.66765 25.3712582,8.54365 24.7492582,8.49065 C22.5512582,8.30415 16.9662582,8.26315 14.9997582,8.26315 Z M10.9628082,17.9775 C11.2503082,17.9335 11.5198082,18.1315 11.5638082,18.4195 C11.5748082,18.486 11.8428082,20.085 13.0118082,20.085 C13.7033082,20.085 14.3508082,19.0515 14.5228082,18.6895 C14.6108082,18.5055 14.7963082,18.3875 14.9998082,18.3875 L14.9998082,18.3875 C15.2048082,18.388 15.3908082,18.5055 15.4773082,18.69 C15.6493082,19.0515 16.2968082,20.085 16.9878082,20.085 C18.1573082,20.085 18.4253082,18.486 18.4358082,18.418 C18.4818082,18.131 18.7513082,17.9335 19.0388082,17.9785 C19.3263082,18.0235 19.5233082,18.291 19.4793082,18.579 C19.3438082,19.465 18.6488082,21.1405 16.9878082,21.1405 C16.0958082,21.1405 15.4183082,20.488 14.9998082,19.925 C14.5813082,20.488 13.9043082,21.1405 13.0118082,21.1405 C11.3513082,21.1405 10.6563082,19.465 10.5208082,18.579 C10.4768082,18.291 10.6743082,18.0215 10.9628082,17.9775 Z M10.9870082,12.65285 C11.5295082,12.44235 12.1420082,12.71185 12.3525082,13.25535 C12.5635082,13.79885 12.2935082,14.41035 11.7505082,14.62085 C9.48336303,15.5006726 7.18252536,16.5992777 6.87502227,16.7467858 L6.84050819,16.76335 C6.69200819,16.83535 6.53550819,16.86935 6.38100819,16.86935 C5.98900819,16.86935 5.61300819,16.65035 5.43050819,16.27435 C5.17600819,15.74935 5.39500819,15.11835 5.91950819,14.86385 C6.02300819,14.81385 8.48150819,13.62485 10.9870082,12.65285 Z M17.6470582,13.2555 C17.8580582,12.712 18.4690582,12.442 19.0130582,12.653 C21.5185582,13.625 23.9765582,14.814 24.0800582,14.864 C24.6045582,15.118 24.8235582,15.7495 24.5695582,16.274 C24.3870582,16.65 24.0110582,16.8695 23.6190582,16.8695 C23.4645582,16.8695 23.3080582,16.8355 23.1595582,16.7635 C23.1350582,16.7515 20.6725582,15.5615 18.2495582,14.621 C17.7060582,14.41 17.4365582,13.799 17.6470582,13.2555 Z" id="形状结合" fill="#00ADEC"></path>
    </g>
</svg>