<?xml version="1.0" encoding="UTF-8"?>
<svg width="30px" height="30px" viewBox="0 0 30 30" version="1.1" xmlns="http://www.w3.org/2000/svg" xmlns:xlink="http://www.w3.org/1999/xlink">
    <title>ic-discord</title>
    <g id="ic-discord" stroke="none" stroke-width="1" fill="none" fill-rule="evenodd">
        <path d="M25.4128523,5.44491443 C23.4708987,4.53632265 21.39447,3.87599595 19.2236208,3.5 C18.9570145,3.98201341 18.645542,4.63033192 18.4307929,5.14606694 C16.1231244,4.79902222 13.8366758,4.79902222 11.5714472,5.14606694 C11.3567393,4.63033192 11.0381934,3.98201341 10.7692019,3.5 C8.59600864,3.87599595 6.51719474,4.53874896 4.57524124,5.44972593 C0.658303494,11.3687321 -0.403513931,17.1407203 0.127395809,22.8307485 C2.72531483,24.7708103 5.24301136,25.9493395 7.71821867,26.7205363 C8.32936117,25.8794288 8.87441754,24.9853127 9.3439704,24.0429993 C8.44968975,23.7031924 7.59316085,23.2838518 6.78384221,22.7970269 C6.99855016,22.6379596 7.20857,22.4716545 7.41147539,22.3005379 C12.3477434,24.6093578 17.7111244,24.6093578 22.5884207,22.3005379 C22.7937112,22.4716545 23.00369,22.6379596 23.2160538,22.7970269 C22.40435,23.286237 21.5454771,23.7055776 20.6511964,24.0454256 C21.1207493,24.9853127 21.6634616,25.8818551 22.2769481,26.7229215 C24.7545406,25.9517247 27.274573,24.7732366 29.8724941,22.8307485 C30.4954391,16.2345548 28.8083305,10.5155754 25.4128523,5.44491443 Z M10.0164698,19.3314324 C8.53465176,19.3314324 7.31944007,17.948065 7.31944007,16.263465 C7.31944007,14.5788649 8.50870257,13.1931123 10.0164698,13.1931123 C11.5242781,13.1931123 12.7394487,14.5764386 12.7134995,16.263465 C12.7158435,17.948065 11.5242781,19.3314324 10.0164698,19.3314324 Z M19.9834263,19.3314324 C18.5016083,19.3314324 17.2863966,17.948065 17.2863966,16.263465 C17.2863966,14.5788649 18.4756179,13.1931123 19.9834263,13.1931123 C21.4911935,13.1931123 22.7064052,14.5764386 22.680456,16.263465 C22.680456,17.948065 21.4911935,19.3314324 19.9834263,19.3314324 Z" id="形状" fill="#5865F2" fill-rule="nonzero"></path>
    </g>
</svg>