<?xml version="1.0" encoding="UTF-8"?>
<svg width="30px" height="30px" viewBox="0 0 30 30" version="1.1" xmlns="http://www.w3.org/2000/svg" xmlns:xlink="http://www.w3.org/1999/xlink">
    <title>ic-facebook</title>
    <g id="ic-facebook" stroke="none" stroke-width="1" fill="none" fill-rule="evenodd">
        <path d="M25.8720193,1 L4.12798265,1 C3.25740689,1 2.51844129,1.30874489 1.91106291,1.92624632 C1.3036846,2.54374775 1,3.27765144 1,4.1279807 L1,25.9023861 C1,26.7527158 1.3036846,27.4815587 1.91106291,28.0889371 C2.51844129,28.6963154 3.25740689,29 4.12798265,29 L15,29 L19.6767915,29 L25.8720193,29 C26.7425931,29 27.4815579,28.6963154 28.0889371,28.0889371 C28.6963163,27.4815587 29,26.7527158 29,25.9023861 L29,4.1279807 C29,3.27765144 28.6963163,2.54374775 28.0889371,1.92624632 C27.4815579,1.30874489 26.7425931,1 25.8720193,1 Z" id="Fill-1" fill="#2177F2"></path>
        <path d="M14.9999981,29 L14.9999981,18.1279826 L11.9023881,18.1279826 L11.9023881,14.2711516 L14.9999981,14.2711516 L14.9999981,11.0824295 C14.9999981,9.40201551 15.4808332,8.02531249 16.4425153,6.95227766 C17.4041973,5.87924283 18.8770697,5.34273125 20.8611714,5.34273125 L23.6550976,5.34273125 L23.6550976,9.41214945 L21.8026011,9.41214945 C21.0332578,9.41214945 20.4866239,9.65003453 20.1626917,10.1258125 C19.8387557,10.6015943 19.6767915,11.102674 19.6767915,11.6290672 L19.6767915,14.2711516 L23.6550976,14.2711516 L22.7744015,18.1279826 L19.6767915,18.1279826 L19.6767915,29 L14.9999981,29 Z" id="Fill-1备份" fill="#FFFFFF"></path>
    </g>
</svg>