<?xml version="1.0" encoding="UTF-8"?>
<svg width="30px" height="30px" viewBox="0 0 30 30" version="1.1" xmlns="http://www.w3.org/2000/svg" xmlns:xlink="http://www.w3.org/1999/xlink">
    <title>ic-github</title>
    <defs>
        <polygon id="path-1" points="0 0 30 0 30 29.2730213 0 29.2730213"></polygon>
    </defs>
    <g id="ic-github" stroke="none" stroke-width="1" fill="none" fill-rule="evenodd">
        <g id="编组" transform="translate(0.000000, 0.500000)">
            <mask id="mask-2" fill="white">
                <use xlink:href="#path-1"></use>
            </mask>
            <g id="Clip-2"></g>
            <path d="M14.9996906,0 C12.9289186,0 10.986023,0.390847903 9.16997243,1.17151245 C7.33329667,1.95320825 5.7369047,3.02262587 4.37976529,4.37976529 C3.0215946,5.7369047 1.95320825,7.33432793 1.17151245,9.16997243 C0.389816642,10.986023 0,12.9299499 0,14.9996906 C0,16.6600208 0.253690195,18.2419751 0.761070586,19.7465848 C1.26948224,21.2501633 1.97692725,22.6217404 2.88546816,23.8623473 C3.7929778,25.1029542 4.88198937,26.1816532 6.15147161,27.1005067 C7.40239115,28.0172977 8.76881192,28.7309303 10.2538277,29.2383107 C10.6250816,29.2970925 10.8880532,29.2383107 11.0448049,29.0629963 C11.2005253,28.8866507 11.2789011,28.702055 11.2789011,28.5061154 L11.2789011,27.4521667 C11.2789011,26.9241611 11.2696197,26.3476862 11.2500258,25.7227421 C9.17925378,26.1713406 7.82211436,25.9919012 7.17757626,25.1802988 C6.53303816,24.3697277 6.21025348,23.9654734 6.21025348,23.9654734 C5.8585935,23.0858078 5.49249586,22.5000516 5.11196056,22.2071735 C4.73039401,21.9142953 4.54064199,21.7678563 4.54064199,21.7678563 C3.85691598,21.2996638 3.70532062,21.0305047 4.08585591,20.9624415 C4.46742247,20.893347 4.65820574,20.8593154 4.65820574,20.8593154 C5.39968237,20.8985033 5.9668759,21.1625061 6.35669254,21.6513238 C6.74754044,22.138079 6.94348002,22.3835191 6.94348002,22.3835191 C7.60761208,23.5354376 8.39343293,24.0820059 9.30197383,24.023224 C10.2094835,23.9654734 10.8787718,23.8386283 11.3077764,23.6426887 C11.3861522,23.1549023 11.5129973,22.7444604 11.6893429,22.4123944 C11.8646573,22.0803284 12.0595656,21.8163255 12.2750992,21.6214172 C11.4346215,21.5430414 10.6054877,21.3770084 9.78460396,21.1233182 C8.9647515,20.869628 8.23255622,20.4736238 7.58801812,19.9373681 C6.94348002,19.3990499 6.42578702,18.6720109 6.03493912,17.7541886 C5.62449726,16.8363664 5.41927633,15.6545413 5.41927633,14.2087135 C5.41927633,13.388861 5.55643404,12.6463531 5.82971819,11.9822211 C6.10300234,11.318089 6.48353764,10.7220202 6.97235533,10.1950458 C6.8939795,10.0001375 6.79600971,9.54535142 6.67947722,8.8327501 C6.56191347,8.12014878 6.70835253,7.24563948 7.11879439,6.21025348 C7.11879439,6.21025348 7.44570411,6.2257224 8.10055482,6.25459771 C8.75437427,6.28450427 9.80419792,6.78775962 11.2500258,7.76333249 C11.835782,7.58801812 12.4452572,7.46117302 13.080514,7.38279719 C13.7157707,7.30442136 14.3551525,7.26523344 14.9996906,7.26523344 C15.6442287,7.26523344 16.2836105,7.30442136 16.917836,7.38279719 C17.554124,7.46117302 18.1635992,7.58801812 18.7503867,7.76333249 C20.1755894,6.78775962 21.2202567,6.28450427 21.8843888,6.25459771 C22.5485208,6.2257224 22.8805869,6.21025348 22.8805869,6.21025348 C23.2910287,7.24563948 23.4374678,8.12014878 23.319904,8.8327501 C23.2023403,9.54535142 23.1043705,10.0001375 23.0270259,10.1950458 C23.5158436,10.7220202 23.8963789,11.318089 24.1696631,11.9822211 C24.4429472,12.6463531 24.5801049,13.388861 24.5801049,14.2087135 C24.5801049,15.6545413 24.374884,16.8363664 23.9644421,17.7541886 C23.5735942,18.6720109 23.0517762,19.3990499 22.3969255,19.9373681 C21.743106,20.4736238 21.0057544,20.869628 20.1848707,21.1233182 C19.3846122,21.3574144 18.5637285,21.5244787 17.7242821,21.6214172 C17.9975662,21.8555135 18.23785,22.2030484 18.4420397,22.6609283 C18.6472606,23.1198394 18.7503867,23.7014706 18.7503867,24.4047906 C18.7503867,25.3999574 18.7452304,26.2744667 18.7349178,27.0272872 C18.7246052,27.7780451 18.7204802,28.2720191 18.7204802,28.5061154 C18.7204802,28.702055 18.798856,28.891807 18.9545764,29.0774339 C19.1102968,29.2620297 19.3742996,29.3166865 19.7465848,29.2383107 C21.2305693,28.7309303 22.6073027,28.0172977 23.8767849,27.1005067 C25.1266732,26.1816532 26.2053722,25.1029542 27.1139131,23.8623473 C28.022454,22.6217404 28.729899,21.2501633 29.2383107,19.7465848 C29.745691,18.2419751 30.0004125,16.6600208 30.0004125,14.9996906 C30.0004125,12.9299499 29.6095646,10.986023 28.8278688,9.16997243 C28.046173,7.33432793 26.9767554,5.7369047 25.619616,4.37976529 C24.2624765,3.02262587 22.6660846,1.95320825 20.8294088,1.17151245 C19.0133583,0.390847903 17.0704626,0 14.9996906,0" id="Fill-1" fill="#000000" mask="url(#mask-2)"></path>
        </g>
    </g>
</svg>