<?xml version="1.0" encoding="UTF-8"?>
<svg width="30px" height="30px" viewBox="0 0 30 30" version="1.1" xmlns="http://www.w3.org/2000/svg" xmlns:xlink="http://www.w3.org/1999/xlink">
    <title>ic-instagram</title>
    <defs>
        <linearGradient x1="100%" y1="0%" x2="0%" y2="100%" id="linearGradient-1">
            <stop stop-color="#BE00A5" offset="0%"></stop>
            <stop stop-color="#F60C02" offset="51.9340348%"></stop>
            <stop stop-color="#FEC81E" offset="100%"></stop>
        </linearGradient>
    </defs>
    <g id="ic-instagram" stroke="none" stroke-width="1" fill="none" fill-rule="evenodd">
        <path d="M15.6828495,0.000187075186 C15.7908115,0.000250738438 15.8959279,0.000331296145 15.9983173,0.000429726949 L16.8493853,0.00182460116 C19.2879598,0.00782996187 19.8668685,0.0301495974 21.1844423,0.0902666618 C22.7810785,0.163087326 23.8714236,0.416679485 24.8255946,0.787511127 C25.8119782,1.17078718 26.6484929,1.6836876 27.4823878,2.51758245 C28.3163422,3.35153685 28.829183,4.18805158 29.2125186,5.17443516 C29.5833503,6.12854663 29.8369424,7.21895124 29.9097036,8.81552793 C29.9268939,9.1919776 29.9409954,9.50813136 29.9525099,9.82458938 L29.9606686,10.0629368 C29.9862997,10.8639309 29.9965465,11.7615143 29.9992501,13.7025642 L29.9992501,16.2974247 C29.9951947,19.2090404 29.9741672,19.7728156 29.9097036,21.1845018 C29.8369424,22.7810785 29.5833503,23.8714831 29.2125186,24.8255946 C28.829183,25.8119782 28.3163422,26.6484929 27.4823878,27.4824473 C26.6484929,28.3163422 25.8119782,28.829183 24.8255946,29.2125782 C23.8714236,29.5833503 22.7810785,29.8369424 21.1844423,29.9098227 C19.772756,29.9741813 19.2090272,29.9951963 16.2974224,29.9992503 L13.702562,29.9992503 C11.7615053,29.9965476 10.8639018,29.9863067 10.0629106,29.9607105 L9.8245648,29.9525632 C9.50810994,29.941065 9.19196359,29.9269849 8.81552793,29.9098227 C7.21889169,29.8369424 6.12854663,29.5833503 5.17437562,29.2125782 C4.18805158,28.829183 3.3514773,28.3163422 2.51758245,27.4824473 C1.6836876,26.6484929 1.17078718,25.8119187 0.787451584,24.8255946 C0.416619942,23.8714831 0.163087326,22.7810785 0.0902071191,21.1845018 C0.0300900548,19.866928 0.00781080108,19.2879789 0.0018196928,16.8493902 L0.000428418053,15.9983186 C0.000330269025,15.895929 0.000249950676,15.7908123 0.000186481335,15.6828501 L0.000186481335,14.3171207 C0.000249950676,14.2091588 0.000330269025,14.1040423 0.000428418053,14.0016529 L0.0018196928,13.150585 C0.00567111955,11.5829299 0.0162538717,10.7838102 0.0392930608,10.0629259 L0.0518771968,9.70580751 C0.0625134501,9.42814828 0.075177853,9.14492139 0.0902071191,8.81552793 C0.163087326,7.21895124 0.416619942,6.12854663 0.787451584,5.17443516 C1.17078718,4.18805158 1.6836876,3.35153685 2.51758245,2.51758245 C3.3514773,1.6836876 4.18805158,1.17078718 5.17437562,0.787511127 C6.12854663,0.416679485 7.21889169,0.163087326 8.81552793,0.0902666618 C9.14490913,0.0752373957 9.42813133,0.0625704689 9.70579033,0.0519302071 L10.0629106,0.039340181 C10.7838027,0.016287903 11.5829508,0.00568519019 13.1506018,0.00182460116 L14.0016648,0.000429726949 C14.1040532,0.000331296145 14.2091687,0.000250738438 14.3171294,0.000187075186 Z M16.008255,2.7031098 L13.9917152,2.7031098 C10.8993869,2.70594243 10.3766172,2.72450399 8.93866214,2.79010917 C7.47623504,2.85685649 6.68193605,3.10121953 6.15337592,3.30664169 C5.45327341,3.57875161 4.95353192,3.90379495 4.42866344,4.42872298 C3.90379495,4.95359146 3.57869207,5.45327341 3.30658214,6.15343546 C3.10121953,6.68199559 2.85685649,7.47629458 2.79010917,8.93872168 C2.72450399,10.3766226 2.70594243,10.8994366 2.7031098,13.9917286 L2.7031098,16.0082564 C2.70499822,18.0698142 2.71387728,18.989362 2.7390254,19.7993765 L2.74706718,20.0401274 C2.75846507,20.3595004 2.77261446,20.6778678 2.79010917,21.0613081 C2.85685649,22.5237947 3.10121953,23.3180342 3.30658214,23.8465943 C3.57869207,24.5466968 3.90379495,25.0464383 4.42872298,25.5713068 C4.95353192,26.0962348 5.45327341,26.4212782 6.15337592,26.6933881 C6.68193605,26.8987507 7.47623504,27.1431733 8.93872168,27.2098611 C9.27418138,27.2251689 9.55982503,27.2379182 9.83992294,27.2485056 L10.0796813,27.2570603 C10.8812321,27.2838728 11.7407659,27.2939623 13.6908257,27.2965807 L14.309592,27.2971513 C14.5274411,27.297273 14.7572279,27.2973292 14.9999851,27.2973292 L15.3545222,27.2972859 C15.4695447,27.2972566 15.5814537,27.2972122 15.6903782,27.2971513 L16.3091445,27.2965807 C19.1367313,27.2927841 19.6714869,27.2732794 21.0612485,27.2098611 C22.5237352,27.1431733 23.3179746,26.8987507 23.8465348,26.6933881 C24.5466968,26.4212782 25.0464383,26.0962348 25.5713068,25.5713068 C26.0961753,25.0464383 26.4212186,24.5466968 26.6933881,23.8465943 C26.8987507,23.3180342 27.1431137,22.5237947 27.2098611,21.0612485 C27.2251563,20.725751 27.2378956,20.4400721 27.2484752,20.1599451 L27.2609185,19.7993564 C27.2848071,19.0298592 27.2940343,18.1614946 27.2965213,16.309054 L27.2972264,15.3544963 L27.2972264,15.3544963 L27.2972697,14.9999851 C27.2972697,14.8786173 27.2972556,14.7604917 27.2972264,14.6454792 L27.2965213,13.6909353 C27.2939034,11.7410252 27.2838171,10.8814821 27.2570237,10.0798423 L27.2484752,9.84005502 C27.2378956,9.55992072 27.2251563,9.2742319 27.2098611,8.93872168 C27.1431137,7.47629458 26.8987507,6.68199559 26.6933881,6.15343546 C26.4212186,5.45327341 26.0961753,4.95359146 25.5713068,4.42866344 C25.0464383,3.90379495 24.5466968,3.57875161 23.8465348,3.30664169 C23.3179746,3.10121953 22.5237352,2.85685649 21.0612485,2.79010917 C20.6778083,2.77261446 20.3594444,2.75846507 20.0400766,2.74706718 L19.7993301,2.7390254 C18.9893307,2.71387728 18.0698069,2.70499822 16.008255,2.7031098 Z M14.9999851,7.29730937 C19.2540695,7.29730937 22.7026609,10.7459007 22.7026609,14.9999851 C22.7026609,19.254129 19.2540695,22.7027204 14.9999851,22.7027204 C10.7459007,22.7027204 7.29724982,19.254129 7.29724982,14.9999851 C7.29724982,10.7459007 10.7459007,7.29730937 14.9999851,7.29730937 Z M14.9999851,10.0000099 C12.2385755,10.0000099 9.99995038,12.2385755 9.99995038,14.9999851 C9.99995038,17.7613947 12.2385755,20.0000099 14.9999851,20.0000099 C17.7613947,20.0000099 20.0000198,17.7613947 20.0000198,14.9999851 C20.0000198,12.2385755 17.7613947,10.0000099 14.9999851,10.0000099 Z M23.0070489,5.19294102 C24.001173,5.19294102 24.8070233,5.99885083 24.8070233,6.99297496 C24.8070233,7.98709909 24.001173,8.79294936 23.0070489,8.79294936 C22.0129247,8.79294936 21.2070149,7.98709909 21.2070149,6.99297496 C21.2070149,5.99885083 22.0129247,5.19294102 23.0070489,5.19294102 Z" id="形状结合" fill="url(#linearGradient-1)"></path>
    </g>
</svg>