<?xml version="1.0" encoding="UTF-8"?>
<svg width="30px" height="30px" viewBox="0 0 30 30" version="1.1" xmlns="http://www.w3.org/2000/svg" xmlns:xlink="http://www.w3.org/1999/xlink">
    <title>ic-twitter</title>
    <g id="ic-twitter" stroke="none" stroke-width="1" fill="none" fill-rule="evenodd">
        <path d="M26.9491525,8.95300563 C26.9491525,9.07833193 26.9491525,9.21409353 26.9491525,9.36031423 C26.9491525,9.50652703 26.9491525,9.64229653 26.9491525,9.76762293 C26.9491525,11.7728525 26.5677966,13.7989444 25.8050847,15.8459468 C25.0423728,17.8929572 23.9194983,19.7415068 22.4364366,21.3916438 C20.953383,23.0417808 19.1313681,24.389025 16.970343,25.4334166 C14.8093098,26.4778082 12.3093396,27 9.47033493,27 C7.73304406,27 6.06992542,26.7597905 4.48093016,26.2793714 C2.89194306,25.7989524 1.39831322,25.1409911 0,24.3054794 C0.25423729,24.3054794 0.508474579,24.3159226 0.762711869,24.336809 C1.01694916,24.3576954 1.27118645,24.3681386 1.52542373,24.3681386 C2.96610712,24.3681386 4.3326183,24.1383803 5.62499796,23.6788477 C6.91737762,23.2193151 8.09321491,22.5926913 9.15254233,21.7989524 C7.79660745,21.7571797 6.59958508,21.3394278 5.56144271,20.5456889 C4.52330033,19.75195 3.79237423,18.7493473 3.36863999,17.5378565 C3.58050711,17.5796293 3.78178169,17.6109669 3.97245559,17.6318533 C4.16313762,17.6527397 4.34321898,17.6631829 4.51271593,17.6631829 C4.80932338,17.6631829 5.0953383,17.6422965 5.37076067,17.6005157 C5.64619118,17.5587429 5.91101288,17.5169702 6.16525016,17.4751974 C4.76694508,17.1827639 3.59110779,16.4830298 2.6377139,15.375979 C1.68432,14.2689202 1.20763119,12.9843432 1.20763119,11.5221918 L1.20763119,11.4595326 C1.63135729,11.6684045 2.07626848,11.8355036 2.54237289,11.960838 C3.00847728,12.0861643 3.49575864,12.1697099 4.00424135,12.2114907 C3.19915118,11.6684045 2.54237289,10.947784 2.03389831,10.0496051 C1.52542373,9.15143433 1.27118645,8.18016113 1.27118645,7.13576954 C1.27118645,6.59268334 1.34533424,6.06005638 1.49364611,5.53785658 C1.64194984,5.01566479 1.84321628,4.52480259 2.09745356,4.06526997 C3.62288542,5.90340046 5.4766861,7.39685741 7.65889627,8.54568897 C9.84111453,9.69452053 12.2245667,10.3315874 14.8093179,10.4569218 C14.7245776,10.2062611 14.6716067,9.96605963 14.6504216,9.73629333 C14.6292366,9.50652703 14.618644,9.28720383 14.618644,9.07832393 C14.618644,7.4073006 15.2224515,5.97650282 16.4300827,4.78589848 C17.6377139,3.59529415 19.0889735,3 20.7839023,3 C21.6737328,3 22.5,3.16709913 23.2627118,3.5013054 C24.0254237,3.83551168 24.7033871,4.29503628 25.2966101,4.87989525 C25.9745816,4.7545689 26.6419444,4.56658339 27.2987308,4.31592267 C27.9555091,4.06526997 28.5805016,3.77284449 29.1737328,3.43864624 C28.9618657,4.14883156 28.62288,4.78589848 28.1567837,5.34987107 C27.6906793,5.91384365 27.1398345,6.40469783 26.5042332,6.82244965 C27.0974644,6.7389041 27.6906711,6.61357775 28.2838942,6.44647862 C28.8771254,6.27937148 29.4491471,6.07049957 30,5.81983886 C29.618644,6.44647862 29.1631403,7.02088638 28.6334725,7.54307817 C28.1038128,8.06527798 27.5423755,8.53524577 26.9491525,8.95300563 Z" id="Path-Copy-2" fill="#1DA1F2" fill-rule="nonzero"></path>
    </g>
</svg>