<?xml version="1.0" encoding="UTF-8"?>
<svg width="30px" height="30px" viewBox="0 0 30 30" version="1.1" xmlns="http://www.w3.org/2000/svg" xmlns:xlink="http://www.w3.org/1999/xlink">
    <title>ic-telegram</title>
    <g id="ic-telegram" stroke="none" stroke-width="1" fill="none" fill-rule="evenodd">
        <path d="M15.9647278,22.2074137 C15.4022068,22.7699373 14.833831,23.3265933 14.2595871,23.8773982 C13.6853431,24.4282025 13.1169719,24.9848585 12.5544463,25.5473822 C12.343501,25.7348903 12.1266964,25.8813783 11.9040325,25.986852 C11.6813643,26.0923251 11.4294043,26.1450608 11.1481438,26.1450608 C10.9606353,26.1216221 10.8082867,26.0688864 10.6910977,25.986852 C10.5739044,25.9048171 10.4801524,25.7700479 10.4098372,25.5825398 C9.98794199,24.2465456 9.56019652,22.904712 9.12658282,21.5569998 C8.69297362,20.209285 8.25350519,18.8674519 7.80817305,17.5314554 C7.76129932,17.3908252 7.7085618,17.2853548 7.64996512,17.2150396 C7.59136845,17.1447245 7.49175727,17.0861278 7.35112702,17.0392541 C6.31983247,16.7345522 5.30027435,16.4239955 4.29241895,16.1075753 C3.28456354,15.7911549 2.26500454,15.4688844 1.23371092,15.1407411 C1.09307977,15.0938674 0.958310536,15.0469892 0.829398721,15.0001109 C0.700487213,14.9532371 0.577437001,14.8946404 0.460244521,14.8243253 C0.178982619,14.6602536 0.0266346914,14.455172 0.00319619387,14.2090668 C-0.0202422961,13.9629616 0.0852293563,13.7461616 0.319614271,13.558653 C0.507122236,13.3945814 0.706346431,13.2539556 0.917292848,13.1367623 C1.12823913,13.0195688 1.33918271,12.9258168 1.55012899,12.8555018 C2.83924626,12.3398545 4.12834372,11.8359347 5.41745873,11.3437242 C6.70657687,10.8515184 7.99567702,10.359317 9.28479524,9.86711109 C10.8317326,9.2577073 12.384511,8.6541763 13.9431712,8.05649545 C15.5018315,7.4588146 17.0604647,6.86113825 18.6191249,6.26345747 C20.1777853,5.66577663 21.736423,5.06224559 23.2950832,4.45284182 C24.8537434,3.84344255 26.4065174,3.24577071 27.9534592,2.65980832 C28.5628585,2.42542157 29.0667784,2.44886295 29.4652322,2.73012345 C29.8636906,3.01138396 30.0394762,3.48014847 29.9925979,4.13642599 C29.9457196,4.55831675 29.8754045,4.9743438 29.7816525,5.38452062 C29.6879005,5.79469295 29.594144,6.21071999 29.500392,6.63261527 C29.1722532,8.24986765 28.8324005,9.87296132 28.4808204,11.5019367 C28.1292448,13.130912 27.7835329,14.7598604 27.4436756,16.3888358 C27.1038185,18.0178111 26.758102,19.646764 26.4065264,21.2757393 C26.0549508,22.9047134 25.7033752,24.5278047 25.3517995,26.1450608 C25.3517995,26.1684995 25.3517995,26.186078 25.3517995,26.1977973 C25.3517995,26.2095162 25.3517995,26.2153759 25.3517995,26.2153759 C25.1877279,26.9654077 24.8595981,27.428311 24.3673877,27.6040997 C23.8751773,27.7798881 23.3243837,27.645119 22.71498,27.1997877 C21.6368117,26.402879 20.5645161,25.6118417 19.4980663,24.8266519 C18.431612,24.0414626 17.3593209,23.2504253 16.2811481,22.4535143 C16.2342698,22.4066406 16.1873961,22.3656215 16.1405179,22.3304663 C16.0936396,22.2953065 16.0350475,22.2542919 15.9647278,22.2074137 Z M11.1832992,24.2113948 C11.2067405,24.2113948 11.2243182,24.2055351 11.2360366,24.1938158 C11.247755,24.1820969 11.2536188,24.1762372 11.2536188,24.1762372 C11.2536188,24.1527986 11.259478,24.1235011 11.2711965,24.0883435 C11.2829149,24.0531855 11.2887741,24.023888 11.2887741,24.0004494 C11.3590892,23.2738563 11.4294043,22.5414161 11.4997195,21.8031005 C11.5700346,21.0647894 11.6286313,20.3323466 11.6755096,19.6057539 C11.6989464,19.4416823 11.7458202,19.2893381 11.8161398,19.1487079 C11.8864549,19.0080731 11.9802069,18.8791658 12.0974003,18.7619724 C13.0583752,17.8947495 14.0134819,17.0333948 14.9627384,16.1778904 C15.9119993,15.3223859 16.8612423,14.4668949 17.8105033,13.6113905 C18.7597597,12.755886 19.7090071,11.9003906 20.6582637,11.0448861 C21.6075246,10.1893816 22.5626268,9.33974987 23.5236062,8.49596387 C23.6876779,8.33189222 23.8634634,8.16782957 24.0509719,8.003758 C24.2384759,7.83968635 24.4142614,7.67562377 24.5783332,7.51155205 C24.6252114,7.46467382 24.6545074,7.40608165 24.6662259,7.33576652 C24.6779443,7.2654469 24.6955265,7.19513627 24.7189634,7.12481665 C24.6486482,7.12481665 24.5841924,7.10723897 24.5255956,7.0720837 C24.466999,7.03692392 24.4025475,7.01934625 24.3322324,7.01934625 C24.215039,7.04278307 24.0978457,7.07794292 23.9806523,7.12481665 C23.8634634,7.17169495 23.74627,7.23029155 23.6290812,7.30060675 C23.3712575,7.441237 23.1192976,7.5935857 22.8731924,7.75765727 C22.6270873,7.92172442 22.3868458,8.07407312 22.152459,8.21470337 C21.0508538,8.91785912 19.9551169,9.60928299 18.8652301,10.2890019 C17.775339,10.9687163 16.6854657,11.6542809 15.5955745,12.3457182 C14.5056878,13.037151 13.4158101,13.7227201 12.3259234,14.4024346 C11.2360321,15.0821489 10.1520181,15.7735772 9.07384537,16.4767331 C8.93321512,16.5470482 8.84532232,16.6290818 8.81016697,16.7228337 C8.77500712,16.8165857 8.79258693,16.9337792 8.86290442,17.0744093 C9.00353467,17.4963001 9.14416042,17.9299093 9.28479524,18.375237 C9.42542549,18.8205691 9.56605117,19.2541784 9.70668599,19.6760691 C9.96450517,20.44954 10.216465,21.2112789 10.4625702,21.961313 C10.7086754,22.7113425 10.9489169,23.461363 11.1832992,24.2113948 Z" id="Fill-1" fill="#1388CB" fill-rule="nonzero"></path>
    </g>
</svg>