<?xml version="1.0" encoding="UTF-8"?>
<svg width="30px" height="30px" viewBox="0 0 30 30" version="1.1" xmlns="http://www.w3.org/2000/svg" xmlns:xlink="http://www.w3.org/1999/xlink">
    <title>ic-weibo</title>
    <g id="ic-weibo" stroke="none" stroke-width="1" fill="none" fill-rule="evenodd">
        <g id="编组" transform="translate(0.000000, 2.999775)">
            <path d="M1.90965,16.7099252 C1.90965,20.1999252 6.45465,23.0314252 12.06215,23.0314252 C17.66965,23.0314252 22.21415,20.1999252 22.21415,16.7099252 C22.21415,13.2184252 17.66965,10.3874252 12.06215,10.3874252 C6.45465,10.3874252 1.90965,13.2184252 1.90965,16.7099252" id="Fill-1" fill="#FFFFFF"></path>
            <path d="M12.87645,16.6171252 C12.70245,16.9151252 12.31845,17.0571252 12.01795,16.9341252 C11.72145,16.8126252 11.62945,16.4801252 11.79745,16.1876252 C11.97095,15.8971252 12.33945,15.7556252 12.63495,15.8731252 C12.93445,15.9826252 13.04195,16.3166252 12.87645,16.6171252 M11.29445,18.6501252 C10.81395,19.4156252 9.78495,19.7511252 9.00995,19.3976252 C8.24645,19.0501252 8.02095,18.1591252 8.50145,17.4121252 C8.97595,16.6671252 9.96995,16.3361252 10.73995,16.6586252 C11.51695,16.9906252 11.76545,17.8746252 11.29445,18.6501252 M13.09795,13.2256252 C10.73545,12.6091252 8.06395,13.7886252 7.03745,15.8711252 C5.99195,17.9936252 7.00295,20.3511252 9.39095,21.1221252 C11.86345,21.9191252 14.77895,20.6976252 15.79245,18.4061252 C16.79245,16.1641252 15.54395,13.8566252 13.09795,13.2256252" id="Fill-3" fill="#000000"></path>
            <path d="M12.6025,22.5214252 C7.6365,23.0119252 3.3485,20.7684252 3.0265,17.5069252 C2.7035,14.2474252 6.4695,11.2074252 11.4355,10.7169252 C16.4025,10.2249252 20.6895,12.4699252 21.011,15.7279252 C21.333,18.9909252 17.5695,22.0319252 12.6025,22.5214252 M22.536,11.6994252 C22.113,11.5719252 21.823,11.4864252 22.0455,10.9309252 C22.5245,9.72542522 22.573,8.68742522 22.054,7.94442522 C21.0795,6.55342522 18.4155,6.62792522 15.362,7.90792522 C15.362,7.90592522 14.403,8.32842522 14.6475,7.56592522 C15.1165,6.05542522 15.0465,4.79142522 14.3155,4.06142522 C12.658,2.40242522 8.2515,4.12442522 4.473,7.90092522 C1.643,10.7314252 0,13.7304252 0,16.3234252 C0,21.2839252 6.3615,24.3014252 12.5855,24.3014252 C20.7445,24.3014252 26.1725,19.5609252 26.1725,15.7969252 C26.1725,13.5234252 24.2565,12.2324252 22.536,11.6994252" id="Fill-5" fill="#E6162D"></path>
            <path d="M20.3941,0.17402522 C23.0766,-0.39547478 25.9831,0.43602522 27.9541,2.62102522 C29.9241,4.80302522 30.4561,7.77802522 29.6161,10.3875252 C29.6146,10.3895252 29.6146,10.3915252 29.6146,10.3925252 C29.4186,10.9955252 28.7706,11.3255252 28.1686,11.1310252 C27.5631,10.9355252 27.2331,10.2880252 27.4286,9.68452522 L27.4286,9.68452522 C28.0271,7.82852522 27.6466,5.71202522 26.2481,4.16052522 C24.8476,2.60852522 22.7821,2.01652522 20.8736,2.42102522 C20.2536,2.55302522 19.6421,2.15652522 19.5096,1.53702522 C19.3771,0.91752522 19.7726,0.30752522 20.3936,0.17402522 L20.3936,0.17402522 Z M21.2462,4.16152522 C22.5527,3.88352522 23.9692,4.28752522 24.9282,5.35152522 C25.8892,6.41552522 26.1457,7.86402522 25.7352,9.13552522 C25.5677,9.65602522 25.0102,9.94002522 24.4907,9.77302522 C23.9702,9.60302522 23.6867,9.04702522 23.8537,8.52752522 L23.8537,8.52752522 L23.8966378,8.37048703 C24.0308944,7.78916758 23.889575,7.15365022 23.4592,6.67652522 C22.9897,6.15802522 22.2972,5.96002522 21.6582,6.09502522 L21.6582,6.09502522 C21.1252,6.21002522 20.5997,5.86902522 20.4857,5.33602522 C20.3712,4.80202522 20.7112,4.27552522 21.2462,4.16152522 Z" id="形状结合" fill="#FF9933"></path>
        </g>
    </g>
</svg>