<?xml version="1.0" encoding="UTF-8"?>
<svg width="30px" height="30px" viewBox="0 0 30 30" version="1.1" xmlns="http://www.w3.org/2000/svg" xmlns:xlink="http://www.w3.org/1999/xlink">
    <title>ic-website</title>
    <g id="ic-website" stroke="none" stroke-width="1" fill="none" fill-rule="evenodd">
        <path d="M13.2982347,20.6317833 L15.9071972,18.0360643 C14.8609635,17.8903861 13.8279733,17.4401084 13.2187739,16.830909 C11.2719846,14.8841197 11.2719846,12.2089398 13.192287,10.275394 L17.5626303,5.91829416 C19.4961761,3.98474833 22.171356,3.99799179 24.1049018,5.93153762 C26.0516911,7.86508345 26.0516911,10.5535068 24.1313887,12.4738091 L22.8865031,13.7186948 C23.4294851,14.9635805 23.6943544,16.6190135 23.2308331,18.0493077 L26.5814297,14.7251981 C29.8922958,11.4673058 29.8658089,6.76587589 26.5681862,3.48149668 C23.2573201,0.170630528 18.5956205,0.183873993 15.3112413,3.45500975 L10.742246,8.02400503 C7.45786681,11.3083842 7.45786681,15.9833272 10.7554895,19.2809499 C11.3249585,19.8504189 12.2917314,20.4066444 13.2982347,20.6317833 Z M14.7417723,26.5383685 L19.3107676,21.9693732 C22.5951468,18.684994 22.5951468,14.010051 19.2975242,10.7124283 C18.7280552,10.1429594 17.7612823,9.59997731 16.754779,9.36159495 L14.1458164,11.957314 C15.1920501,12.1029921 16.2250404,12.5532699 16.8342397,13.1624693 C18.781029,15.1092586 18.781029,17.7976819 16.8607267,19.7179843 L12.4903834,24.0750841 C10.5568375,26.0086299 7.88165768,25.9953865 5.94811185,24.0750841 C4.00132256,22.1282948 4.00132256,19.4398715 5.92162492,17.5195691 L7.16651059,16.2879269 C6.62352854,15.0297978 6.35865925,13.3743647 6.82218051,11.9440705 L3.47158397,15.2681802 C0.160717825,18.5260724 0.187204754,23.2275024 3.48482744,26.5251251 C6.79569358,29.8227477 11.4573931,29.8227477 14.7417723,26.5383685 Z" id="website" fill="#626D84"></path>
    </g>
</svg>