<?xml version="1.0" encoding="UTF-8"?>
<svg width="30px" height="30px" viewBox="0 0 30 30" version="1.1" xmlns="http://www.w3.org/2000/svg" xmlns:xlink="http://www.w3.org/1999/xlink">
    <title>ic-youtube</title>
    <g id="ic-youtube" stroke="none" stroke-width="1" fill="none" fill-rule="evenodd">
        <g id="编组" transform="translate(0.000000, 3.500000)">
            <path d="M15,0 C11.308575,0 8.45215875,0.12207 6.430665,0.36621 C4.40917125,0.61035375 2.91992662,1.1328075 1.96289062,1.93359375 C1.00585462,2.73438 0.439453875,3.896475 0.263671875,5.41992 C0.0878897625,6.94336875 0,8.9843625 0,11.5429687 C0,14.101575 0.0878897625,16.1425687 0.263671875,17.6660175 C0.439453875,19.1894625 1.00585462,20.3564411 1.96289062,21.166992 C2.91992662,21.9775433 4.40917125,22.5 6.430665,22.734375 C8.45215875,22.9687512 11.308575,23.0859375 15,23.0859375 C18.691425,23.0859375 21.5478413,22.9687512 23.569335,22.734375 C25.5908288,22.5 27.0800738,21.9775433 28.0371075,21.166992 C28.994145,20.3564411 29.560545,19.1894625 29.73633,17.6660175 C29.9121113,16.1425687 30,14.101575 30,11.5429687 C30,8.9843625 29.9121113,6.94336875 29.73633,5.41992 C29.560545,3.896475 28.994145,2.73438 28.0371075,1.93359375 C27.0800738,1.1328075 25.5908288,0.61035375 23.569335,0.36621 C21.5478413,0.12207 18.691425,0 15,0 Z" id="路径" fill="#EB0029"></path>
            <path d="M19.8046875,12.0410175 L13.0664062,15.20508 C12.7734375,15.3417975 12.524415,15.3417975 12.319335,15.20508 C12.114255,15.0683588 12.0117187,14.8339875 12.0117187,14.501955 L12.0117187,8.5839825 C12.0117187,8.27148375 12.114255,8.0468775 12.319335,7.91015625 C12.524415,7.773435 12.7734375,7.773435 13.0664062,7.91015625 L19.8046875,11.04492 C20.0976562,11.1816413 20.2441425,11.3476538 20.2441425,11.5429688 C20.2441425,11.7382838 20.0976562,11.9042963 19.8046875,12.0410175 Z" id="路径" fill="#FFFFFF"></path>
        </g>
    </g>
</svg>