<?xml version="1.0" encoding="UTF-8"?>
<svg width="566px" height="359px" viewBox="0 0 566 359" version="1.1" xmlns="http://www.w3.org/2000/svg" xmlns:xlink="http://www.w3.org/1999/xlink">
    <title>card</title>
    <defs>
        <path d="M523.782087,346.722148 C521.690402,350.63326 518.620939,353.702722 514.709828,355.794408 C510.798717,357.886093 506.919282,359 496.221057,359 L70.7727826,359 C60.0745577,359 56.1951228,357.886093 52.2840117,355.794408 C48.3729006,353.702722 45.3034377,350.63326 43.2117526,346.722148 C42.423368,345.247997 41.7738903,343.778346 41.2706087,341.946382 C42.6856176,341.981838 44.2003672,342 45.8262948,342 L520.782862,341.999136 C522.563243,341.994043 524.207512,341.966446 525.732238,341.916674 C525.226541,343.763424 524.574474,345.240513 523.782087,346.722148 Z" id="path-1"></path>
        <filter x="-0.2%" y="-6.4%" width="100.5%" height="112.3%" filterUnits="objectBoundingBox" id="filter-2">
            <feGaussianBlur stdDeviation="0.5" in="SourceAlpha" result="shadowBlurInner1"></feGaussianBlur>
            <feOffset dx="0" dy="-1" in="shadowBlurInner1" result="shadowOffsetInner1"></feOffset>
            <feComposite in="shadowOffsetInner1" in2="SourceAlpha" operator="arithmetic" k2="-1" k3="1" result="shadowInnerInner1"></feComposite>
            <feColorMatrix values="0 0 0 0 1   0 0 0 0 1   0 0 0 0 1  0 0 0 0.113620145 0" type="matrix" in="shadowInnerInner1"></feColorMatrix>
        </filter>
        <path d="M43.5860484,-1.76092852e-15 L522.413952,1.76092852e-15 C537.56977,-1.02315018e-15 543.065636,1.57803539 548.606377,4.54125596 C554.147118,7.50447654 558.495523,11.8528823 561.458744,17.393623 C564.421965,22.9343638 566,28.4302298 566,43.5860484 L566,298.413952 C566,313.56977 564.421965,319.065636 561.458744,324.606377 C558.495523,330.147118 554.147118,334.495523 548.606377,337.458744 C543.065636,340.421965 537.56977,342 522.413952,342 L43.5860484,342 C28.4302298,342 22.9343638,340.421965 17.393623,337.458744 C11.8528823,334.495523 7.50447654,330.147118 4.54125596,324.606377 C1.57803539,319.065636 6.82100122e-16,313.56977 -1.17395235e-15,298.413952 L1.17395235e-15,43.5860484 C-6.82100122e-16,28.4302298 1.57803539,22.9343638 4.54125596,17.393623 C7.50447654,11.8528823 11.8528823,7.50447654 17.393623,4.54125596 C22.9343638,1.57803539 28.4302298,1.02315018e-15 43.5860484,-1.76092852e-15 Z" id="path-3"></path>
        <filter x="-0.3%" y="-0.4%" width="100.5%" height="100.9%" filterUnits="objectBoundingBox" id="filter-4">
            <feGaussianBlur stdDeviation="1" in="SourceAlpha" result="shadowBlurInner1"></feGaussianBlur>
            <feOffset dx="0" dy="1" in="shadowBlurInner1" result="shadowOffsetInner1"></feOffset>
            <feComposite in="shadowOffsetInner1" in2="SourceAlpha" operator="arithmetic" k2="-1" k3="1" result="shadowInnerInner1"></feComposite>
            <feColorMatrix values="0 0 0 0 1   0 0 0 0 1   0 0 0 0 1  0 0 0 0.5 0" type="matrix" in="shadowInnerInner1"></feColorMatrix>
        </filter>
    </defs>
    <g id="仅展示v1.1（NFTs-为主）" stroke="none" stroke-width="1" fill="none" fill-rule="evenodd">
        <g id="dasnft-12" transform="translate(-33.000000, -167.000000)">
            <g id="card" transform="translate(33.000000, 167.000000)">
                <g id="形状结合">
                    <use fill-opacity="0.09" fill="#FFFFFF" fill-rule="evenodd" xlink:href="#path-1"></use>
                    <use fill="black" fill-opacity="1" filter="url(#filter-2)" xlink:href="#path-1"></use>
                </g>
                <g id="Rectangle-Copy备份-2">
                    <use fill-opacity="0.14" fill="#FFFFFF" fill-rule="evenodd" xlink:href="#path-3"></use>
                    <use fill="black" fill-opacity="1" filter="url(#filter-4)" xlink:href="#path-3"></use>
                </g>
            </g>
        </g>
    </g>
</svg>