<?xml version="1.0" encoding="UTF-8"?>
<svg width="632px" height="632px" viewBox="0 0 632 632" version="1.1" xmlns="http://www.w3.org/2000/svg" xmlns:xlink="http://www.w3.org/1999/xlink">
    <title>background</title>
    <defs>
        <polygon id="path-1" points="0 632 632.000585 632 632.000585 0 0 0"></polygon>
        <path d="M795.351554,729.020932 C732.104446,749.169679 751.777413,836.991922 688.31132,832.858805 C498.924584,825.45495 501.399841,834.484686 469.123457,789.321305 C450.064479,757.368346 447.641448,723.608851 453.045508,687.85041 C481.20471,573.061662 400.303625,318.392027 389.061201,203.375592 C385.947774,49.428054 502.482321,169.666071 542.543649,187.712984 C587.710338,215.248751 639.560177,229.101349 692.612139,249.997564 C749.034537,274.536245 763.701457,301.700015 767.254685,340.746297 C770.170202,358.447671 774.038164,371.081659 792.622065,387.383769 C867.511542,435.991326 836.264109,527.194099 840.771157,556.132603 C845.278664,585.071107 892.941226,592.062879 879.602874,613.083895 C866.264063,634.10491 925.342699,688.59119 1038,729.020932 L795.351554,729.020932 Z" id="path-3"></path>
        <filter x="-1.3%" y="-1.2%" width="102.6%" height="102.4%" filterUnits="objectBoundingBox" id="filter-4">
            <feOffset dx="0" dy="17" in="SourceAlpha" result="shadowOffsetInner1"></feOffset>
            <feComposite in="shadowOffsetInner1" in2="SourceAlpha" operator="arithmetic" k2="-1" k3="1" result="shadowInnerInner1"></feComposite>
            <feColorMatrix values="0 0 0 0 0   0 0 0 0 0   0 0 0 0 0.643491883  0 0 0 1 0" type="matrix" in="shadowInnerInner1"></feColorMatrix>
        </filter>
        <path d="M928.785853,660.257037 C904.219954,633.6489 849.280255,624.743443 845.205419,584.953766 C844.64851,580.520012 844.935444,576.239118 846.15927,572.170411 C846.7721,570.136993 847.619152,568.159161 848.710053,566.251613 C849.801413,564.33284 851.172831,562.546083 852.540583,560.777232 C855.435595,557.302596 858.25452,553.883814 859.947709,550.168931 C860.738841,548.303072 861.25954,546.370136 861.302168,544.343933 C861.266874,542.305438 860.735174,540.178754 859.60027,537.989269 C858.196767,535.773327 856.346819,533.548032 853.882666,531.307237 C851.418971,529.061364 848.412577,526.792509 845.164625,524.509223 C838.682015,519.939178 831.174966,515.305262 824.941246,510.352797 C821.857846,507.886186 819.055881,505.320963 817.200432,502.805447 L816.439094,501.860759 L815.848724,500.930769 C815.471492,500.312646 815.050257,499.689179 814.706944,499.076401 C814.170661,497.87169 813.500078,496.644263 813.204435,495.483646 C811.609794,490.756999 811.887561,486.450717 811.479619,482.061859 C811.437908,477.774284 811.75922,473.641975 810.535852,469.370167 C810.324548,468.311903 809.791473,467.226113 809.391782,466.153684 C809.153892,465.613328 808.808287,465.063351 808.53052,464.518986 C808.273379,463.976492 807.905314,463.423041 807.515248,462.866651 C806.098452,460.653381 804.125663,458.379983 801.782518,456.095361 C792.333849,446.932554 776.526785,437.679688 758.553045,430.235759 C741.930098,423.253084 660.739562,399.921825 648.130489,402.149258 C618.27372,408.500448 623.308366,436.899618 615.466713,451.189931 C612.243972,455.953725 609.021688,460.716717 608,466.273942 C609.984706,478.182357 608.318103,490.090773 627.433622,499.617292 C661.258886,517.083199 649.49549,538.518401 644.607062,555.190076 C641.81243,564.716862 651.100215,576.625277 670.537503,582.976735 C681.169204,586.152331 692.980261,664.494176 699.208481,666.082374 C734.00318,674.020961 745.151175,627.583022 775.555975,659.356978 C823.964276,709.945151 1039.345,707.799838 1040,708 C1006.79077,704.036051 953.351293,686.864907 928.785853,660.257037 Z" id="path-5"></path>
        <filter x="-2.7%" y="-3.8%" width="105.4%" height="107.7%" filterUnits="objectBoundingBox" id="filter-6">
            <feOffset dx="7" dy="23" in="SourceAlpha" result="shadowOffsetInner1"></feOffset>
            <feComposite in="shadowOffsetInner1" in2="SourceAlpha" operator="arithmetic" k2="-1" k3="1" result="shadowInnerInner1"></feComposite>
            <feColorMatrix values="0 0 0 0 1   0 0 0 0 1   0 0 0 0 1  0 0 0 0.5 0" type="matrix" in="shadowInnerInner1"></feColorMatrix>
        </filter>
        <path d="M766.168224,467.723777 C748.553721,432.611009 649.047128,457.630376 690.218336,396.630721 C705.143249,374.518179 724.888442,341.481944 699.342145,316.205455 C684.743868,302.418328 639.536213,275.367157 649.047128,227.936075 C658.557585,180.504725 756.418631,165.535638 707.929043,102.055553 C702.266748,95.6007049 696.722646,89.1962099 690.56742,83.1388303 C684.390204,77.1438565 677.553303,71.3816322 669.467582,67.1926768 C668.448735,66.700662 667.46104,66.1285643 666.411042,65.6952056 L663.263795,64.3728991 C661.118903,63.6449208 658.966681,62.8665893 656.764983,62.4005546 C652.387241,61.3420666 647.941698,60.8556764 643.721547,61.0372692 C635.282161,61.4631285 627.865288,64.1479168 621.79527,67.8861043 C615.666615,71.6135782 610.632852,76.2859777 606.365058,81.3786119 C597.606825,91.4921003 591.184976,102.92602 586.038517,114.802673 C580.87465,126.690039 576.922039,139.027638 572.834741,151.326401 C564.934098,176.01874 557.639083,201.109619 549.224436,225.784548 C545.073002,238.139021 540.626543,250.372163 536.004167,262.541829 C531.345143,274.694621 526.89227,286.957493 521.778796,298.985741 C516.790845,311.065949 510.97554,322.829576 504.118482,334.086456 C497.312733,345.369316 489.070337,355.940804 480.978202,366.451226 C472.849418,376.95013 464.793017,387.435107 457.757294,398.420937 C455.921171,401.13358 454.380074,403.975053 452.696961,406.758673 C451.087147,409.57229 449.645919,412.460902 448.152465,415.328622 C445.464249,421.180571 442.903389,427.109657 441.255093,433.356665 C440.840042,434.917078 440.348943,436.455528 439.998027,438.036028 L439.123028,442.832436 L438.686903,445.234121 C438.578788,446.044058 438.540307,446.871403 438.46426,447.689374 L438.062035,452.615414 C437.911774,454.255642 438.082192,455.959615 438.078527,457.630376 C438.157323,459.315333 438.062035,460.976987 438.284679,462.68471 L438.947112,467.808949 L439.281536,470.374014 C439.461117,471.232964 439.609546,472.090308 439.81753,472.950329 C441.396193,479.806663 444.195272,486.85584 449.330736,493.31658 C451.863193,496.541862 455.094732,499.532519 458.797214,502.092764 C462.499695,504.664525 466.746417,506.709721 471.124159,508.359591 C479.922706,511.645939 489.15463,513.51356 498.296763,515.785077 L525.766224,522.377593 L580.705148,535.522717 L608.176442,542.088182 C617.342397,544.254439 626.481782,546.559168 635.540538,548.316173 C644.582802,550.065678 653.623234,551.263708 662.105682,550.992123 C666.339576,550.854723 670.394806,550.350387 674.211816,549.44403 C678.021496,548.519996 681.625025,547.262506 685.086538,545.813781 L706.318312,537.149285 C713.470396,534.345578 720.917505,531.609901 729.87456,531.165293 C730.980449,531.090299 732.112908,531.082799 733.258194,531.103691 C733.809764,531.081728 734.454789,531.187255 735.065914,531.245911 C735.679787,531.336172 736.312901,531.340993 736.916696,531.512676 C738.128867,531.812385 739.373106,532.055312 740.533968,532.506616 L742.301374,533.122639 L744.001895,533.854099 C748.51982,535.843853 759.707893,542.826338 764.094339,549.430638 C768.480786,556.035475 773.439417,566.722668 789.189394,577.230143 C832.762038,593.222097 829.860341,607.424905 835.094757,609.16584 C879.885987,624.005027 873.035342,592.860786 823.42429,565.523834 C803.351545,555.183221 777.690261,545.542999 772.331696,531.055748 C766.973589,516.568497 778.44615,492.198365 766.168224,467.723777" id="path-7"></path>
        <filter x="-1.3%" y="-1.0%" width="102.7%" height="102.1%" filterUnits="objectBoundingBox" id="filter-8">
            <feOffset dx="0" dy="11" in="SourceAlpha" result="shadowOffsetInner1"></feOffset>
            <feComposite in="shadowOffsetInner1" in2="SourceAlpha" operator="arithmetic" k2="-1" k3="1" result="shadowInnerInner1"></feComposite>
            <feColorMatrix values="0 0 0 0 0   0 0 0 0 0   0 0 0 0 0.643137255  0 0 0 1 0" type="matrix" in="shadowInnerInner1"></feColorMatrix>
        </filter>
        <path d="M1060,720.074883 C1097.08967,707.034111 1071.12046,736.566646 1118.8728,687.016428 C1134.89057,699.474552 1165.2333,693.360954 1182.81821,669.898416 C1201.73054,658.996386 1268.00026,551.324833 1218.19025,620.054291 C1192.84515,645.181766 1226.58987,616.988287 1233.26183,605.443213 C1303.82481,458.808894 1186.18587,494.550628 1302.11669,409.437282 C1347.04491,375.531672 1304.13,326.120647 1385.90373,290.31238 C1675.08899,204.862171 1730.21132,87.1590064 1757,213.134213 C1754.53841,307.204632 1722.21458,393.957401 1721.86873,488.259716 C1725.81192,570.29963 1794.58758,727.48878 1590.01729,716.769231 C1379.11139,723.710616 1141.66338,727.532059 1107.06909,726.940045 C1094.59798,724.191203 1074.49709,717.439728 1060,720.074883 Z" id="path-9"></path>
        <filter x="-1.2%" y="-1.5%" width="102.4%" height="103.0%" filterUnits="objectBoundingBox" id="filter-10">
            <feOffset dx="0" dy="17" in="SourceAlpha" result="shadowOffsetInner1"></feOffset>
            <feComposite in="shadowOffsetInner1" in2="SourceAlpha" operator="arithmetic" k2="-1" k3="1" result="shadowInnerInner1"></feComposite>
            <feColorMatrix values="0 0 0 0 0   0 0 0 0 0   0 0 0 0 0.643491883  0 0 0 1 0" type="matrix" in="shadowInnerInner1"></feColorMatrix>
        </filter>
        <path d="M1436.30564,700.001049 C1454.68462,682.907199 1435.02546,577.769904 1436.30564,558.744883 C1413.35195,491.155487 1464.28398,512.616603 1470.76319,477.628997 C1476.25835,458.389223 1461.60139,451.247018 1462.61932,442.200118 C1459.77608,402.889105 1455.01508,310.287281 1423.89051,342.792526 C1332.695,452.107902 1283.43129,430.016167 1269.83712,470.353072 C1267.73627,480.907522 1271.41482,490.303162 1264.82804,500.774438 C1257.9012,511.324609 1241.41939,519.304163 1229.82904,528.635885 C1197.02974,555.401638 1254.65336,562.219173 1228.05545,605.663711 C1208.95422,636.862787 1169.26058,638.6811 1145.60752,662.31007 C1121.06102,686.831748 1088.68968,699.432368 1041,708 C1041.70532,707.871381 1258.9118,710.963502 1305.06223,659.318773 C1351.21266,607.674044 1388.56739,640.394917 1436.30564,700.001049 Z" id="path-11"></path>
        <filter x="-1.6%" y="-2.0%" width="103.3%" height="103.9%" filterUnits="objectBoundingBox" id="filter-12">
            <feOffset dx="7" dy="14" in="SourceAlpha" result="shadowOffsetInner1"></feOffset>
            <feComposite in="shadowOffsetInner1" in2="SourceAlpha" operator="arithmetic" k2="-1" k3="1" result="shadowInnerInner1"></feComposite>
            <feColorMatrix values="0 0 0 0 1   0 0 0 0 1   0 0 0 0 1  0 0 0 0.5 0" type="matrix" in="shadowInnerInner1"></feColorMatrix>
        </filter>
        <path d="M1257.91972,564.962106 C1208.35294,592.268621 1168.77091,631.583421 1213.52216,616.760755 C1218.7519,615.021759 1249.93693,592.268621 1292.12406,576.655381 C1307.85998,566.159605 1312.81418,555.484311 1317.19671,548.886828 C1321.57924,542.28988 1332.75733,535.315169 1337.27122,533.327631 L1338.97023,532.596985 L1340.73606,531.981648 C1341.89588,531.530847 1343.13901,531.28819 1344.3501,530.988815 C1344.95336,530.817324 1345.5859,530.812508 1346.19923,530.722348 C1346.80981,530.663757 1347.45426,530.558347 1348.00534,530.580285 C1349.1496,530.559417 1350.28105,530.566908 1351.38595,530.641819 C1360.33501,531.085932 1367.77547,533.818563 1374.92117,536.619149 L1396.134,545.273997 C1399.59242,546.721109 1403.19273,547.9772 1406.99901,548.900205 C1410.81262,549.805553 1414.86423,550.309327 1419.09434,550.446574 C1427.56922,550.717857 1436.60158,549.52116 1445.63578,547.773603 C1454.68645,546.018555 1463.81767,543.716392 1472.97545,541.552546 L1500.42222,534.994392 L1555.31211,521.863903 L1582.75705,515.278727 C1591.89103,513.009739 1601.11471,511.144197 1609.90541,507.861508 C1614.27924,506.213475 1618.52217,504.170557 1622.22135,501.601658 C1625.92053,499.044264 1629.14918,496.056937 1631.67938,492.835247 C1636.81026,486.381699 1639.60684,479.340371 1641.18409,472.491671 C1641.39189,471.632607 1641.54019,470.776218 1641.71961,469.918224 L1642.05373,467.356015 L1642.71558,462.237481 C1642.93802,460.53166 1642.84282,458.871855 1642.92154,457.188775 C1642.91788,455.519874 1643.08815,453.817798 1642.93802,452.179396 L1642.53615,447.258841 C1642.46018,446.44178 1642.42173,445.615356 1642.31371,444.806322 L1641.87797,442.40731 L1641.00376,437.616243 C1640.65315,436.037502 1640.16249,434.500765 1639.74781,432.942089 C1638.10099,426.702037 1635.54241,420.779552 1632.8566,414.934119 C1631.36448,412.069591 1629.92453,409.184196 1628.31616,406.373711 C1626.63455,403.59319 1625.09482,400.754882 1623.26034,398.045258 C1616.2309,387.07166 1608.18169,376.598356 1600.06016,366.111141 C1591.97525,355.612422 1583.74021,345.052704 1576.94053,333.782406 C1570.08959,322.538059 1564.27948,310.78753 1559.29598,298.720772 C1554.18707,286.705916 1549.73817,274.456697 1545.08331,262.317435 C1540.46506,250.161319 1536.02257,237.941797 1531.87484,225.600812 C1523.4677,200.953623 1516.1792,175.89068 1508.2856,151.225833 C1504.20196,138.940496 1500.25287,126.616901 1495.09361,114.74277 C1489.95175,102.879341 1483.53563,91.4581509 1474.78522,81.3559227 C1470.52123,76.2689586 1465.49196,71.6017613 1459.36877,67.8784374 C1453.30418,64.144412 1445.89392,61.4626129 1437.46207,61.0372277 C1433.24568,60.8558371 1428.80411,61.3416858 1424.43027,62.3989953 C1422.23054,62.8645111 1420.08024,63.641976 1417.93726,64.3691438 L1414.79282,65.689978 C1413.74376,66.1228542 1412.75695,66.694315 1411.73901,67.185782 C1403.66051,71.3700735 1396.82971,77.1258822 1390.65801,83.1141813 C1384.50827,89.1648167 1378.96912,95.5621811 1373.31188,102.009843 C1324.86557,165.419249 1422.63927,180.371671 1432.1417,227.750211 C1441.64367,275.128484 1396.47636,302.149537 1381.89111,315.921314 C1356.36762,341.16966 1376.09519,374.169113 1391.00678,396.257036 C1432.1417,457.188775 1287.09021,484.626384 1301.67454,509.87473 C1303.49713,515.612614 1310.79021,523.646775 1308.96671,530.532396 C1303.49713,547.747385 1277.97455,554.633005 1257.91972,564.962106 Z" id="path-13"></path>
        <filter x="-1.5%" y="-1.2%" width="103.0%" height="102.4%" filterUnits="objectBoundingBox" id="filter-14">
            <feOffset dx="0" dy="13" in="SourceAlpha" result="shadowOffsetInner1"></feOffset>
            <feComposite in="shadowOffsetInner1" in2="SourceAlpha" operator="arithmetic" k2="-1" k3="1" result="shadowInnerInner1"></feComposite>
            <feColorMatrix values="0 0 0 0 0   0 0 0 0 0   0 0 0 0 0.643137255  0 0 0 1 0" type="matrix" in="shadowInnerInner1"></feColorMatrix>
        </filter>
    </defs>
    <g id="仅展示v1.1（NFTs-为主）" stroke="none" stroke-width="1" fill="none" fill-rule="evenodd">
        <g id="编组" transform="translate(0.000000, 0.000000)">
            <mask id="mask-2" fill="white">
                <use xlink:href="#path-1"></use>
            </mask>
            <use id="Fill-1" fill="#000087" xlink:href="#path-1"></use>
            <g id="流体背景" mask="url(#mask-2)">
                <g transform="translate(-723.000000, -236.000000)">
                    <path d="M295.319971,97.4243942 C231.587021,109.880024 147.115805,105.489535 92.4532704,136.711236 C2.86230898,202.106232 -18.1023417,393.417196 14.4512857,395.410952 C15.0990416,393.153269 13.8960663,389.218702 16.132061,386.161752 C15.168673,412.081654 38.3696948,454.906237 96.1367851,450.157963 C137.312346,446.79029 110.014978,408.183989 157.863249,424.025207 C172.953579,430.971534 178.661069,441.813119 184.63609,454.333995 C225.230778,536.274816 288.813012,401.455863 311.174791,518.792546 C329.133296,534.332936 337.980157,509.381299 359.055587,524.449723 C371.603911,544.30252 371.033574,568.294448 375.150992,590.22871 C402.726886,697.512913 487.855936,531.920159 555.973378,609.798862 C564.805122,618.312705 580.642158,617.535097 596.92172,610.573529 C649.153108,586.302165 665.003429,623.127028 708.207007,635.095182 C786.760922,630.240481 831.326436,645.296069 879.057433,657.146299 C921.009476,657.25326 985.28665,684.185016 1024.61194,704.320725 C1059.17434,720.960409 988.098479,676.347168 975.675675,666.238534 C955.797266,671.340582 934.796965,626.803283 913.845681,619.777806 C892.925547,615.192112 871.035613,645.536465 835.053094,608.755189 C767.736414,482.745559 843.682357,406.346931 797.281229,363.364848 C747.5213,317.270729 741.958075,287.770237 730.825702,248.736885 C719.693329,209.703532 686.293464,49.6869802 471.893594,0.375736683 C420.761192,-6.77381604 349.067676,90.3922313 295.319971,97.4243942 Z" id="Fill-3" stroke="none" fill="#0031E1" fill-rule="evenodd"></path>
                    <path d="M295.319971,97.4243942 C231.587021,109.880024 147.115805,105.489535 92.4532704,136.711236 C2.86230898,202.106232 -18.1023417,393.417196 14.4512857,395.410952 C15.0990416,393.153269 13.8960663,389.218702 16.132061,386.161752 C15.168673,412.081654 38.3696948,454.906237 96.1367851,450.157963 C137.312346,446.79029 110.014978,408.183989 157.863249,424.025207 C172.953579,430.971534 178.661069,441.813119 184.63609,454.333995 C225.230778,536.274816 288.813012,401.455863 311.174791,518.792546 C329.133296,534.332936 337.980157,509.381299 359.055587,524.449723 C371.603911,544.30252 371.033574,568.294448 375.150992,590.22871 C402.726886,697.512913 487.855936,531.920159 555.973378,609.798862 C564.805122,618.312705 580.642158,617.535097 596.92172,610.573529 C649.153108,586.302165 665.003429,623.127028 708.207007,635.095182 C786.760922,630.240481 831.326436,645.296069 879.057433,657.146299 C921.009476,657.25326 985.28665,684.185016 1024.61194,704.320725 C1059.17434,720.960409 988.098479,676.347168 975.675675,666.238534 C955.797266,671.340582 934.796965,626.803283 913.845681,619.777806 C892.925547,615.192112 871.035613,645.536465 835.053094,608.755189 C767.736414,482.745559 686.293464,49.6869802 471.893594,0.375736683 C420.761192,-6.77381604 349.067676,90.3922313 295.319971,97.4243942 Z" id="Fill-3备份" stroke="#000055" stroke-width="0.5" fill="#0031E1" fill-rule="evenodd"></path>
                    <g id="Fill-6" stroke="none" fill="none">
                        <use fill="#000087" fill-rule="evenodd" xlink:href="#path-3"></use>
                        <use fill="black" fill-opacity="1" filter="url(#filter-4)" xlink:href="#path-3"></use>
                    </g>
                    <g id="Fill-8" stroke="none" fill="none">
                        <use fill="#2FF2EC" fill-rule="evenodd" xlink:href="#path-5"></use>
                        <use fill="black" fill-opacity="1" filter="url(#filter-6)" xlink:href="#path-5"></use>
                        <use stroke="#000055" stroke-width="0.5" xlink:href="#path-5"></use>
                    </g>
                    <g id="Fill-12" stroke="none" fill="none">
                        <use fill="#000087" fill-rule="evenodd" xlink:href="#path-7"></use>
                        <use fill="black" fill-opacity="1" filter="url(#filter-8)" xlink:href="#path-7"></use>
                        <use stroke="#000055" stroke-width="0.5" xlink:href="#path-7"></use>
                    </g>
                    <path d="M371.423426,403.428609 C376.902869,405.725695 386.034968,404.577554 389.686707,406.87464 C404.298249,413.76563 411.603562,425.251864 418.908874,434.440744 C437.173072,455.115054 482.833568,451.669291 510.228948,435.588885 C515.709308,433.291799 521.188751,437.886507 523.014621,440.183057 C532.14672,452.817968 530.32085,467.750233 548.584131,475.790168 C581.458954,491.870306 625.292663,479.235395 654.51483,497.613423 C667.300503,505.653358 656.342534,519.436678 669.126372,527.476613 C686.542289,539.037551 707.546667,547.37309 730.237521,553 C730.262282,552.857018 730.277872,552.707877 730.307218,552.566769 L730.364993,552.290177 L730.438358,552.133271 C731.291225,550.309311 731.173841,548.384675 730.07887,546.404613 C728.507026,543.698662 725.285389,541.071164 721.378706,538.863241 C719.444624,537.741072 717.32346,536.70994 715.100503,535.763955 C713.999112,535.275031 712.85737,534.848763 711.690868,534.392505 L708.028124,533.030426 C703.115425,531.203521 698.093596,529.299234 693.416582,526.915395 C688.833108,524.514151 684.372521,521.516078 682.204587,517.629587 C681.045422,515.739759 680.447497,513.679102 680.482346,511.673871 C680.479595,509.664623 681.024329,507.735435 681.745139,505.908798 C683.195931,502.250168 685.410635,498.94471 686.774305,495.67647 C688.1554,492.418672 688.837694,489.024854 688.790006,485.621129 C688.694632,482.219545 687.860106,478.81341 686.25158,475.54999 C683.051035,469.044837 676.422514,463.077875 667.073071,459.555802 C662.439159,457.781912 657.283439,456.534433 651.971819,455.943226 C646.657447,455.377724 641.204599,455.456444 636.11399,456.235349 C634.834689,456.400823 633.592071,456.652514 632.342116,456.861632 C631.139848,457.165804 629.888059,457.379474 628.733478,457.737465 C626.386718,458.375529 624.13258,459.18121 621.891282,460.111129 C617.403183,461.955171 612.996702,464.230301 607.835479,466.207417 C605.255785,467.191959 602.472503,468.096174 599.459039,468.766102 C596.410726,469.427729 593.19184,469.82508 589.994046,469.928702 C583.590206,470.076504 577.218462,469.188355 571.670239,467.325035 C566.084417,465.522763 561.274429,462.754961 558.02528,459.36623 C554.833906,455.957953 553.269399,452.065839 553.329008,448.240665 C553.331759,444.412277 554.855915,440.619769 557.768503,437.282715 L558.917581,436.051569 L560.220726,434.882007 C560.46283,434.654681 560.606808,434.557486 560.764543,434.440208 L561.241415,434.08543 C561.356965,433.961995 561.656844,433.859444 561.621996,433.718068 L561.524787,433.295548 L561.280849,432.275126 C561.203816,431.849661 561.024989,431.435709 560.863586,431.019079 C560.529775,430.188497 560.26291,429.34667 559.774117,428.543399 C557.059614,423.013149 551.681048,418.044117 544.888373,414.161375 C541.494328,412.208624 537.665596,410.561652 533.573667,409.276686 C532.577739,408.919767 531.510279,408.659507 530.462078,408.376488 L528.887483,407.953432 L527.266118,407.613381 L525.644753,407.275472 C524.811144,407.093397 523.984872,406.994595 523.147594,406.858574 L520.63668,406.473272 C519.863597,406.326006 518.720021,406.281023 518.59255,405.95195 C518.815396,405.578161 519.055666,405.220973 519.265673,404.831119 L519.855343,403.61952 C519.966308,403.415489 520.026834,403.217616 520.096531,403.024832 L520.114872,402.883724 L520.119457,402.84838 C520.120374,402.833921 520.093779,402.775818 520.102033,402.788938 L520.097448,402.757342 L520.083692,402.629355 C520.10295,402.459329 520.012161,402.289036 519.927791,402.119546 C519.64717,401.441853 518.992388,400.754521 518.046898,400.164653 C516.242121,398.940468 513.520282,398.100515 510.817702,397.648274 C509.443943,397.462986 508.044507,397.320272 506.698261,397.373823 C506.008631,397.37302 505.402453,397.460041 504.70732,397.518412 C503.979174,397.625782 503.251944,397.718694 502.521046,397.860337 C499.600205,398.372556 496.665608,399.165384 493.619129,399.953928 C490.554309,400.740062 487.362935,401.56636 483.807487,402.057158 C482.043978,402.311527 480.186011,402.468433 478.291362,402.478072 C477.338535,402.504312 476.401298,402.448351 475.464978,402.367488 C474.530492,402.282877 473.580417,402.25744 472.659687,402.11071 C468.91349,401.586709 465.474509,400.421164 462.539912,398.982238 C459.649334,397.499936 457.357597,395.745058 455.29696,393.949748 C448.521709,387.640326 444.902984,380.731128 439.810541,374.649834 C434.755698,368.734817 427.193608,363.701791 418.081684,360.030845 C408.900981,356.436209 398.472157,353.96642 387.636157,352.88013 C376.830421,351.739754 365.619343,351.649788 354.770505,352.951354 C352.075261,353.319252 349.356173,353.621014 346.696695,354.147691 C345.364204,354.393224 344.012456,354.605555 342.691887,354.876793 L338.745771,355.736025 C336.093629,356.274752 333.568041,357.029558 330.966338,357.665749 C328.455423,358.431533 325.872978,359.115116 323.418004,359.96096 C313.499983,363.224917 304.131282,367.205925 295.453128,371.732087 C279.1707,380.1268 265.080966,390.117344 252,400.533086 C263.507289,396.682207 275.087942,393.608091 287.408664,393.091588 C314.804962,391.942911 345.852998,394.239729 371.423426,403.428609" id="Fill-16" stroke="none" fill="#0025D7" fill-rule="evenodd" opacity="0"></path>
                    <path d="M914,619.425194 C903.395518,615.610668 863.426105,603.289969 858.329847,601.582385 C853.233589,599.86731 848.517375,597.713839 844.200437,595.284863 C842.033726,594.073719 839.994306,592.790089 838.04738,591.343028 C836.152653,589.890618 834.566539,588.280396 833.17457,586.687292 C831.767947,585.114517 830.567373,583.502689 828.99866,582.504726 C827.466577,581.519601 825.404264,581.065422 822.868498,580.941045 C822.263174,580.885676 821.620303,580.877652 820.960949,580.891561 C820.305258,580.903598 819.67063,580.877117 818.999371,580.917506 C817.612895,580.989993 816.450784,581.067295 814.811556,581.130687 C811.780358,581.325412 808.440546,581.163052 805.277478,580.424276 C802.087852,579.692721 799.401899,578.315205 797.306618,576.937154 C795.182033,575.549207 793.410018,574.163131 791.546427,572.934869 C789.707561,571.68922 787.767961,570.627864 785.658944,569.743579 C784.629618,569.281643 783.511464,568.909848 782.394225,568.548484 C781.283396,568.180968 780.177146,567.922583 778.995803,567.679178 C775.146823,566.920875 770.938862,566.552557 766.547746,566.297649 C762.159378,566.033915 752.367199,564.543317 743.611514,552.091598 C734.85583,539.639879 732.24766,517.831978 713.509214,516.39066 C694.770768,514.949342 686.986591,538.067133 669.595209,526.5182 C656.82938,518.486347 667.771912,504.717607 655.005167,496.685753 C625.82325,478.327613 582.05129,490.9486 549.222778,474.885428 C530.985225,466.853574 532.808523,451.937885 523.689288,439.315828 C521.865991,437.021394 516.394267,432.431993 510.922543,434.726694 C483.565755,450.790134 437.968666,454.231784 419.730197,433.578942 C412.436092,424.399872 405.140155,412.926101 390.549196,406.041463 C386.902601,403.746763 377.783367,404.894514 372.311643,402.599011 C346.777237,393.420208 315.772938,391.125507 288.415235,392.272457 C276.111869,392.788691 264.547529,395.859347 253.057367,399.706763 C252.106798,400.463193 251.149819,401.216413 250.209323,401.976588 C243.329146,407.622263 236.765824,413.426553 230.798669,419.469167 C227.710694,422.447009 224.939575,425.550031 222.039332,428.596079 C219.327738,431.71515 216.479694,434.780724 213.942096,437.953291 C209.796407,442.913685 205.908049,447.947636 202.204676,453.030536 C201.839284,457.550393 201.940019,462.102615 202.694613,466.853574 C206.343039,474.885428 209.99055,481.76953 213.638977,487.506416 C224.581509,498.980722 228.229019,515.043894 242.819978,520.781047 C284.767724,539.139188 341.306429,560.940316 383.254175,548.319329 C410.611879,540.28694 441.617093,526.5182 476.269818,527.665952 C490.85986,528.813436 496.331584,537.992239 503.627521,544.876074 C507.275032,548.319329 516.394267,551.760978 520.041777,555.203431 C530.985225,567.824419 551.046992,575.856272 563.812821,589.625012 C565.63795,590.772496 571.108758,583.887859 571.108758,583.887859 C603.938186,571.266871 636.767613,573.561572 665.948614,589.625012 C667.771912,590.772496 675.263208,578.084638 678.910719,576.937154 C713.509214,576.937154 782.394225,601.582385 818.999371,629.088033 C855.604517,656.593682 856.39391,623.072702 877.288111,625.983407 C898.182312,628.893844 900.191704,616.992112 914,619.425194 Z" id="Fill-18" stroke="#000055" stroke-width="0.5" fill="#0031E1" fill-rule="evenodd"></path>
                    <path d="M1329.59469,318.773973 C1300.67915,366.8792 1268.80651,379.355828 1245.05857,410.555287 C1221.31108,441.754479 1257.71366,472.745357 1260.55992,506.78446 C1267.21202,547.136353 1273.58975,652.519296 1174.36615,619.395543 C1149.90229,615.9823 1139.7439,659.994523 1109.13545,666.165583 C1099.85558,662.174196 1072.46348,697.248183 1045.71034,706.605454 C1036.36772,708.695009 1045.15932,709.752622 1066.56394,699.884061 C1106.37897,678.483101 1152.20897,660.957205 1206.28047,655.891893 C1379.30651,613.441888 1298.24278,644.387841 1378.26126,633.546435 C1429.33856,614.803816 1427.4551,585.830827 1497.69125,614.621709 C1512.91188,618.150474 1523.07897,613.552329 1531.65392,603.608625 C1599.83851,538.219509 1685.042,705.221063 1707.45567,579.228432 C1713.91219,558.757531 1706.41913,538.163353 1727.61901,520.567395 C1734.94076,513.250208 1761.35586,534.662399 1774.49929,513.071577 C1782.04228,420.212326 1843.13551,504.411984 1880.23666,475.090557 C1900.842,460.742849 1894.87696,441.5229 1918.20992,426.445961 C1966.69563,404.444662 1947.10897,443.2937 1980.15831,449.048133 C2072.52186,463.215338 2064.30144,360.84559 2066.70522,395.191147 C2066.2197,399.231738 2067.46969,398.492345 2069,392.586557 C2064.93353,351.97688 1994.96534,323.140271 1964.67202,286.811588 C1785.11064,118.966908 1841.69817,244.432019 1662.47302,218.731752 C1659.54389,218.311726 1638.62486,217.876219 1635.58787,217.424106 C1581.41652,210.318442 1532.15489,190.105058 1484.62603,197.666659 C1318.27957,237.583472 1358.51069,270.669013 1329.59469,318.773973 Z" id="Fill-26" stroke="none" fill="#0031E1" fill-rule="evenodd"></path>
                    <path d="M1174.36615,619.462131 C1149.90229,616.051453 1139.7439,660.0306 1109.13545,666.197023 C1099.85558,662.208635 1072.46348,697.256264 1045.71034,706.606502 C1036.36772,708.694487 1045.15932,709.751305 1066.56394,699.89016 C1106.37897,678.505284 1152.20897,660.992559 1206.28047,655.931053 C1379.30651,613.51295 1298.24278,644.435647 1378.26126,633.602389 C1429.33856,614.873855 1427.4551,585.922639 1497.69125,614.691884 C1512.91188,618.217997 1523.07897,613.623309 1531.65392,603.687077 C1599.83851,538.347102 1685.042,705.223152 1707.45567,579.325206 C1713.91219,558.869689 1706.41913,538.290988 1727.61901,520.708254 C1734.94076,513.396566 1761.35586,534.792665 1774.49929,513.218069 C1782.04228,420.428604 1843.13551,504.564984 1880.23666,475.265593 C1900.842,460.928668 1894.87696,441.723163 1918.20992,426.657554 C1966.69563,404.672789 1947.10897,443.492632 1980.15831,449.24274 C2072.52186,463.399298 2064.30144,361.106482 2066.70522,395.426229 C2066.2197,399.463783 2067.46969,398.724946 2069,392.823596 C2064.93353,352.244438 1994.96534,323.4295 1964.67202,287.128119 C1785.11064,119.409577 1841.69817,244.780399 1662.47302,219.099446 C1659.54389,218.679735 1638.62486,218.244556 1635.58787,217.792782 C1581.41652,210.692458 1273.58975,652.560991 1174.36615,619.462131 Z" id="Fill-26备份" stroke="#000055" stroke-width="0.5" fill="#0031E1" fill-rule="evenodd"></path>
                    <g id="Fill-29" stroke="none" fill="none">
                        <use fill="#000087" fill-rule="evenodd" xlink:href="#path-9"></use>
                        <use fill="black" fill-opacity="1" filter="url(#filter-10)" xlink:href="#path-9"></use>
                    </g>
                    <path d="M1060,720.359746 C1097.0901,707.301474 1071.12059,736.87364 1118.87348,687.256928 C1134.89144,699.731771 1165.23452,693.609968 1182.81963,670.115945 C1201.73218,659.199285 1268.00267,551.383243 1218.19209,620.204931 C1192.8467,645.366126 1226.5918,617.134813 1233.26383,605.574247 C1303.82764,458.743152 1591.43182,393.804631 1591.08597,488.233495 C1595.02921,570.383502 1595.30015,850.433615 1390.72749,839.699681 C1326.6419,841.811687 1340.68684,720.985225 1294.94841,722.484005 C1190.15975,725.917772 1131.15255,727.646801 1107.06964,727.234121 C1094.59838,724.48159 1074.49726,717.721055 1060,720.359746 Z" id="Fill-29备份" stroke="none" fill="#000087" fill-rule="evenodd"></path>
                    <g id="Fill-31" stroke="none" fill="none">
                        <use fill="#2FF2EC" fill-rule="evenodd" xlink:href="#path-11"></use>
                        <use fill="black" fill-opacity="1" filter="url(#filter-12)" xlink:href="#path-11"></use>
                        <use stroke="#000055" stroke-width="0.5" xlink:href="#path-11"></use>
                    </g>
                    <g id="Fill-35" stroke="none" fill="none">
                        <use fill="#000087" fill-rule="evenodd" xlink:href="#path-13"></use>
                        <use fill="black" fill-opacity="1" filter="url(#filter-14)" xlink:href="#path-13"></use>
                        <use stroke="#000055" stroke-width="0.5" xlink:href="#path-13"></use>
                    </g>
                    <path d="M1710.57657,403.428609 C1736.147,394.239729 1767.19504,391.942911 1794.59134,393.091588 C1806.91206,393.608091 1818.49271,396.682207 1830,400.533086 C1816.91903,390.117344 1802.8293,380.1268 1786.54687,371.732087 C1777.86872,367.205925 1768.50002,363.224917 1758.582,359.96096 C1756.12702,359.115116 1753.54458,358.431533 1751.03366,357.665749 C1748.43196,357.029558 1745.90637,356.274752 1743.25423,355.736025 L1739.30811,354.876793 C1737.98754,354.605555 1736.6358,354.393224 1735.30331,354.147691 C1732.64383,353.621014 1729.92474,353.319252 1727.2295,352.951354 C1716.38066,351.649788 1705.16958,351.739754 1694.36384,352.88013 C1683.52784,353.96642 1673.09902,356.436209 1663.91832,360.030845 C1654.80639,363.701791 1647.2443,368.734817 1642.18946,374.649834 C1637.09702,380.731128 1633.47829,387.640326 1626.70304,393.949748 C1624.6424,395.745058 1622.35067,397.499936 1619.46009,398.982238 C1616.52549,400.421164 1613.08651,401.586709 1609.34031,402.11071 C1608.41958,402.25744 1607.46951,402.282877 1606.53502,402.367488 C1605.5987,402.448351 1604.66147,402.504312 1603.70864,402.478072 C1601.81399,402.468433 1599.95602,402.311527 1598.19251,402.057158 C1594.63707,401.56636 1591.44569,400.740062 1588.38087,399.953928 C1585.33439,399.165384 1582.3998,398.372556 1579.47895,397.860337 C1578.74806,397.718694 1578.02083,397.625782 1577.29268,397.518412 C1576.59755,397.460041 1575.99137,397.37302 1575.30174,397.373823 C1573.95549,397.320272 1572.55606,397.462986 1571.1823,397.648274 C1568.47972,398.100515 1565.75788,398.940468 1563.9531,400.164653 C1563.00761,400.754521 1562.35283,401.441853 1562.07221,402.119546 C1561.98784,402.289036 1561.89705,402.459329 1561.91631,402.629355 L1561.90255,402.757342 L1561.89797,402.788938 C1561.90622,402.775818 1561.87963,402.833921 1561.88054,402.84838 L1561.88513,402.883724 L1561.90347,403.024832 C1561.97317,403.217616 1562.03369,403.415489 1562.14466,403.61952 L1562.73433,404.831119 C1562.94433,405.220973 1563.1846,405.578161 1563.40745,405.95195 C1563.27998,406.281023 1562.1364,406.326006 1561.36332,406.473272 L1558.85241,406.858574 C1558.01513,406.994595 1557.18886,407.093397 1556.35525,407.275472 L1554.73388,407.613381 L1553.11252,407.953432 L1551.53792,408.376488 C1550.48972,408.659507 1549.42226,408.919767 1548.42633,409.276686 C1544.3344,410.561652 1540.50567,412.208624 1537.11163,414.161375 C1530.31895,418.044117 1524.94039,423.013149 1522.22588,428.543399 C1521.73709,429.34667 1521.47022,430.188497 1521.13641,431.019079 C1520.97501,431.435709 1520.79618,431.849661 1520.71915,432.275126 L1520.47521,433.295548 L1520.378,433.718068 C1520.34316,433.859444 1520.64304,433.961995 1520.75858,434.08543 L1521.23546,434.440208 C1521.39319,434.557486 1521.53717,434.654681 1521.77927,434.882007 L1523.08242,436.051569 L1524.2315,437.282715 C1527.14408,440.619769 1528.66824,444.412277 1528.67099,448.240665 C1528.7306,452.065839 1527.16609,455.957953 1523.97472,459.36623 C1520.72557,462.754961 1515.91558,465.522763 1510.32976,467.325035 C1504.78154,469.188355 1498.40979,470.076504 1492.00595,469.928702 C1488.80816,469.82508 1485.58927,469.427729 1482.54096,468.766102 C1479.5275,468.096174 1476.74421,467.191959 1474.16452,466.207417 C1469.0033,464.230301 1464.59682,461.955171 1460.10872,460.111129 C1457.86742,459.18121 1455.61328,458.375529 1453.26652,457.737465 C1452.11194,457.379474 1450.86015,457.165804 1449.65788,456.861632 C1448.40793,456.652514 1447.16531,456.400823 1445.88601,456.235349 C1440.7954,455.456444 1435.34255,455.377724 1430.02818,455.943226 C1424.71656,456.534433 1419.56084,457.781912 1414.92693,459.555802 C1405.57749,463.077875 1398.94896,469.044837 1395.74842,475.54999 C1394.13989,478.81341 1393.30537,482.219545 1393.20999,485.621129 C1393.16231,489.024854 1393.8446,492.418672 1395.22569,495.67647 C1396.58937,498.94471 1398.80407,502.250168 1400.25486,505.908798 C1400.97567,507.735435 1401.52041,509.664623 1401.51765,511.673871 C1401.5525,513.679102 1400.95458,515.739759 1399.79541,517.629587 C1397.62748,521.516078 1393.16689,524.514151 1388.58342,526.915395 C1383.9064,529.299234 1378.88457,531.203521 1373.97188,533.030426 L1370.30913,534.392505 C1369.14263,534.848763 1368.00089,535.275031 1366.8995,535.763955 C1364.67654,536.70994 1362.55538,537.741072 1360.62129,538.863241 C1356.71461,541.071164 1353.49297,543.698662 1351.92113,546.404613 C1350.82616,548.384675 1350.70878,550.309311 1351.56164,552.133271 L1351.63501,552.290177 L1351.69278,552.566769 C1351.72213,552.707877 1351.73772,552.857018 1351.76248,553 C1374.45333,547.37309 1395.45771,539.037551 1412.87363,527.476613 C1425.65747,519.436678 1414.6995,505.653358 1427.48517,497.613423 C1456.70734,479.235395 1500.54105,491.870306 1533.41587,475.790168 C1551.67915,467.750233 1549.85328,452.817968 1558.98538,440.183057 C1560.81125,437.886507 1566.29069,433.291799 1571.77105,435.588885 C1599.16643,451.669291 1644.82693,455.115054 1663.09113,434.440744 C1670.39644,425.251864 1677.70175,413.76563 1692.31329,406.87464 C1695.96503,404.577554 1705.09713,405.725695 1710.57657,403.428609" id="Fill-39" stroke="none" fill="#0025D7" fill-rule="evenodd"></path>
                    <path d="M1262.49822,597.769808 C1262.49822,595.061521 1262.48998,594.000024 1263.53916,592.054304 C1263.75065,591.563662 1264.13333,591.097887 1264.54806,590.637727 C1264.89779,590.157514 1265.45351,589.753236 1266.0019,589.345749 C1266.50544,588.908851 1267.18383,588.600028 1267.83934,588.273023 C1268.47471,587.924627 1269.19156,587.6642 1269.9194,587.416072 C1271.4126,586.945484 1273.11272,586.65297 1274.80917,586.611527 C1276.50928,586.565537 1278.1627,586.752703 1279.67605,587.053238 C1282.72106,587.665269 1285.26803,588.669279 1287.6914,589.671418 C1292.49328,591.694678 1296.8429,593.957244 1301.67316,595.31874 C1360.42654,610.373248 1378.71385,578.081586 1404.24028,589.551632 C1407.88678,590.69869 1413.35699,590.69869 1415.17978,589.551632 C1444.35271,573.493889 1477.17305,571.20004 1509.99339,583.816609 C1509.99339,583.816609 1515.46269,590.69869 1517.28731,589.551632 C1530.05006,575.787737 1550.10582,567.759133 1561.04624,555.142564 C1564.69274,551.70139 1573.80945,548.261018 1577.45595,544.81931 C1584.74987,537.938031 1590.22008,528.762369 1604.80609,527.615311 C1639.44922,526.467985 1670.44585,540.23188 1697.79599,548.261018 C1739.73212,560.877587 1796.25518,539.084554 1838.19132,520.73323 C1852.77824,514.998207 1856.42474,498.940732 1867.36424,487.470954 C1871.01166,481.735931 1874.65816,474.854385 1878.30558,466.825781 C1879.05996,462.076586 1879.16067,457.526054 1878.79538,453.007876 C1875.09303,447.926596 1871.20575,442.894781 1867.06121,437.936228 C1864.52431,434.76484 1861.67706,431.700404 1858.96621,428.582492 C1856.06677,425.537574 1853.29642,422.435437 1850.2093,419.458701 C1844.2438,413.418598 1837.68229,407.616196 1830.80402,401.972884 C1829.86378,401.212724 1828.90707,400.460051 1827.95676,399.703902 C1816.46978,395.857915 1804.90864,392.788131 1792.60868,392.272356 C1765.25855,391.125833 1734.26283,393.419682 1708.73549,402.594809 C1703.26528,404.88946 1694.14857,403.742135 1690.50298,406.035983 C1675.91606,412.918331 1668.62215,424.387842 1661.33006,433.563237 C1643.09664,454.20841 1597.51217,450.768038 1570.16295,434.710562 C1564.69274,432.416714 1559.22253,437.004678 1557.39974,439.29826 C1548.28303,451.915363 1550.10582,466.825781 1531.87331,474.854385 C1499.05389,490.91186 1455.29404,478.295291 1426.1202,496.646883 C1413.35699,504.675487 1424.29649,518.439381 1411.5342,526.467985 C1394.14763,538.012897 1345.40672,530.259072 1350.52602,551.955401 C1350.81899,553.56155 1350.87026,555.317698 1350.01791,557.213686 C1349.17655,559.290957 1346.71107,561.300849 1343.98649,562.461811 C1341.24727,563.668494 1338.46044,564.254858 1335.87776,564.674643 C1333.27678,565.086943 1330.79024,565.319028 1328.38243,565.493359 C1323.57323,565.837744 1318.99564,565.969295 1314.60849,566.232931 C1310.21859,566.487476 1306.01179,566.855925 1302.16388,567.613946 C1300.98286,567.856994 1299.87692,568.11555 1298.7664,568.48293 C1297.64947,568.844159 1296.53162,569.215549 1295.50258,569.677581 C1293.39415,570.56127 1291.45508,571.622232 1289.61673,572.867419 C1287.75365,574.095225 1285.98213,575.481053 1283.85813,576.868218 C1281.76343,578.246024 1279.07822,579.622761 1275.88948,580.354044 C1272.72728,581.092547 1269.3884,581.255113 1266.35804,581.060194 C1264.71926,580.997092 1263.55747,580.919819 1262.17138,580.847092 C1261.50031,580.806985 1260.86586,580.833188 1260.21035,580.821424 C1259.55117,580.80752 1258.90848,580.815541 1258.30333,580.870889 C1255.76826,580.99522 1253.70652,581.448963 1252.17486,582.433989 C1250.60658,583.431315 1249.40634,585.042811 1248.00011,586.614735 C1246.60852,588.207515 1245.02285,589.817139 1243.12864,591.26901 C1241.18226,592.715533 1239.1434,593.998687 1236.97729,595.209382 C1232.66155,597.637187 1227.94664,599.790127 1222.85179,601.504564 C1217.75694,603.211515 1174.97935,617.211953 1167,619.347246 C1179.92219,616.861752 1183.01081,628.805615 1203.89877,625.896526 C1224.78719,622.986903 1225.58552,629 1242.83064,629 C1260.07576,629 1262.49822,613.47969 1262.49822,597.769808 Z" id="Fill-41" stroke="#000055" stroke-width="0.5" fill="#0031E1" fill-rule="evenodd"></path>
                </g>
            </g>
            <polygon id="矩形" fill="#000087" mask="url(#mask-2)" points="0 475 421.165565 475 632 475 632 632 0 632"></polygon>
        </g>
    </g>
</svg>