<?xml version="1.0" encoding="UTF-8"?>
<svg width="279px" height="293px" viewBox="0 0 279 293" version="1.1" xmlns="http://www.w3.org/2000/svg" xmlns:xlink="http://www.w3.org/1999/xlink">
    <title>das_planet_light</title>
    <defs>
        <radialGradient cx="64.7778485%" cy="0%" fx="64.7778485%" fy="0%" r="130.238478%" gradientTransform="translate(0.647778,0.000000),scale(1.000000,0.768222),rotate(86.841446),scale(1.000000,2.013857),translate(-0.647778,-0.000000)" id="radialGradient-1">
            <stop stop-color="#D75EAF" stop-opacity="0.594241696" offset="0.0998757102%"></stop>
            <stop stop-color="#FDDBC8" stop-opacity="0.622941024" offset="100%"></stop>
        </radialGradient>
        <linearGradient x1="64.6620149%" y1="39.9163941%" x2="60.3236281%" y2="61.71431%" id="linearGradient-2">
            <stop stop-color="#D883A7" offset="0.0998757102%"></stop>
            <stop stop-color="#F2B6B6" offset="100%"></stop>
        </linearGradient>
    </defs>
    <g id="仅展示" stroke="none" stroke-width="1" fill="none" fill-rule="evenodd">
        <g id="滑动信息流" transform="translate(-1161.000000, 0.000000)">
            <g id="das_planet_light" transform="translate(1161.000000, -0.000194)">
                <g id="编组-13" transform="translate(0.000000, 0.000000)">
                    <path d="M279,0.000194404423 L279.002104,277.378299 C258.362524,287.387726 235.199567,293.000194 210.727288,293.000194 C124.12079,293.000194 53.9127929,222.708728 53.9127929,136.000024 C53.9127929,77.8850374 85.4510349,27.1450159 132.326763,1.17239551e-13 L279,0.000194404423 Z" id="形状结合" fill="url(#radialGradient-1)"></path>
                    <path d="M0.688089971,68.0839659 C5.33401505,55.7365131 32.9221467,53.3861399 73.7118401,59.5719413 C71.0846416,64.292756 68.6874462,69.1608518 66.546074,74.1663645 C59.5668243,74.7272567 55.2052604,76.5218398 54.0219509,79.6640609 C52.8185969,82.8603645 55.0088915,87.1825342 60.0628426,92.326144 C78.1128136,110.687287 132.659881,139.507761 199.868666,164.856417 C228.208026,175.547879 255.262632,184.288515 279.000986,190.681937 L279.001221,219.069432 C251.52236,211.743909 221.426829,202.090297 190.276826,190.34283 C135.999511,169.867372 88.314144,146.72657 54.2624859,125.454162 C16.8222751,102.062676 -4.15012715,80.9327863 0.688089971,68.0839659 Z" id="形状结合" fill="url(#linearGradient-2)"></path>
                </g>
            </g>
        </g>
    </g>
</svg>