<?xml version="1.0" encoding="UTF-8"?>
<svg width="279px" height="293px" viewBox="0 0 279 293" version="1.1" xmlns="http://www.w3.org/2000/svg" xmlns:xlink="http://www.w3.org/1999/xlink">
    <title>das_planet_dark</title>
    <defs>
        <rect id="path-1" x="0" y="0" width="279" height="293"></rect>
        <radialGradient cx="57.1520577%" cy="15.7411014%" fx="57.1520577%" fy="15.7411014%" r="78.676571%" gradientTransform="translate(0.571521,0.157411),scale(1.000000,0.998817),rotate(90.000000),translate(-0.571521,-0.157411)" id="radialGradient-3">
            <stop stop-color="#141628" offset="0.0998757102%"></stop>
            <stop stop-color="#000000" offset="100%"></stop>
        </radialGradient>
        <path d="M313.628651,156.99983 C313.628651,243.708534 243.420654,314 156.814156,314 C70.2079968,314 -3.86238048e-14,243.708534 -3.86238048e-14,156.99983 C-3.86238048e-14,70.2911259 70.2079968,0 156.814156,0 C243.420654,0 313.628651,70.2911259 313.628651,156.99983" id="path-4"></path>
        <filter x="-2.0%" y="-2.0%" width="104.0%" height="104.0%" filterUnits="objectBoundingBox" id="filter-5">
            <feGaussianBlur stdDeviation="6" in="SourceAlpha" result="shadowBlurInner1"></feGaussianBlur>
            <feOffset dx="0" dy="0" in="shadowBlurInner1" result="shadowOffsetInner1"></feOffset>
            <feComposite in="shadowOffsetInner1" in2="SourceAlpha" operator="arithmetic" k2="-1" k3="1" result="shadowInnerInner1"></feComposite>
            <feColorMatrix values="0 0 0 0 0.0235294118   0 0 0 0 0.031372549   0 0 0 0 0.0549019608  0 0 0 1 0" type="matrix" in="shadowInnerInner1"></feColorMatrix>
        </filter>
        <path d="M16.5588584,46.3880682 C5.57137297,68.1941576 2.89678536e-14,91.7240808 2.89678536e-14,116.323407 L2.89678536e-14,116.323407 C2.89678536e-14,155.625661 14.4701456,192.696931 40.8756472,221.45584 L40.8756472,221.45584 C41.263289,221.878975 41.6543281,222.298028 42.0457069,222.716061 L42.0457069,222.716061 C42.4863479,223.185796 42.9290272,223.65417 43.3764629,224.119142 L43.3764629,224.119142 C43.9067949,224.671871 44.4405242,225.219158 44.9776509,225.762023 L44.9776509,225.762023 C45.152956,225.938896 45.3221458,226.120191 45.4984701,226.296044 L45.4984701,226.296044 C45.5952956,226.392644 45.694839,226.485842 45.7916645,226.582442 L45.7916645,226.582442 C45.8303947,226.621219 45.8687852,226.661015 45.9075154,226.699451 L45.9075154,226.699451 C45.9085346,226.699111 45.909214,226.698771 45.9102333,226.698771 L45.9102333,226.698771 C75.2035128,255.815507 114.040049,271.848386 155.340709,271.848386 L155.340709,271.848386 C179.911283,271.848386 203.413039,266.270076 225.193679,255.269581 L225.193679,255.269581 C242.645031,246.454831 258.485342,234.214523 271.526887,219.532683 L271.526887,219.532683 C245.688749,236.64823 215.816215,245.639854 184.465479,245.639854 L184.465479,245.639854 C149.695953,245.639854 116.643466,234.482894 89.3685732,213.875801 L89.3685732,213.875801 C117.968446,204.356959 148.889413,192.157468 179.742773,178.139924 L179.742773,178.139924 C213.774726,162.670658 245.90822,145.848652 273.566338,129.117464 L273.566338,129.117464 C244.7385,144.064274 211.428491,158.799515 176.311413,172.04664 L176.311413,172.04664 C141.963842,185.000224 107.975376,195.739831 77.0116016,203.517492 L77.0116016,203.517492 C75.5001046,202.115431 74.0042357,200.690241 72.5389432,199.223554 L72.5389432,199.223554 C42.6426276,169.2915 26.1778768,129.495021 26.1778768,87.1644928 L26.1778768,87.1644928 C26.1778768,55.7769759 35.1581867,25.8690718 52.253832,0 L52.253832,0 C37.5890162,13.0576669 25.3631837,28.9163936 16.5588584,46.3880682" id="path-6"></path>
        <linearGradient x1="27.5798464%" y1="47.529883%" x2="31.2741066%" y2="57.0555425%" id="linearGradient-8">
            <stop stop-color="#171B30" offset="0%"></stop>
            <stop stop-color="#06070D" offset="100%"></stop>
        </linearGradient>
    </defs>
    <g id="仅展示" stroke="none" stroke-width="1" fill="none" fill-rule="evenodd">
        <g id="深色主题" transform="translate(-1161.000000, 0.000000)">
            <g id="编组-13" transform="translate(1161.000000, 0.000000)">
                <mask id="mask-2" fill="white">
                    <use xlink:href="#path-1"></use>
                </mask>
                <g id="矩形"></g>
                <g id="星球" style="mix-blend-mode: difference;" mask="url(#mask-2)">
                    <g transform="translate(207.000000, 136.000000) scale(-1, 1) translate(-207.000000, -136.000000) translate(0.000000, -21.000000)" id="编组">
                        <g transform="translate(46.458556, 0.000000)" id="Fill-1">
                            <use fill="#0B0C0F" fill-rule="evenodd" xlink:href="#path-4"></use>
                            <use fill="url(#radialGradient-3)" fill-rule="evenodd" xlink:href="#path-4"></use>
                            <use fill="black" fill-opacity="1" filter="url(#filter-5)" xlink:href="#path-4"></use>
                            <use stroke="#000000" stroke-width="0.5338" xlink:href="#path-4"></use>
                        </g>
                        <g transform="translate(47.931934, 40.676355)">
                            <mask id="mask-7" fill="white">
                                <use xlink:href="#path-6"></use>
                            </mask>
                            <g id="Clip-6"></g>
                            <path d="M16.5588584,46.3880682 C5.57137297,68.1941576 2.89678536e-14,91.7240808 2.89678536e-14,116.323407 L2.89678536e-14,116.323407 C2.89678536e-14,155.625661 14.4701456,192.696931 40.8756472,221.45584 L40.8756472,221.45584 C41.263289,221.878975 41.6543281,222.298028 42.0457069,222.716061 L42.0457069,222.716061 C42.4863479,223.185796 42.9290272,223.65417 43.3764629,224.119142 L43.3764629,224.119142 C43.9067949,224.671871 44.4405242,225.219158 44.9776509,225.762023 L44.9776509,225.762023 C45.152956,225.938896 45.3221458,226.120191 45.4984701,226.296044 L45.4984701,226.296044 C45.5952956,226.392644 45.694839,226.485842 45.7916645,226.582442 L45.7916645,226.582442 C45.8303947,226.621219 45.8687852,226.661015 45.9075154,226.699451 L45.9075154,226.699451 C45.9085346,226.699111 45.909214,226.698771 45.9102333,226.698771 L45.9102333,226.698771 C75.2035128,255.815507 114.040049,271.848386 155.340709,271.848386 L155.340709,271.848386 C179.911283,271.848386 203.413039,266.270076 225.193679,255.269581 L225.193679,255.269581 C242.645031,246.454831 258.485342,234.214523 271.526887,219.532683 L271.526887,219.532683 C245.688749,236.64823 215.816215,245.639854 184.465479,245.639854 L184.465479,245.639854 C149.695953,245.639854 116.643466,234.482894 89.3685732,213.875801 L89.3685732,213.875801 C117.968446,204.356959 148.889413,192.157468 179.742773,178.139924 L179.742773,178.139924 C213.774726,162.670658 245.90822,145.848652 273.566338,129.117464 L273.566338,129.117464 C244.7385,144.064274 211.428491,158.799515 176.311413,172.04664 L176.311413,172.04664 C141.963842,185.000224 107.975376,195.739831 77.0116016,203.517492 L77.0116016,203.517492 C75.5001046,202.115431 74.0042357,200.690241 72.5389432,199.223554 L72.5389432,199.223554 C42.6426276,169.2915 26.1778768,129.495021 26.1778768,87.1644928 L26.1778768,87.1644928 C26.1778768,55.7769759 35.1581867,25.8690718 52.253832,0 L52.253832,0 C37.5890162,13.0576669 25.3631837,28.9163936 16.5588584,46.3880682" id="Fill-5" mask="url(#mask-7)"></path>
                        </g>
                        <g transform="translate(0.000000, 29.609090)">
                            <path d="M359.737514,116.844877 C325.685856,138.117285 278.000489,161.258087 223.723174,181.733546 C169.441442,202.204582 118.361747,216.317366 78.7506063,222.832424 C35.2052933,229.992388 5.52029514,227.966169 0.687513842,215.117349 C-3.95909072,202.769896 15.2205111,182.776077 49.9496079,160.476103 C51.0890911,165.821417 52.5085189,171.062987 54.178334,176.191971 C49.3061431,181.217212 47.2140329,185.446183 48.3929258,188.588404 C49.5959401,191.784708 54.090002,193.584393 61.2853254,194.110591 C86.9481585,195.984086 146.927306,181.600891 214.131334,156.247132 C281.340119,130.898476 335.887186,102.078002 353.937157,83.7168592 C358.991108,78.5732493 361.181403,74.2510796 359.978049,71.0547761 C358.79474,67.912555 354.433176,66.1179719 347.453926,65.5570796 C345.312554,60.551567 342.915358,55.6834712 340.28816,50.9626564 C381.077853,44.776855 408.665985,47.1272283 413.31191,59.4746811 C418.150127,72.3235015 397.177725,93.4533908 359.737514,116.844877" id="Fill-7" fill="url(#linearGradient-8)"></path>
                        </g>
                    </g>
                </g>
            </g>
        </g>
    </g>
</svg>