<?xml version="1.0" encoding="UTF-8"?>
<svg width="212px" height="13px" viewBox="0 0 212 13" version="1.1" xmlns="http://www.w3.org/2000/svg" xmlns:xlink="http://www.w3.org/1999/xlink">
    <title>切片</title>
    <defs>
        <filter id="filter-1">
            <feColorMatrix in="SourceGraphic" type="matrix" values="0 0 0 0 0.066667 0 0 0 0 0.078431 0 0 0 0 0.176471 0 0 0 1.000000 0"></feColorMatrix>
        </filter>
    </defs>
    <g id="仅展示v1.1（NFTs-为主）" stroke="none" stroke-width="1" fill="none" fill-rule="evenodd" opacity="0.0799999982">
        <g id="pc-端" transform="translate(-615.000000, -1107.000000)">
            <g id="分隔符" transform="translate(615.000000, 1107.000000)" filter="url(#filter-1)">
                <g transform="translate(0.520000, 0.300364)">
                    <path d="M4.48,8.8 C2.00791057,8.8 0,6.83224764 0,4.4 C0,1.96775236 2.00791057,0 4.48,0 C6.78705036,0 8.68983106,1.7137846 8.93361142,3.91952053 L59.8737733,3.92 C60.9315551,3.92 61.9524489,4.29417111 62.7578932,4.97183742 L62.9398591,5.13357727 L66.8731593,8.82563948 C67.4713659,9.38715679 68.2450589,9.72045156 69.0592669,9.77210127 L69.2822267,9.77916448 L93.323,9.77863562 L94.9220341,8.27945901 C95.5133482,7.724835 96.2779007,7.39566273 97.0824463,7.34465224 L97.3027593,7.33767647 L113.657241,7.33767647 C114.467957,7.33767647 115.250793,7.62063007 115.872503,8.13382723 L116.037966,8.27945901 L117.636,9.77863562 L141.677773,9.77916448 C142.498232,9.77916448 143.290446,9.49266281 143.919444,8.97308202 L144.086841,8.82563948 L148.020141,5.13357727 C148.791382,4.40963759 149.791809,3.98375651 150.842859,3.92660992 L151.086227,3.92 L202.026389,3.91952053 C202.270169,1.7137846 204.17295,0 206.48,0 C208.952089,0 210.96,1.96775236 210.96,4.4 C210.96,6.83224764 208.952089,8.8 206.48,8.8 C204.17295,8.8 202.270169,7.0862154 202.026389,4.88047947 L151.086227,4.88 C150.265768,4.88 149.473554,5.16650166 148.844556,5.68608246 L148.677159,5.833525 L144.743859,9.5255872 C143.972618,10.2495269 142.972191,10.675408 141.921141,10.7325546 L141.677773,10.7391645 L117.257119,10.7391645 L117.118624,10.6092634 L115.381214,8.97965693 C114.960806,8.58533491 114.419471,8.34838835 113.848527,8.30494226 L113.657241,8.29767647 L97.3027593,8.29767647 C96.7263632,8.29767647 96.1694285,8.49519082 95.7232753,8.85409453 L95.5787859,8.97965693 L93.8413759,10.6092634 L93.7028815,10.7391645 L69.2822267,10.7391645 C68.2244449,10.7391645 67.2035511,10.3649934 66.3981068,9.68732706 L66.2161409,9.5255872 L62.2828407,5.833525 C61.6846341,5.27200769 60.9109411,4.93871291 60.0967331,4.88706321 L59.8737733,4.88 L8.93361142,4.88047947 C8.68983106,7.0862154 6.78705036,8.8 4.48,8.8 Z M4.48,0.96 C2.53381143,0.96 0.96,2.5023352 0.96,4.4 C0.96,6.2976648 2.53381143,7.84 4.48,7.84 C6.42618857,7.84 8,6.2976648 8,4.4 C8,2.5023352 6.42618857,0.96 4.48,0.96 Z M206.48,0.96 C204.533811,0.96 202.96,2.5023352 202.96,4.4 C202.96,6.2976648 204.533811,7.84 206.48,7.84 C208.426189,7.84 210,6.2976648 210,4.4 C210,2.5023352 208.426189,0.96 206.48,0.96 Z" id="Stroke-5" fill="#FFFFFF" fill-rule="nonzero"></path>
                    <path d="M77.699,12.6996356 L93.513,12.6996356 L95.25041,11.0700291 C95.8065048,10.5484391 96.5403306,10.2581476 97.3027593,10.2581476 L105.48,10.2581476 L113.657241,10.2581476 C114.419669,10.2581476 115.153495,10.5484391 115.70959,11.0700291 L117.447,12.6996356 L117.447,12.6996356 L133.261,12.6996356" id="Stroke-5备份" stroke="#FFFFFF" stroke-width="0.96" transform="translate(105.480000, 11.478892) scale(1, -1) translate(-105.480000, -11.478892) "></path>
                    <path d="M77.699,3.14112363 L89.9306543,3.14112363 C90.9472259,3.14112363 91.9256603,2.75406826 92.66712,2.05861497 L92.96188,1.78214429 C93.7033397,1.08669099 94.6817741,0.699635624 95.6983457,0.699635624 L105.48,0.699635624 L115.261654,0.699635624 C116.278226,0.699635624 117.25666,1.08669099 117.99812,1.78214429 L118.29288,2.05861497 C119.03434,2.75406826 120.012774,3.14112363 121.029346,3.14112363 L133.261,3.14112363" id="Stroke-5备份-2" stroke="#FFFFFF" stroke-width="0.96"></path>
                    <ellipse id="椭圆形" fill="#FFFFFF" cx="134.48" cy="3.14010677" rx="2" ry="2.03372596"></ellipse>
                    <ellipse id="椭圆形备份-7" fill="#FFFFFF" cx="76.48" cy="3.14010677" rx="2" ry="2.03372596"></ellipse>
                    <path d="M95.2505043,8.62913141 L93.513,10.2581476 L93.513,10.2581476 L95.25041,11.8877541 C95.8065048,12.4093441 96.5403306,12.6996356 97.3027593,12.6996356 L113.657241,12.6996356 C114.419669,12.6996356 115.153495,12.4093441 115.70959,11.8877541 L117.447,10.2581476 L117.447,10.2581476 L115.709496,8.62913141 C115.15345,8.10780437 114.419815,7.81767647 113.657601,7.81767647 L97.3023987,7.81767647 C96.5401854,7.81767647 95.8065504,8.10780437 95.2505043,8.62913141 Z" id="路径-2" stroke="#979797" fill="#FFFFFF"></path>
                </g>
            </g>
        </g>
    </g>
</svg>