<?xml version="1.0" encoding="UTF-8"?>
<svg width="30px" height="30px" viewBox="0 0 30 30" version="1.1" xmlns="http://www.w3.org/2000/svg" xmlns:xlink="http://www.w3.org/1999/xlink">
    <title>ic-atom</title>
    <defs>
        <linearGradient x1="50.1528874%" y1="-8.23550309e-15%" x2="50.4771941%" y2="519.251721%" id="linearGradient-1">
            <stop stop-color="#C01AEA" offset="4.79894%"></stop>
            <stop stop-color="#4251FA" offset="100%"></stop>
        </linearGradient>
        <linearGradient x1="49.9012802%" y1="-115.762015%" x2="50.0003538%" y2="439.421766%" id="linearGradient-2">
            <stop stop-color="#C01AEA" offset="4.79894%"></stop>
            <stop stop-color="#4251FA" offset="100%"></stop>
        </linearGradient>
        <linearGradient x1="145.615759%" y1="-112.679026%" x2="145.959621%" y2="294.746083%" id="linearGradient-3">
            <stop stop-color="#C01AEA" offset="4.79894%"></stop>
            <stop stop-color="#4251FA" offset="100%"></stop>
        </linearGradient>
        <linearGradient x1="145.615759%" y1="-194.746083%" x2="145.959621%" y2="212.679026%" id="linearGradient-4">
            <stop stop-color="#C01AEA" offset="4.79894%"></stop>
            <stop stop-color="#4251FA" offset="100%"></stop>
        </linearGradient>
        <linearGradient x1="49.9012802%" y1="-339.421766%" x2="50.0003538%" y2="215.762015%" id="linearGradient-5">
            <stop stop-color="#C01AEA" offset="4.79894%"></stop>
            <stop stop-color="#4251FA" offset="100%"></stop>
        </linearGradient>
        <linearGradient x1="-46.3004581%" y1="-194.740072%" x2="-45.9566002%" y2="212.67503%" id="linearGradient-6">
            <stop stop-color="#C01AEA" offset="4.79894%"></stop>
            <stop stop-color="#4251FA" offset="100%"></stop>
        </linearGradient>
        <linearGradient x1="-46.3004581%" y1="-112.678182%" x2="-45.9566002%" y2="294.743676%" id="linearGradient-7">
            <stop stop-color="#C01AEA" offset="4.79894%"></stop>
            <stop stop-color="#4251FA" offset="100%"></stop>
        </linearGradient>
        <linearGradient x1="231.522758%" y1="-105.228429%" x2="231.84741%" y2="414.030494%" id="linearGradient-8">
            <stop stop-color="#C01AEA" offset="4.79894%"></stop>
            <stop stop-color="#4251FA" offset="100%"></stop>
        </linearGradient>
        <linearGradient x1="231.045414%" y1="-314.857363%" x2="231.370066%" y2="204.402162%" id="linearGradient-9">
            <stop stop-color="#C01AEA" offset="4.79894%"></stop>
            <stop stop-color="#4251FA" offset="100%"></stop>
        </linearGradient>
        <linearGradient x1="49.2002459%" y1="-419.251721%" x2="49.5245488%" y2="100%" id="linearGradient-10">
            <stop stop-color="#C01AEA" offset="4.79894%"></stop>
            <stop stop-color="#4251FA" offset="100%"></stop>
        </linearGradient>
        <linearGradient x1="-132.170914%" y1="-314.030563%" x2="-131.846263%" y2="205.228459%" id="linearGradient-11">
            <stop stop-color="#C01AEA" offset="4.79894%"></stop>
            <stop stop-color="#4251FA" offset="100%"></stop>
        </linearGradient>
        <linearGradient x1="-131.693759%" y1="-104.402631%" x2="-131.369106%" y2="414.858471%" id="linearGradient-12">
            <stop stop-color="#C01AEA" offset="4.79894%"></stop>
            <stop stop-color="#4251FA" offset="100%"></stop>
        </linearGradient>
        <linearGradient x1="50.1534648%" y1="-209.184265%" x2="50.4777676%" y2="310.067456%" id="linearGradient-13">
            <stop stop-color="#C01AEA" offset="4.79894%"></stop>
            <stop stop-color="#4251FA" offset="100%"></stop>
        </linearGradient>
    </defs>
    <g id="ic-atom" stroke="none" stroke-width="1" fill="none" fill-rule="evenodd">
        <circle id="椭圆形" fill="#000000" fill-rule="nonzero" cx="15" cy="15" r="15"></circle>
        <g id="Cosmos-Hub-App-logo" transform="translate(7.000000, 6.000000)" fill-rule="nonzero">
            <path d="M8.0175113,3.46652679 C7.06242648,3.46652679 6.28549344,2.68903125 6.28549344,1.73326339 C6.28549344,0.777535714 7.06242648,2.85485921e-16 8.0175113,2.85485921e-16 C8.97259612,2.85485921e-16 9.74960951,0.777535714 9.74960951,1.73326339 C9.74960951,2.68903125 8.97259612,3.46652679 8.0175113,3.46652679 L8.0175113,3.46652679 Z M8.0175113,0.944393304 C7.58281933,0.944393304 7.22920773,1.29828616 7.22920773,1.73326339 C7.22920773,2.16824464 7.58281933,2.52213348 8.0175113,2.52213348 C8.45220326,2.52213348 8.80589523,2.16824464 8.80589523,1.73326339 C8.80589523,1.29828616 8.45220326,0.944393304 8.0175113,0.944393304 L8.0175113,0.944393304 Z" id="形状" fill="url(#linearGradient-1)"></path>
            <path d="M7.57120773,3.75324107 C7.72002916,3.78755357 7.87495773,3.80571429 8.03402469,3.80571429 C8.19317201,3.80571429 8.34810058,3.78755357 8.49692201,3.75320089 L8.49692201,6.99537054 C8.34810058,6.96101786 8.19313183,6.94285714 8.03402469,6.94285714 C7.87495773,6.94285714 7.72002916,6.96101786 7.57120773,6.99533036 L7.57120773,3.75324107 Z" id="路径" fill="url(#linearGradient-2)"></path>
            <path d="M6.53046219,7.59744643 L3.72165862,5.97575893 C3.67698005,6.12180804 3.61522558,6.26508482 3.53567201,6.40289732 C3.45611844,6.54066964 3.36294433,6.66574554 3.25880148,6.77744196 L6.06660058,8.39852679 C6.15925237,8.09610268 6.31980594,7.82312946 6.53046219,7.59744643 L6.53046219,7.59744643 Z" id="路径" fill="url(#linearGradient-3)"></path>
            <path d="M6.06660058,9.60147321 L3.25880148,11.222558 C3.36298451,11.3342545 3.45615862,11.4593705 3.53571219,11.597183 C3.61526576,11.7349554 3.67702023,11.878192 3.72165862,12.0242411 L6.53046219,10.4025937 C6.31980594,10.1768705 6.15921219,9.90389732 6.06660058,9.60147321 Z" id="路径" fill="url(#linearGradient-4)"></path>
            <path d="M7.57120773,11.0046696 L7.57120773,14.2467991 C7.72006933,14.2124464 7.87499791,14.1942857 8.03414523,14.1942857 C8.19321219,14.1942857 8.34814076,14.2124464 8.49692201,14.2467589 L8.49692201,11.0046295 C8.34810058,11.0389821 8.19313183,11.0571429 8.03402469,11.0571429 C7.87495773,11.0571429 7.72002916,11.0389821 7.57120773,11.0046696 L7.57120773,11.0046696 Z" id="路径" fill="url(#linearGradient-5)"></path>
            <path d="M9.53766755,10.4025536 L12.3465113,12.0242411 C12.3911899,11.878192 12.4529443,11.7349152 12.5324979,11.5971027 C12.6120515,11.4593304 12.7052256,11.3342545 12.8093684,11.222558 L10.0015693,9.60147321 C9.90891755,9.90385714 9.7483238,10.1768705 9.53766755,10.4025536 L9.53766755,10.4025536 Z" id="路径" fill="url(#linearGradient-6)"></path>
            <path d="M10.0015693,8.39856696 L12.8093684,6.77744196 C12.7052256,6.66574554 12.6120113,6.54062946 12.5324577,6.40281696 C12.4529042,6.26504464 12.3911497,6.12180804 12.3465113,5.97575893 L9.53766755,7.59744643 C9.7483238,7.82312946 9.90891755,8.09614286 10.0015693,8.39856696 L10.0015693,8.39856696 Z" id="路径" fill="url(#linearGradient-7)"></path>
            <g id="编组" transform="translate(0.000000, 3.620304)">
                <path d="M3.23364969,2.62730268 C2.75612737,3.45441875 1.69434032,3.73852143 0.866621566,3.2606375 C0.0389389771,2.78275357 -0.245967273,1.72115536 0.231567102,0.894039288 C0.709105495,0.0669232168 1.77098898,-0.21721964 2.59866755,0.260664288 C3.4263863,0.738548217 3.71121219,1.80018661 3.23364969,2.62730268 Z M1.04943808,1.36625804 C0.832084066,1.74269107 0.961768441,2.22587857 1.33847469,2.44336518 C1.71517692,2.66085179 2.1984488,2.53159732 2.41581487,2.15512411 C2.63314076,1.7786509 2.50352469,1.29542322 2.12681041,1.07793661 C1.75010416,0.860450002 1.26678808,0.989784824 1.04943808,1.36625804 L1.04943808,1.36625804 Z" id="形状" fill="url(#linearGradient-8)"></path>
                <path d="M3.25024344,8.1607759 C3.72776576,8.98789197 3.44289969,10.0494902 2.61518094,10.5273741 C1.78750237,11.0052179 0.725679156,10.7211554 0.248144781,9.89403929 C-0.229389594,9.06692322 0.0554724593,8.00524465 0.883155049,7.5274009 C1.7108738,7.04951697 2.77272112,7.33365982 3.25024344,8.1607759 Z M1.06601576,9.42186072 C1.28336576,9.79833393 1.76664969,9.9275884 2.1433238,9.71010179 C2.52003808,9.49261518 2.64973451,9.00942768 2.43236844,8.63299465 C2.21504255,8.25652143 1.73171041,8.12718661 1.35500817,8.34467322 C0.978301924,8.56215982 0.848661745,9.0453875 1.06601576,9.42186072 Z" id="形状" fill="url(#linearGradient-9)"></path>
                <path d="M8.05065862,10.9131688 C9.00574344,10.9131688 9.7826363,11.6906643 9.7826363,12.6464321 C9.7826363,13.6021598 9.00574344,14.3796955 8.05065862,14.3796955 C7.0955738,14.3796955 6.31856041,13.6021598 6.31856041,12.6464321 C6.31856041,11.6906643 7.0955738,10.9131688 8.05065862,10.9131688 Z M8.05065862,13.4352982 C8.48535058,13.4352982 8.83896219,13.0814054 8.83896219,12.6464321 C8.83896219,12.2114589 8.48535058,11.8575661 8.05065862,11.8575661 C7.61596666,11.8575661 7.26227469,12.2114589 7.26227469,12.6464321 C7.26227469,13.0814054 7.61596666,13.4352982 8.05065862,13.4352982 Z" id="形状" fill="url(#linearGradient-10)"></path>
                <path d="M12.8345202,8.1320884 C13.3120425,7.30497232 14.3738417,7.02086965 15.2015604,7.49875357 C16.029239,7.9766375 16.3141452,9.03823572 15.8365827,9.86535179 C15.3590604,10.6924679 14.2971809,10.9766107 13.4695024,10.4987268 C12.6417836,10.0208429 12.3569577,8.95920447 12.8345202,8.1320884 L12.8345202,8.1320884 Z M15.0187479,9.39313304 C15.2360738,9.0167 15.1064175,8.5335125 14.7297033,8.3160259 C14.352989,8.09853929 13.8697211,8.22779375 13.652355,8.60426697 C13.4350292,8.98074018 13.5646452,9.46396786 13.9413595,9.68145447 C14.3180738,9.89894107 14.8013818,9.76960625 15.0187479,9.39313304 L15.0187479,9.39313304 Z" id="形状" fill="url(#linearGradient-11)"></path>
                <path d="M12.8179265,2.59861518 C12.3404042,1.77149911 12.6252702,0.709900895 13.452989,0.232016967 C14.2806675,-0.245826783 15.3425068,0.0382357168 15.8200292,0.865351788 C16.2975515,1.69246786 16.0126854,2.75414643 15.1850068,3.23199018 C14.3572881,3.70987411 13.2954488,3.42573125 12.8179265,2.59861518 L12.8179265,2.59861518 Z M15.0021542,1.33753036 C14.7847881,0.961057145 14.3015202,0.831802681 13.9248461,1.04928929 C13.5481318,1.2667759 13.4184354,1.7499634 13.6358015,2.12639643 C13.8531274,2.50286965 14.3364756,2.63220447 14.7131497,2.41471786 C15.089864,2.19723125 15.2195202,1.71400357 15.0021542,1.33753036 L15.0021542,1.33753036 Z" id="形状" fill="url(#linearGradient-12)"></path>
                <path d="M8.0175113,4.57552143 C7.58281933,4.57552143 7.22920773,4.92941429 7.22920773,5.3643875 C7.22920773,5.79936072 7.58281933,6.15325357 8.0175113,6.15325357 C8.45220326,6.15325357 8.80589523,5.79936072 8.80589523,5.3643875 C8.80589523,4.92941429 8.45220326,4.57552143 8.0175113,4.57552143 L8.0175113,4.57552143 Z M8.0175113,7.0976509 C7.06242648,7.0976509 6.28549344,6.32015536 6.28549344,5.3643875 C6.28549344,4.40865982 7.06242648,3.63112411 8.0175113,3.63112411 C8.97259612,3.63112411 9.74956933,4.40865982 9.74956933,5.3643875 C9.74956933,6.32015536 8.97259612,7.0976509 8.0175113,7.0976509 Z" id="形状" fill="url(#linearGradient-13)"></path>
            </g>
        </g>
    </g>
</svg>