<?xml version="1.0" encoding="UTF-8"?>
<svg width="30px" height="30px" viewBox="0 0 30 30" version="1.1" xmlns="http://www.w3.org/2000/svg" xmlns:xlink="http://www.w3.org/1999/xlink">
    <title>ic-ada</title>
    <g id="ic-ada" stroke="none" stroke-width="1" fill="none" fill-rule="evenodd">
        <circle id="椭圆形备份" fill="#0033AD" fill-rule="nonzero" cx="15" cy="15" r="15"></circle>
        <g id="Cardano-RGB_Logo-Icon-Blue" transform="translate(5.000000, 6.000000)" fill="#FFFFFF" fill-rule="nonzero">
            <path d="M9.99344751,17.3730204 C10.1405053,17.3813999 10.2781757,17.4479839 10.3760465,17.5580635 C10.4739173,17.668143 10.523934,17.8126592 10.5150476,17.9596872 C10.4965993,18.264921 10.2343832,18.4975162 9.92912832,18.4794186 C9.62387347,18.461321 9.39097722,18.1993723 9.40872405,17.8940968 C9.42647089,17.5888214 9.68815188,17.3556243 9.99344751,17.3730204 Z M4.99095565,17.1741391 C5.13654344,17.0752021 5.3273942,17.0737081 5.47451309,17.1703537 C5.67512984,17.3024947 5.73095454,17.5720755 5.59931312,17.7730205 C5.50267373,17.9201434 5.32692472,17.9945647 5.15401889,17.9615813 C4.98111306,17.9285978 4.84510192,17.7947053 4.80940828,17.6223385 C4.77371463,17.4499718 4.84536786,17.2730761 4.99095565,17.1741391 Z M14.6041153,17.124487 C14.7074421,17.0718738 14.8274925,17.0626691 14.9376324,17.0989152 C15.0477723,17.1351612 15.1388943,17.2138608 15.1907821,17.3175537 C15.2981629,17.5321439 15.2115885,17.7931603 14.9972497,17.901042 C14.7829109,18.0089238 14.521693,17.9229593 14.4133109,17.7088731 C14.3049288,17.4947868 14.3902828,17.2333689 14.6041153,17.124487 Z M6.106868,14.8016592 C6.33196443,14.6485036 6.62715977,14.6460409 6.85478009,14.7954198 C7.16545356,14.9993033 7.25211641,15.4163832 7.04838014,15.7271533 C6.89910921,15.9548444 6.62736769,16.0701826 6.35989105,16.0193762 C6.09241441,15.9685697 5.88188936,15.7616264 5.8265011,15.4950608 C5.77111284,15.2284953 5.88177157,14.9548148 6.106868,14.8016592 Z M13.237715,14.7415531 C13.3973954,14.6603584 13.5828556,14.6461686 13.7530297,14.7021258 C13.9232037,14.758083 14.0640502,14.8795702 14.1443819,15.0396865 C14.3108639,15.3715171 14.177223,15.7754877 13.8456925,15.9425665 C13.5141619,16.1096454 13.1099515,15.9767315 12.9422764,15.6455021 C12.7746014,15.3142727 12.9067878,14.9098238 13.237715,14.7415531 Z M9.99931418,13.8866195 C10.209197,13.8983127 10.4058218,13.9929637 10.5458735,14.1497216 C10.6859253,14.3064795 10.757914,14.5124837 10.745981,14.7223531 C10.7208875,15.1584901 10.3471725,15.4918193 9.91101478,15.467088 C9.47485705,15.4423568 9.14121755,15.0689189 9.16558644,14.6327407 C9.18995534,14.1965626 9.56311597,13.862613 9.99931418,13.8866195 Z M2.23984564,13.105286 C2.37099781,13.0389161 2.52317535,13.0274847 2.66277103,13.0735162 C2.8023667,13.1195478 2.91789623,13.2192554 2.98384582,13.3506194 C3.08480545,13.5507556 3.05524442,13.7920043 2.90895043,13.9618436 C2.76265643,14.1316829 2.52844849,14.1966556 2.31556464,14.1264573 C2.10268079,14.0562591 1.95305783,13.8647185 1.93648212,13.6411731 C1.91990641,13.4176276 2.03964326,13.2061143 2.23984564,13.105286 Z M17.0685551,13.2632686 C17.2361733,13.0072805 17.5795511,12.9356008 17.8355827,13.1031527 C17.9586185,13.1836696 18.0446084,13.3097857 18.0746178,13.4537308 C18.1046272,13.5976759 18.0761953,13.7476464 17.9955828,13.8706195 C17.8278319,14.1265208 17.4844169,14.1980224 17.2284722,14.0303378 C16.9725275,13.8626532 16.9009368,13.5192568 17.0685551,13.2632686 Z M7.78053655,10.8082154 C8.32304674,10.5154036 8.99511514,10.6283702 9.41208046,11.0824583 C9.82904577,11.5365463 9.8844219,12.2157892 9.54651407,12.7314193 C9.29846323,13.1126161 8.87384033,13.3418 8.41904713,13.3399638 C7.80256049,13.3394429 7.26514035,12.9203761 7.11438148,12.3226071 C6.96362262,11.7248381 7.23802637,11.1010272 7.78053655,10.8082154 Z M11.4927172,10.6422771 C12.0362386,10.601994 12.5504878,10.8931593 12.7955815,11.3799523 C12.9583627,11.6984987 12.9869323,12.0689309 12.8749214,12.4086707 C12.7629104,12.7484104 12.5196306,13.0292149 12.1993147,13.188486 C11.712763,13.4340582 11.1261815,13.3622838 10.7131944,13.0066434 C10.3002074,12.6510031 10.1421833,12.0815667 10.3128361,11.5639607 C10.4834888,11.0463548 10.9491957,10.6825601 11.4927172,10.6422771 Z M4.94119332,11.2627128 C5.33159297,11.0661232 5.80744194,11.2232274 6.00404631,11.6136196 C6.20065068,12.0040118 6.04356454,12.4798667 5.6531798,12.6764859 C5.26272975,12.8728085 4.78705001,12.7157602 4.59024621,12.3255525 C4.39367145,11.9351454 4.55079367,11.4593024 4.94119332,11.2627128 Z M14.0506693,11.5143931 C14.2903893,11.1488979 14.781005,11.0469223 15.1465154,11.2866189 C15.3220696,11.4017448 15.4446923,11.5819016 15.4874019,11.7874475 C15.5301114,11.9929935 15.4894083,12.207087 15.3742488,12.3826192 C15.1344823,12.7480838 14.6438536,12.8499969 14.2783737,12.6102537 C13.9128938,12.3705105 13.8109494,11.8798883 14.0506693,11.5143931 Z M6.87465052,7.90138058 C7.60843729,7.9281483 8.18564459,8.53760054 8.17252406,9.27175814 C8.15940352,10.0059158 7.56078806,10.5943542 6.82651342,10.5948854 L6.82651342,10.5948854 L6.74864673,10.5948854 C6.00668286,10.5510673 5.4397364,9.91569627 5.48037976,9.17355173 C5.52078541,8.44038945 6.14086374,7.87461286 6.87465052,7.90138058 Z M13.250515,7.88661808 C13.9783363,7.92763429 14.5413842,8.54034578 14.5208782,9.26903344 C14.5003721,9.99772109 13.9037577,10.5778187 13.1747816,10.5778187 L13.1747816,10.5778187 L13.0974483,10.5778187 C12.6170927,10.550476 12.1878129,10.2689436 11.9713146,9.83927208 C11.7548163,9.40960055 11.7839907,8.89706721 12.047848,8.49473842 C12.3117053,8.09240962 12.7701594,7.86140868 13.250515,7.88875142 L13.250515,7.88875142 Z M2.98277915,8.58688492 C3.35370195,8.60808087 3.63729775,8.9258132 3.61637931,9.29675176 C3.60104913,9.56859578 3.42344725,9.80442666 3.16641271,9.89424556 C2.90937817,9.98406445 2.62354736,9.91017682 2.44224065,9.70704616 C2.26093394,9.50391549 2.21986918,9.21155901 2.33820023,8.96634084 C2.45653129,8.72112267 2.71094667,8.57135137 2.98277915,8.58688492 Z M16.6066215,8.72261325 C16.8097521,8.54130654 17.1021086,8.50024177 17.3473268,8.61857283 C17.592545,8.73690388 17.7423163,8.99131927 17.7267827,9.26315175 C17.7055868,9.63407455 17.3878544,9.91767035 17.0169159,9.8967519 C16.7450719,9.88142172 16.509241,9.70381985 16.4194221,9.4467853 C16.3296032,9.18975076 16.4034908,8.90391996 16.6066215,8.72261325 Z M0.459578543,8.82688498 C0.574925929,8.83321108 0.683010471,8.88519338 0.759963018,8.97135221 C0.836915565,9.05751105 0.876405508,9.17075844 0.869711976,9.28608509 C0.856082464,9.52601139 0.650564829,9.70947927 0.410635223,9.69590801 C0.170705618,9.68233675 -0.0128121537,9.47686367 0.000700851038,9.23693077 C0.0142138558,8.99699788 0.219642376,8.81343023 0.459578543,8.82688498 Z M19.5891832,8.78475163 C19.8291458,8.79850256 20.0126548,9.0039658 19.9993166,9.24395174 C19.9856871,9.48387805 19.7801695,9.66734593 19.5402398,9.65377467 C19.3003102,9.64020341 19.1167925,9.43473032 19.1303055,9.19479743 C19.1438185,8.95486454 19.349247,8.77129688 19.5891832,8.78475163 Z M7.80064698,5.29061746 C8.4648616,4.95585918 9.27468914,5.22293631 9.60944742,5.88715093 C9.81996228,6.30457374 9.79892572,6.80131091 9.55387263,7.19944065 C9.30881953,7.59757039 8.87481599,7.84012198 8.4073138,7.84022982 C7.89840277,7.84234318 7.43222962,7.55594426 7.20411351,7.10101789 L7.20411351,7.10101789 C6.86935523,6.43520327 7.13643236,5.62537573 7.80064698,5.29061746 Z M11.5806479,5.14048406 C12.1962404,5.14138927 12.7326555,5.56008876 12.8830038,6.15703962 C13.033352,6.75399048 12.7592581,7.37682509 12.2175344,7.6692124 C11.6758107,7.96159971 11.0047284,7.84890986 10.5882217,7.39561404 C10.171715,6.94231823 10.1160943,6.26411711 10.453181,5.74901757 C10.7024623,5.36915897 11.1262981,5.14039987 11.5806479,5.14048406 Z M4.62544622,6.09835098 C4.86521271,5.73288635 5.35584141,5.63097324 5.72132133,5.87071645 C6.08680124,6.11045965 6.18874561,6.60108186 5.9490257,6.96657705 C5.70930578,7.33207224 5.21869007,7.43404787 4.85317961,7.19435125 C4.67751148,7.07931997 4.55479491,6.89915612 4.51207653,6.69356763 C4.46935814,6.48797914 4.51014446,6.2738417 4.62544622,6.09835098 Z M14.3465152,5.80448425 C14.7371203,5.60811853 15.2129629,5.76514183 15.4099822,6.15541766 C15.6063966,6.54580106 15.4492427,7.02149647 15.058926,7.21804349 C14.6686094,7.4145905 14.1928606,7.25759818 13.996181,6.8673483 C13.7995015,6.47709841 13.9563322,6.00129636 14.3465152,5.80448425 Z M2.47645337,4.35968502 L2.57075058,4.36928843 C2.79100151,4.41093654 2.96446817,4.58117473 3.01024627,4.80060445 C3.05602438,5.02003417 2.96509636,5.24543119 2.77987074,5.37167107 C2.59464512,5.49791095 2.35160847,5.5001264 2.16411229,5.37728414 C1.90822257,5.20963235 1.83660247,4.86633333 2.00411225,4.61035062 C2.12685045,4.42278631 2.35049965,4.32764032 2.57075058,4.36928843 Z M17.2590099,4.38704326 C17.5319091,4.24945842 17.8646789,4.35879706 18.0027926,4.63142901 C18.1409063,4.90406096 18.032213,5.23704212 17.7598494,5.37568414 C17.628353,5.44246016 17.4756769,5.45411836 17.3355662,5.40808199 C17.1954555,5.36204563 17.0794474,5.26210549 17.0131825,5.13035075 C16.8761271,4.85718529 16.9861107,4.52462811 17.2590099,4.38704326 Z M10.0307663,3.01333103 C10.467008,3.03787633 10.8008341,3.41128468 10.7765477,3.8475408 C10.7522614,4.28379691 10.3790513,4.61784464 9.94278084,4.59381729 C9.73294454,4.58226067 9.53631937,4.48772494 9.39625392,4.33105173 C9.25618847,4.17437852 9.18418369,3.96843246 9.19611399,3.75861709 C9.22091825,3.32239011 9.59452471,2.98878572 10.0307663,3.01333103 Z M6.1561736,2.53769701 C6.4878589,2.37064385 6.89216717,2.50406081 7.05928551,2.83571328 C7.22640385,3.16736575 7.09306635,3.57170023 6.76144673,3.73888375 C6.42961921,3.90584237 6.02526873,3.77241149 5.85797985,3.44075034 C5.69099188,3.10903221 5.82448829,2.70475017 6.1561736,2.53769701 Z M13.5395479,2.45022454 L13.639804,2.46159399 C13.9072806,2.51240042 14.1178057,2.71934379 14.1731939,2.98590933 C14.2285822,3.25247488 14.1179235,3.52615534 13.892827,3.67931096 C13.6677306,3.83246659 13.3725353,3.83492925 13.1449149,3.6855504 C12.9956066,3.58773411 12.8913081,3.43457476 12.8549949,3.25981103 C12.8186816,3.0850473 12.8533327,2.90301635 12.9513149,2.75381684 C13.1005858,2.52612574 13.3723273,2.41078755 13.639804,2.46159399 Z M5.00191202,0.579928117 C5.21625084,0.472046398 5.47746875,0.558010836 5.58585084,0.772097072 C5.69423293,0.986183308 5.60887889,1.2476013 5.3950464,1.35648317 C5.29166877,1.40880254 5.17172512,1.41785067 5.06166849,1.38163203 C4.95161185,1.34541339 4.86048286,1.26690318 4.80837959,1.16341646 C4.70099883,0.948826229 4.78757321,0.687809836 5.00191202,0.579928117 Z M14.3998486,0.707416347 C14.5318148,0.506666549 14.8014879,0.450821936 15.002326,0.582653753 C15.2031641,0.71448557 15.2591892,0.984121245 15.1274918,1.18504752 C14.9957944,1.38597379 14.7261963,1.44217934 14.5251819,1.31061649 C14.428479,1.24732495 14.3609228,1.14816749 14.337411,1.03501067 C14.3138992,0.921853856 14.336363,0.803991968 14.3998486,0.707416347 Z M10.0127713,0.00097654082 C10.3179674,0.0189614688 10.5509359,0.280723835 10.5333938,0.58594564 C10.5158518,0.891167444 10.2544278,1.12451555 9.94918084,1.10741644 C9.80197644,1.0993134 9.66408439,1.03282937 9.56607072,0.922701656 C9.46805705,0.812573939 9.41801866,0.667900155 9.42704738,0.520749636 C9.44547516,0.215580027 9.70757531,-0.0170083871 10.0127713,0.00097654082 Z" id="形状结合"></path>
        </g>
    </g>
</svg>