<?xml version="1.0" encoding="UTF-8"?>
<svg width="30px" height="30px" viewBox="0 0 30 30" version="1.1" xmlns="http://www.w3.org/2000/svg" xmlns:xlink="http://www.w3.org/1999/xlink">
    <title>ic-avatar</title>
    <g id="ic-avatar" stroke="none" stroke-width="1" fill="none" fill-rule="evenodd">
        <path d="M15.0077359,30 C23.2078391,30 30,23.1923672 30,14.9922641 C30,6.79216091 23.1923672,0 14.9922641,0 C6.79216091,0 0,6.79216091 0,14.9922641 C0,23.1923672 6.8076328,30 15.0077359,30 Z M14.9922641,14.5281073 C12.8571429,14.5126354 11.1242909,12.7024239 11.1242909,10.2888087 C11.1242909,8.04538422 12.8571429,6.15781331 14.9922641,6.15781331 C17.1273853,6.15781331 18.8602372,8.04538422 18.8602372,10.2888087 C18.8602372,12.7024239 17.1273853,14.5281073 14.9922641,14.5281073 Z M21.8153687,22.650851 L8.15368747,22.650851 C7.53481176,22.650851 7.2253739,22.2331099 7.2253739,21.6606498 C7.2253739,20.0206292 9.70087674,15.7503868 14.9922641,15.7503868 C20.2836514,15.7503868 22.7436823,20.0206292 22.7436823,21.6606498 C22.7436823,22.2331099 22.4497163,22.650851 21.8153687,22.650851 Z" id="avatar" fill="#626D84"></path>
    </g>
</svg>