<?xml version="1.0" encoding="UTF-8"?>
<svg width="30px" height="30px" viewBox="0 0 30 30" version="1.1" xmlns="http://www.w3.org/2000/svg" xmlns:xlink="http://www.w3.org/1999/xlink">
    <title>ic-bsv</title>
    <g id="ic-bsv" stroke="none" stroke-width="1" fill="none" fill-rule="evenodd">
        <g id="BitcoinSV" transform="translate(-0.000000, 0.000000)" fill-rule="nonzero">
            <path d="M29.9505967,13.7820971 C30.126722,15.9500717 29.8293133,18.1303881 29.079064,20.1719756 C28.3288147,22.2135631 27.1435414,24.0676115 25.6055535,25.6056922 C24.0674728,27.1436801 22.2134245,28.3289533 20.1718369,29.0792027 C18.1302494,29.829452 15.9499331,30.1268606 13.7819585,29.9507353 C6.5114534,29.3772609 0.621741122,23.4847648 0.0491946479,16.2161156 C-0.126795096,14.0482338 0.170687711,11.868103 0.921033528,9.82660829 C1.67136635,7.78520636 2.85662107,5.93128789 4.39465536,4.39342991 C5.93268036,2.85558122 7.78671019,1.67053993 9.82823275,0.920429811 C11.8698203,0.170328973 14.0500438,-0.126903379 16.2178328,0.0493332922 C23.48741,0.622807719 29.3761943,6.51251999 29.9505967,13.7820971 Z" id="路径" fill="#EAB300"></path>
            <path d="M19.3023458,14.463214 C20.1959637,13.8498376 20.8093401,13.1594412 20.8093401,11.8575244 C20.8093401,9.78911902 18.7520702,8.81940903 17.5002627,8.69599139 C17.398188,8.68485597 17.1133067,8.68021621 17.1133067,8.68021621 L17.1133067,6.70182223 L15.0718119,6.70182223 L15.0764517,8.68021621 L13.7123621,8.68021621 L13.7123621,6.70924585 L11.6374611,6.70924585 L11.6374611,8.67093668 C11.2718479,8.67928825 9.07631313,8.67743235 9.07631313,8.67743235 L9.07631313,10.428478 C9.07631313,10.428478 9.63308442,10.428478 9.78990833,10.428478 C10.4775209,10.428478 10.7874569,10.8627597 10.7874569,11.1652721 L10.7874569,11.2747704 L10.7874569,18.825517 C10.7833739,18.949677 10.733914,19.0680837 10.6483569,19.1581879 C10.5628925,19.248292 10.4472696,19.3039691 10.3234808,19.3145478 C10.0116889,19.3284671 9.54771282,19.3145478 9.54771282,19.3145478 L9.14776544,21.2994374 L11.6430288,21.2994374 L11.6430288,23.2991743 L13.7188577,23.2991743 L13.7188577,21.3105729 L15.0829474,21.3105729 L15.0829474,23.3028861 L17.1123787,23.3028861 L17.1123787,21.3179965 C17.1123787,21.3179965 17.223733,21.3179965 17.261779,21.3179965 C19.6094979,21.3179965 21.6565604,19.9260683 21.6871828,17.6776402 C21.7150214,15.8310154 20.1375027,14.7620146 19.3023458,14.463214 Z M13.7179298,13.5695961 L13.7179298,10.5667429 C13.9963154,10.5667429 15.0244864,10.5667429 15.6369348,10.5667429 C15.6953958,10.5667429 15.7417934,10.5769504 15.7974705,10.5797342 C16.6326275,10.6196362 17.1504248,10.9509151 17.4297384,11.3499345 C17.6014095,11.5892534 17.696803,11.8748771 17.7034842,12.1693163 C17.6994012,12.3732802 17.6644174,12.5753881 17.5995536,12.7687734 C17.5419278,12.9371967 17.455257,13.0942062 17.3434388,13.2327494 C17.2542626,13.3492074 17.1468057,13.450447 17.0251512,13.532478 C16.7142872,13.7505467 16.2772218,13.9222179 15.6489982,13.9528403 C15.6406466,13.9528403 13.7485522,13.958408 13.7179298,13.9528403 L13.7179298,13.5695961 Z M18.3140767,18.0237664 C18.2512544,18.2054594 18.1569744,18.3748107 18.0356911,18.5239326 C17.9394625,18.6500413 17.8231901,18.7594468 17.6914209,18.8477879 C17.3555022,19.0844157 16.8831745,19.2700061 16.2066974,19.3024844 C16.1983459,19.3024844 13.751336,19.3080521 13.7188577,19.3071242 L13.7188577,15.6444971 C14.0204422,15.6444971 15.5320762,15.6491368 16.194634,15.6491368 C16.2568068,15.6491368 16.3078442,15.6602723 16.3672331,15.6630561 C17.2692026,15.7066699 17.8306137,16.0648594 18.1303422,16.498213 C18.316211,16.7569261 18.4193993,17.0659342 18.426359,17.3844073 C18.4206984,17.6036824 18.3815389,17.820916 18.3103649,18.0284061 L18.3140767,18.0237664 Z" id="形状" fill="#FFFFFF"></path>
        </g>
    </g>
</svg>