<?xml version="1.0" encoding="UTF-8"?>
<svg width="30px" height="30px" viewBox="0 0 30 30" version="1.1" xmlns="http://www.w3.org/2000/svg" xmlns:xlink="http://www.w3.org/1999/xlink">
    <title>ic-bsc</title>
    <g id="ic-bsc" stroke="none" stroke-width="1" fill="none" fill-rule="evenodd">
        <g id="编组" transform="translate(-0.000200, -0.000200)">
            <path d="M30,15 C30,23.285 23.285,30 15,30 C6.716,30 0,23.285 0,15 C0,6.716 6.716,0 15,0 C23.285,0 30,6.716 30,15" id="Fill-1" fill="#262E37"></path>
            <path d="M16.8453,20.99 L16.8453,23.22 L14.9953,24.29 L13.1553,23.23 L13.1553,21 L14.9953,22.06 L16.8453,20.99 Z M6.9552,13.92 L8.8852,15.04 L8.8852,18.53 L11.9452,20.3 L11.9452,22.53 L6.9552,19.64 L6.9552,13.92 Z M23.0452,13.9203 L23.0452,19.6403 L18.0552,22.5203 L18.0552,20.3003 L21.1152,18.5303 L21.1152,15.0403 L23.0452,13.9203 Z M18.1653,11.1304 L19.9253,12.1504 L19.9253,14.2704 L16.8453,16.0504 L16.8453,19.6204 L14.9953,20.6904 L13.1553,19.6204 L13.1553,16.0504 L10.0753,14.2704 L10.0753,12.1504 L11.8253,11.1404 L11.8353,11.1404 L14.9953,12.9604 L18.1553,11.1304 L18.1653,11.1304 Z M19.9253,15.7203 L19.9253,17.8403 L18.0553,18.9203 L18.0553,16.8003 L19.9253,15.7203 Z M10.0752,15.7203 L11.9452,16.8003 L11.9452,18.9203 L10.0752,17.8403 L10.0752,15.7203 Z M8.7152,9.3402 L10.6452,10.4502 L8.8852,11.4702 L8.8852,13.5802 L6.9552,12.4602 L6.9552,10.3502 L8.7152,9.3402 Z M21.2851,9.3403 L23.0451,10.3503 L23.0451,12.4603 L21.1151,13.5803 L21.1151,11.4703 L19.3451,10.4503 L21.2851,9.3403 Z M14.9952,9.3102 L16.9352,10.4302 L14.9952,11.5502 L13.0552,10.4302 L14.9952,9.3102 Z M14.9951,5.7099 L20.0551,8.6299 L18.1251,9.7399 L14.9951,7.9399 L11.8751,9.7399 L9.9451,8.6299 L14.9951,5.7099 Z" id="形状结合" fill="#E1A900"></path>
        </g>
    </g>
</svg>