<?xml version="1.0" encoding="UTF-8"?>
<svg width="30px" height="30px" viewBox="0 0 30 30" version="1.1" xmlns="http://www.w3.org/2000/svg" xmlns:xlink="http://www.w3.org/1999/xlink">
    <title>ic-bch</title>
    <defs>
        <linearGradient x1="1.11022302e-14%" y1="100%" x2="100%" y2="3.74939946e-31%" id="linearGradient-1">
            <stop stop-color="#43B588" offset="0%"></stop>
            <stop stop-color="#43B5A4" offset="100%"></stop>
        </linearGradient>
    </defs>
    <g id="ic-bch" stroke="none" stroke-width="1" fill="none" fill-rule="evenodd">
        <g id="编组" fill-rule="nonzero">
            <circle id="path-2" fill="url(#linearGradient-1)" cx="15" cy="15" r="15"></circle>
            <path d="M17.0132572,18.6624 C16.6797428,18.8462572 16.0122,19.0098 15.3657428,19.0573714 C14.7187714,19.1049428 13.7519143,19.0846286 13.7519143,19.0846286 L13.7519143,15.9593143 C13.7519143,15.9593143 14.6778857,15.9117428 15.3999428,15.9593143 C16.1214857,16.0071428 16.7273143,16.1907428 16.9996286,16.3270286 C17.2719428,16.4633143 17.7486857,16.7628857 17.7486857,17.478 C17.7486857,18.1926 17.3467714,18.4785428 17.0132572,18.6624 L17.0132572,18.6624 Z M13.7519143,11.6971714 C13.7519143,11.6971714 14.2150286,11.6562857 14.6712,11.6629714 C15.1276286,11.6699143 15.5290286,11.6835428 16.1284286,11.8674 C16.7275714,12.0515143 17.0811428,12.5007428 17.0950286,13.032 C17.1086572,13.563 16.8769714,13.9168286 16.4686286,14.1415714 C16.0600286,14.3663143 15.4953428,14.4889714 14.9640857,14.5090286 C14.4330857,14.5296 13.7519143,14.5090286 13.7519143,14.5090286 L13.7519143,11.6971714 Z M19.7369143,15.3807428 C19.2398572,15.0063428 18.5316857,14.8564286 18.5316857,14.8564286 C18.5316857,14.8564286 19.1308286,14.5090286 19.3758857,14.1618857 C19.6209428,13.8147428 19.7436,13.2768 19.7639143,12.9975428 C19.7842286,12.7182857 19.8320572,11.5472572 18.9197143,10.8732857 C18.2138572,10.3518 17.4051428,10.1448 16.3189714,10.0774286 L16.3189714,7.71428572 L14.862,7.71428572 L14.862,10.0494 L13.7521714,10.0494 L13.7521714,7.71428572 L12.2952,7.71428572 L12.2952,10.0494 L9.42857144,10.0494 L9.42857144,11.5624286 L10.2712286,11.5626857 C10.5008572,11.5626857 10.9094572,11.5881428 11.0830286,11.7822857 C11.2566,11.9764286 11.2872,12.0785143 11.2872,12.4562572 L11.2872,18.4854857 C11.2872,18.6284572 11.2599428,18.8053714 11.1372857,18.9210857 C11.0148857,19.0370572 10.8924857,19.0640572 10.5996,19.0640572 L9.72814284,19.0640572 L9.42857144,20.8139143 L12.2949428,20.8141714 L12.2949428,23.1426 L13.7519143,23.1426 L13.7519143,20.8141714 L14.8617428,20.8141714 L14.8617428,23.1426 L16.3189714,23.1428572 L16.3189714,20.7756 C16.6956857,20.7537428 17.0466857,20.7252 17.2516286,20.6982 C17.6669143,20.6439428 18.6065143,20.5351714 19.4849143,19.9221428 C20.3633143,19.3093714 20.5605428,18.3492 20.5811143,17.3823428 C20.6016857,16.4157428 20.2334572,15.7551428 19.7369143,15.3807428 L19.7369143,15.3807428 Z" id="Fill-1" fill="#FFFFFF"></path>
        </g>
    </g>
</svg>