<?xml version="1.0" encoding="UTF-8"?>
<svg width="30px" height="30px" viewBox="0 0 30 30" version="1.1" xmlns="http://www.w3.org/2000/svg" xmlns:xlink="http://www.w3.org/1999/xlink">
    <title>ic-dash</title>
    <g id="ic-dash" stroke="none" stroke-width="1" fill="none" fill-rule="evenodd">
        <g id="dash" fill-rule="nonzero">
            <circle id="Oval-Copy" fill="#008DE4" cx="15" cy="15" r="15"></circle>
            <path d="M17.4764331,8.51901727 C22.5865332,8.51901727 23.4906278,11.3074613 22.7658781,15.2260237 C22.2794358,17.8572338 21.0633303,19.8742493 19.0192903,20.8176524 C18.0979982,21.2426751 17.2282984,21.4809827 15.1818016,21.4809827 L15.1818016,21.4809827 L9.38134668,21.4809827 L9.86533213,18.7858963 L14.9656051,18.788353 C18.0316651,18.7932666 18.8497725,17.4616924 19.2477707,16.2971792 C19.3976342,15.8598726 19.7415833,14.511101 19.7538671,13.7126478 C19.7759782,12.1575068 19.0119199,11.2190173 16.4273885,11.2190173 L16.4273885,11.2190173 L11.1797088,11.2116469 L11.6612375,8.51901727 L17.4764331,8.51901727 Z M15.1056415,13.6487716 C15.1056415,13.6487716 15.044222,13.9656961 14.8550501,14.7518653 C14.7125569,15.3513193 14.4939035,16.343858 12.9707007,16.343858 L12.9707007,16.343858 L7.01792539,16.343858 C7.01792539,16.343858 7.07934487,16.0269335 7.26851684,15.2407643 C7.41101002,14.6413103 7.62966334,13.6487716 9.15286625,13.6487716 L9.15286625,13.6487716 L15.1056415,13.6487716 Z" id="Combined-Shape" fill="#FFFFFF"></path>
        </g>
    </g>
</svg>