<?xml version="1.0" encoding="UTF-8"?>
<svg width="30px" height="30px" viewBox="0 0 30 30" version="1.1" xmlns="http://www.w3.org/2000/svg" xmlns:xlink="http://www.w3.org/1999/xlink">
    <title>ic-description</title>
    <g id="ic-description" stroke="none" stroke-width="1" fill="none" fill-rule="evenodd">
        <path d="M22.2383292,30 C25.1425061,30 26.6314496,28.5110565 26.6314496,25.5479115 L26.6314496,4.45208845 C26.6314496,1.5036855 25.1425061,0 22.2383292,0 L7.39312039,0 C4.48894349,0 3,1.5036855 3,4.45208845 L3,25.5479115 C3,28.5110565 4.48894349,30 7.39312039,30 L22.2383292,30 Z M18.7444717,14.1081081 C17.034398,14.1081081 15.6633907,12.8255528 15.6633907,10.5995086 C15.6633907,9.43488943 16.046683,8.34398034 16.8280098,7.5036855 C17.5651106,6.70761671 18.7149877,6.13267813 19.6289926,6.13267813 C20.027027,6.13267813 20.2334152,6.35380835 20.2334152,6.63390663 C20.2334152,6.94348894 20.0712531,7.10565111 19.5552826,7.22358722 C18.9361179,7.35626536 18.3906634,7.60687961 17.9484029,8.004914 C17.5061425,8.38820639 17.1965602,8.87469287 17.0786241,9.36117936 L17.3734644,9.36117936 C17.7862408,8.83046683 18.3906634,8.59459459 19.1425061,8.59459459 C20.6019656,8.59459459 21.6044226,9.67076167 21.6044226,11.2923833 C21.6044226,12.958231 20.4250614,14.1081081 18.7444717,14.1081081 Z M11.1523342,14.1228501 C9.42751843,14.1228501 8.05651106,12.8402948 8.05651106,10.6142506 C8.05651106,9.44963145 8.43980344,8.35872236 9.23587224,7.51842752 C10.002457,6.69287469 11.1228501,6.14742015 12.036855,6.14742015 C12.4201474,6.14742015 12.6412776,6.35380835 12.6412776,6.64864865 C12.6412776,6.95823096 12.4643735,7.12039312 11.963145,7.23832924 C11.3587224,7.35626536 10.8280098,7.62162162 10.3857494,7.99017199 C9.91400491,8.38820639 9.58968059,8.87469287 9.48648649,9.36117936 L9.76658477,9.36117936 C10.1941032,8.83046683 10.7985258,8.59459459 11.5356265,8.59459459 C13.009828,8.59459459 14.012285,9.68550369 14.012285,11.3071253 C14.012285,12.972973 12.8329238,14.1228501 11.1523342,14.1228501 Z M20.3660934,18.8697789 L9.29484029,18.8697789 C8.77886978,18.8697789 8.3955774,18.4717445 8.3955774,17.985258 C8.3955774,17.4987715 8.77886978,17.1154791 9.29484029,17.1154791 L20.3660934,17.1154791 C20.8673219,17.1154791 21.2506143,17.4987715 21.2506143,17.985258 C21.2506143,18.4717445 20.8673219,18.8697789 20.3660934,18.8697789 Z M14.8968059,23.6904177 L9.29484029,23.6904177 C8.77886978,23.6904177 8.3955774,23.3071253 8.3955774,22.8206388 C8.3955774,22.3341523 8.77886978,21.9361179 9.29484029,21.9361179 L14.8968059,21.9361179 C15.3832924,21.9361179 15.7665848,22.3341523 15.7665848,22.8206388 C15.7665848,23.3071253 15.3832924,23.6904177 14.8968059,23.6904177 Z" id="description" fill="#626D84"></path>
    </g>
</svg>