<?xml version="1.0" encoding="UTF-8"?>
<svg width="30px" height="30px" viewBox="0 0 30 30" version="1.1" xmlns="http://www.w3.org/2000/svg" xmlns:xlink="http://www.w3.org/1999/xlink">
    <title>ic-dot</title>
    <g id="ic-dot" stroke="none" stroke-width="1" fill="none" fill-rule="evenodd">
        <circle id="椭圆形" fill="#FFFFFF" cx="15" cy="15" r="15"></circle>
        <g id="Polkadot_symbol_black" transform="translate(8.000000, 5.000000)" fill-rule="nonzero">
            <path d="M7.59538529,0 C3.41591402,0 0,3.39582041 0,7.59538529 C0,8.43931699 0.140655283,9.26315508 0.401872238,10.0668996 C0.582714744,10.6094271 1.1855231,10.9108313 1.74814423,10.7299887 C2.29067175,10.5491462 2.59207593,9.94633788 2.41123343,9.38371675 C2.19020369,8.76081478 2.08973564,8.09772559 2.10982925,7.4346364 C2.19020369,4.60143712 4.48087545,2.27057814 7.31407472,2.12992286 C10.4687718,1.96917396 13.0809413,4.48087545 13.0809413,7.59538529 C13.0809413,10.508959 10.7902696,12.9000988 7.91688308,13.0608477 C7.91688308,13.0608477 6.85192165,13.1211286 6.32948774,13.201503 C6.06827079,13.2416902 5.86733467,13.2818775 5.72667939,13.3019711 C5.66639855,13.3220647 5.60611771,13.2617838 5.62621133,13.201503 L5.80705383,12.3173841 L6.79164082,7.7762278 C6.91220249,7.21360666 6.55051747,6.65098553 5.98789634,6.53042386 C5.42527521,6.40986219 4.86265407,6.7715472 4.7420924,7.33416834 C4.7420924,7.33416834 2.3710462,18.3856549 2.35095259,18.5062165 C2.23039092,19.0688377 2.59207593,19.6314588 3.15469706,19.7520205 C3.7173182,19.8725821 4.27993933,19.5108971 4.400501,18.948276 C4.42059461,18.8277143 4.7420924,17.3608807 4.7420924,17.3608807 C4.98321575,16.2356384 5.90752189,15.4118003 6.99257693,15.271145 C7.23370028,15.2309578 8.17810003,15.170677 8.17810003,15.170677 C12.0963544,14.8692728 15.1907706,11.5940141 15.1907706,7.59538529 C15.1907706,3.39582041 11.7748566,0 7.59538529,0 Z" id="路径" fill="#000000"></path>
            <path d="M8.13791281,17.4814423 C7.45473001,17.3407871 6.7715472,17.7627529 6.63089192,18.4660293 C6.49023664,19.1492121 6.91220249,19.8323949 7.6154789,19.9730502 C8.29866171,20.1137055 8.98184451,19.6917396 9.12249979,18.9884632 C9.26315508,18.2851868 8.84118923,17.6220976 8.13791281,17.4814423 Z" id="路径" fill="#E6007A"></path>
        </g>
    </g>
</svg>