<?xml version="1.0" encoding="UTF-8"?>
<svg width="30px" height="30px" viewBox="0 0 30 30" version="1.1" xmlns="http://www.w3.org/2000/svg" xmlns:xlink="http://www.w3.org/1999/xlink">
    <title>ic-fil</title>
    <g id="ic-fil" stroke="none" stroke-width="1" fill="none" fill-rule="evenodd">
        <g id="Filecoin" transform="translate(0.000000, -0.000619)">
            <path d="M15,30.000619 C6.75,30.000619 0,23.250619 0,14.925619 C0.075,6.67561902 6.75,-0.074380982 15.075,0.000619018015 C23.325,0.075619018 30,6.75061902 30,15.150619 C29.925,23.325619 23.25,30.000619 15,30.000619" id="路径" fill="#0090FF"></path>
            <path d="M16.425,13.200619 L15.975,15.600619 L20.25,16.200619 L19.95,17.325619 L15.75,16.725619 C15.45,17.700619 15.3,18.750619 14.925,19.650619 C14.55,20.700619 14.175,21.750619 13.725,22.725619 C13.125,24.000619 12.075,24.900619 10.65,25.125619 C9.825,25.275619 8.925,25.200619 8.25,24.675619 C8.025,24.525619 7.8,24.225619 7.8,24.000619 C7.8,23.700619 7.95,23.325619 8.175,23.175619 C8.325,23.100619 8.7,23.175619 8.925,23.250619 C9.15,23.475619 9.375,23.775619 9.525,24.075619 C9.975,24.675619 10.575,24.750619 11.175,24.300619 C11.85,23.700619 12.225,22.875619 12.45,22.050619 C12.9,20.250619 13.35,18.525619 13.725,16.725619 L13.725,16.425619 L9.75,15.825619 L9.9,14.700619 L14.025,15.300619 L14.55,12.975619 L10.275,12.300619 L10.425,11.100619 L14.85,11.700619 C15,11.250619 15.075,10.875619 15.225,10.500619 C15.6,9.15061902 15.975,7.80061902 16.875,6.60061902 C17.775,5.40061902 18.825,4.65061902 20.4,4.72561902 C21.075,4.72561902 21.75,4.95061902 22.2,5.47561902 C22.275,5.55061902 22.425,5.70061902 22.425,5.85061902 C22.425,6.15061902 22.425,6.52561902 22.2,6.75061902 C21.9,6.97561902 21.525,6.90061902 21.225,6.60061902 C21,6.37561902 20.85,6.15061902 20.625,5.92561902 C20.175,5.32561902 19.5,5.25061902 18.975,5.77561902 C18.6,6.15061902 18.225,6.67561902 18,7.20061902 C17.475,8.77561902 17.1,10.425619 16.575,12.075619 L20.7,12.675619 L20.4,13.800619 L16.425,13.200619" id="路径" fill="#FFFFFF"></path>
        </g>
    </g>
</svg>