<?xml version="1.0" encoding="UTF-8"?>
<svg width="30px" height="30px" viewBox="0 0 30 30" version="1.1" xmlns="http://www.w3.org/2000/svg" xmlns:xlink="http://www.w3.org/1999/xlink">
    <title>ic-flow</title>
    <g id="ic-flow" stroke="none" stroke-width="1" fill="none" fill-rule="evenodd">
        <g id="福洛：开放世界的区块链" fill-rule="nonzero">
            <circle id="椭圆形" fill="#00EF8B" cx="15" cy="15" r="15"></circle>
            <rect id="矩形" fill="#FFFFFF" x="17.346" y="12.654" width="4.236" height="4.236"></rect>
            <path d="M13.113,18.477 C13.113,19.3551328 12.4011328,20.067 11.523,20.067 C10.6448672,20.067 9.933,19.3551328 9.933,18.477 C9.933,17.5988672 10.6448672,16.887 11.523,16.887 L13.113,16.887 L13.113,12.654 L11.523,12.654 C8.3070459,12.654 5.7,15.2610459 5.7,18.477 C5.7,21.6929541 8.3070459,24.3 11.523,24.3 C14.7389541,24.3 17.346,21.6929541 17.346,18.477 L17.346,16.887 L13.113,16.887 L13.113,18.477 Z" id="路径" fill="#FFFFFF"></path>
            <path d="M18.936,10.536 L23.7,10.536 L23.7,6.3 L18.936,6.3 C15.7214168,6.30330719 13.1163072,8.90841678 13.113,12.123 L13.113,12.654 L17.346,12.654 L17.346,12.123 C17.3476546,11.246039 18.0590375,10.5359984 18.936,10.536 Z" id="路径" fill="#FFFFFF"></path>
            <polygon id="路径" fill="#16FF99" points="13.113 16.887 17.346 16.887 17.346 16.887 17.346 12.654 17.346 12.654 13.113 12.654"></polygon>
        </g>
    </g>
</svg>