<?xml version="1.0" encoding="UTF-8"?>
<svg width="30px" height="30px" viewBox="0 0 30 30" version="1.1" xmlns="http://www.w3.org/2000/svg" xmlns:xlink="http://www.w3.org/1999/xlink">
    <title>ic-heco</title>
    <g id="ic-heco" stroke="none" stroke-width="1" fill="none" fill-rule="evenodd">
        <path d="M30,15 C30,23.285 23.285,30 15,30 C6.716,30 0,23.285 0,15 C0,6.716 6.716,0 15,0 C23.285,0 30,6.716 30,15" id="Fill-1" fill="#3E8445"></path>
        <g id="编组" transform="translate(8.000000, 7.000000)" fill="#FFFFFF">
            <path d="M6.75960186,3.43804209 C6.84387021,3.43804209 6.92707187,3.44017547 7.01134023,3.44337553 L9.58952512,3.44337553 L9.58952512,5.45888251 C9.58952512,6.57037141 8.68870711,7.47118942 7.57775156,7.47118942 L6.92173843,7.47118942 C5.32170643,7.47118942 4.02301379,8.76614866 4.01981373,10.3677807 L4.01981373,15.9998933 L0.785615712,15.9998933 C0.353607072,15.9998933 0.004266752,15.650553 0.004266752,15.2196111 L0.004266752,10.448849 C0.001066688,10.3656473 4.4408921e-15,10.2824456 4.4408921e-15,10.1987106 C4.4408921e-15,6.46583598 3.02619386,3.43804209 6.75960186,3.43804209 Z M14.6427462,9.72307446 L14.6427462,16 L11.4117482,16 C10.9824063,16 10.6319993,15.6506597 10.6319993,15.218651 L10.6319993,13.1151423 C12.3280332,12.4793963 13.7429949,11.2697721 14.6427462,9.72307446 Z M13.8626239,0.0001066688 C14.2940992,0.0001066688 14.6434395,0.349446989 14.6434395,0.780388941 L14.6434395,5.55115102 C14.6471729,5.63435269 14.6477063,5.71755435 14.6477063,5.80235605 C14.6477063,9.5352307 11.6215124,12.5624912 7.88810443,12.5624912 C7.80383608,12.5624912 7.72063441,12.5608912 7.63636606,12.5576912 L5.05818116,12.5576912 L5.05818116,10.5411175 C5.05818116,9.42962859 5.95899918,8.52881058 7.06995473,8.52881058 L7.72596785,8.52881058 C9.32599985,8.52881058 10.6246925,7.23385134 10.6278926,5.63221931 L10.6278926,0.0001066688 L13.8626239,0.0001066688 Z M3.23515804,-4.6629367e-14 C3.66556664,-4.6629367e-14 4.01490696,0.34934032 4.01490696,0.78134896 L4.01490696,2.8848577 C2.31993973,3.5200704 0.904444756,4.72969459 0.0041600832,6.27585885 L0.0041600832,-4.6629367e-14 L3.23515804,-4.6629367e-14 Z" id="形状结合"></path>
        </g>
    </g>
</svg>