<?xml version="1.0" encoding="UTF-8"?>
<svg width="30px" height="30px" viewBox="0 0 30 30" version="1.1" xmlns="http://www.w3.org/2000/svg" xmlns:xlink="http://www.w3.org/1999/xlink">
    <title>ic-ipns</title>
    <g id="ic-ipns" stroke="none" stroke-width="1" fill="none" fill-rule="evenodd">
        <g id="编组" transform="translate(2.000000, 0.000000)">
            <polygon id="Fill-1" fill="#4A9EA1" points="12.992 0 0.772 7.056 0 7.5 0 22.5 12.077 29.471 12.992 30 13.906 29.471 25.983 22.5 25.983 7.5 25.21 7.056"></polygon>
            <path d="M25.1625,20.5137 C24.3455,20.8387 23.7675,21.6377 23.7675,22.5697 C23.7675,22.6557 23.7725,22.7407 23.7835,22.8227 L14.2925,28.3017 C14.2165,28.1677 14.0705,28.0767 13.9065,28.0767 L13.9065,17.0887 C14.6735,16.7407 15.2055,15.9697 15.2055,15.0737 C15.2055,14.9427 15.1945,14.8137 15.1715,14.6867 L24.6235,9.2297 C24.7295,9.4157 24.9305,9.5407 25.1605,9.5407 L25.1625,9.5407 L25.1625,20.5137 Z M12.9915,12.8597 C12.4795,12.8597 12.0095,13.0327 11.6325,13.3267 L2.1275,7.8397 C2.1805,7.7487 2.2105,7.6427 2.2105,7.5297 C2.2105,7.4147 2.1805,7.3097 2.1275,7.2187 L11.7345,1.6727 C12.0915,1.9197 12.5245,2.0637 12.9915,2.0637 C13.4585,2.0637 13.8915,1.9197 14.2485,1.6727 L23.8545,7.2187 C23.8025,7.3097 23.7725,7.4147 23.7725,7.5297 C23.7725,7.6427 23.8025,7.7487 23.8545,7.8397 L14.3495,13.3267 C13.9735,13.0327 13.5025,12.8597 12.9915,12.8597 L12.9915,12.8597 Z M12.0765,28.0767 C11.9125,28.0767 11.7665,28.1677 11.6895,28.3017 L2.1995,22.8227 C2.2105,22.7407 2.2145,22.6557 2.2145,22.5697 C2.2145,21.6377 1.6375,20.8387 0.8225,20.5137 L0.8225,9.5407 C1.0505,9.5407 1.2515,9.4157 1.3585,9.2317 L10.8105,14.6867 C10.7875,14.8137 10.7775,14.9427 10.7775,15.0737 C10.7775,15.9697 11.3095,16.7407 12.0765,17.0887 L12.0765,28.0767 Z" id="Fill-2" fill="#63D3D7"></path>
        </g>
    </g>
</svg>