<?xml version="1.0" encoding="UTF-8"?>
<svg width="30px" height="30px" viewBox="0 0 30 30" version="1.1" xmlns="http://www.w3.org/2000/svg" xmlns:xlink="http://www.w3.org/1999/xlink">
    <title>ic-ipfs</title>
    <g id="ic-ipfs" stroke="none" stroke-width="1" fill="none" fill-rule="evenodd">
        <g id="编组" transform="translate(2.000000, 0.000000)">
            <polygon id="Fill-1" fill="#196F70" points="12.992 0 0.772 7.056 0 7.5 0 22.5 12.077 29.471 12.992 30 13.906 29.471 25.983 22.5 25.983 7.5 25.21 7.056"></polygon>
            <path d="M25.1625,20.5137 C24.3455,20.8387 23.7675,21.6377 23.7675,22.5697 C23.7675,22.6557 23.7725,22.7407 23.7835,22.8227 L14.2925,28.3017 C14.2165,28.1677 14.0705,28.0767 13.9065,28.0767 L13.9065,17.0887 C14.6735,16.7407 15.2055,15.9697 15.2055,15.0737 C15.2055,14.9427 15.1945,14.8137 15.1715,14.6867 L24.6235,9.2297 C24.7295,9.4157 24.9305,9.5407 25.1605,9.5407 L25.1625,9.5407 L25.1625,20.5137 Z M12.9915,12.8597 C12.4795,12.8597 12.0095,13.0327 11.6325,13.3267 L2.1275,7.8397 C2.1805,7.7487 2.2105,7.6427 2.2105,7.5297 C2.2105,7.4147 2.1805,7.3097 2.1275,7.2187 L11.7345,1.6727 C12.0915,1.9197 12.5245,2.0637 12.9915,2.0637 C13.4585,2.0637 13.8915,1.9197 14.2485,1.6727 L23.8545,7.2187 C23.8025,7.3097 23.7725,7.4147 23.7725,7.5297 C23.7725,7.6427 23.8025,7.7487 23.8545,7.8397 L14.3495,13.3267 C13.9735,13.0327 13.5025,12.8597 12.9915,12.8597 L12.9915,12.8597 Z M12.0765,28.0767 C11.9125,28.0767 11.7665,28.1677 11.6895,28.3017 L2.1995,22.8227 C2.2105,22.7407 2.2145,22.6557 2.2145,22.5697 C2.2145,21.6377 1.6375,20.8387 0.8225,20.5137 L0.8225,9.5407 C1.0505,9.5407 1.2515,9.4157 1.3585,9.2317 L10.8105,14.6867 C10.7875,14.8137 10.7775,14.9427 10.7775,15.0737 C10.7775,15.9697 11.3095,16.7407 12.0765,17.0887 L12.0765,28.0767 Z" id="Fill-2" fill="#1E9495"></path>
        </g>
        <path d="M6.95954219,19.5 L6.95954219,11.1363636 L5.44444986,11.1363636 L5.44444986,19.5 L6.95954219,19.5 Z M9.37204977,19.5 L9.372,16.675 L10.972902,16.6740057 C11.5374883,16.6740057 12.023908,16.5828113 12.4321611,16.4004225 L12.602341,16.3166726 C13.0433921,16.0784505 13.376903,15.7510653 13.6028736,15.334517 C13.8288443,14.9179688 13.9418296,14.4415246 13.9418296,13.9051847 C13.9418296,13.3742898 13.8295249,12.8998875 13.6049155,12.481978 C13.3803062,12.0640684 13.0495178,11.735322 12.6125505,11.4957386 C12.1755831,11.2561553 11.63584,11.1363636 10.9933211,11.1363636 L10.9933211,11.1363636 L7.85695744,11.1363636 L7.85695744,19.5 L9.37204977,19.5 Z M9.37204977,12.4023438 L10.7605441,12.4023438 C11.1389768,12.4023438 11.4486655,12.4656428 11.6896101,12.5922408 C11.9305547,12.7188388 12.108881,12.8951231 12.2245888,13.1210938 C12.3402967,13.3470644 12.3981506,13.608428 12.3981506,13.9051847 C12.3981506,14.2019413 12.3402967,14.4646662 12.2245888,14.6933594 C12.108881,14.9220526 11.9312354,15.1017401 11.691652,15.2324219 C11.4520687,15.3631037 11.1444219,15.4284446 10.7687117,15.4284446 L10.7687117,15.4284446 L9.372,15.429 L9.37204977,12.4023438 Z M16.0219137,19.5 L16.0219137,15.9470881 L19.4972333,15.9470881 L19.4972333,14.6770241 L16.0219137,14.6770241 L16.0219137,12.4064276 L19.8647759,12.4064276 L19.8647759,11.1363636 L14.5068214,11.1363636 L14.5068214,19.5 L16.0219137,19.5 Z M23.434626,19.626598 C24.1043703,19.626598 24.6754226,19.5224609 25.1477829,19.3141868 C25.6201433,19.1059126 25.9815602,18.8159624 26.2320336,18.4443359 C26.4825071,18.0727095 26.6077439,17.6418679 26.6077439,17.1518111 C26.6077439,16.7897135 26.5396804,16.4738991 26.4035535,16.2043679 C26.2674266,15.9348366 26.0829747,15.7047822 25.8501977,15.5142045 C25.6174207,15.3236269 25.3546958,15.1657197 25.062023,15.040483 C24.7693502,14.9152462 24.4651066,14.8158736 24.1492922,14.7423651 L24.1492922,14.7423651 L23.3652013,14.5463423 C23.1936814,14.5055043 23.0235228,14.4551373 22.8547254,14.3952415 C22.6859281,14.3353456 22.5321047,14.2611565 22.3932552,14.172674 C22.2544058,14.0841915 22.1448237,13.9759706 22.0645088,13.8480114 C21.9841939,13.7200521 21.9440365,13.5689512 21.9440365,13.3947088 C21.946759,13.1850734 22.0080161,12.9985795 22.1278078,12.8352273 C22.2475995,12.671875 22.4204806,12.5425545 22.6464513,12.4472656 C22.8724219,12.3519768 23.1433144,12.3043324 23.4591288,12.3043324 C23.9083476,12.3043324 24.2738483,12.403705 24.5556309,12.6024503 C24.8374136,12.8011955 24.9973627,13.0788944 25.0354782,13.4355469 L25.0354782,13.4355469 L26.4933973,13.4355469 C26.4852297,12.9645478 26.3531866,12.5473189 26.097268,12.1838601 C25.8413495,11.8204013 25.4894614,11.5358961 25.041604,11.3303445 C24.5937465,11.1247929 24.0730611,11.022017 23.4795478,11.022017 C22.8942022,11.022017 22.3701137,11.1247929 21.9072822,11.3303445 C21.4444508,11.5358961 21.0789501,11.8238045 20.8107801,12.1940696 C20.5426101,12.5643348 20.4085251,12.995857 20.4085251,13.4886364 C20.4085251,14.0875947 20.607951,14.567442 21.0068028,14.9281783 C21.4056546,15.2889145 21.9494816,15.5577652 22.6382836,15.7347301 L22.6382836,15.7347301 L23.5898106,15.9797585 C23.8892898,16.0559896 24.1513341,16.1424302 24.3759434,16.2390803 C24.6005528,16.3357304 24.7754759,16.455522 24.9007126,16.5984553 C25.0259494,16.7413885 25.089929,16.9217566 25.0926515,17.1395597 C25.089929,17.379143 25.0177817,17.5880978 24.8762098,17.766424 C24.7346378,17.9447502 24.5392957,18.0835997 24.2901835,18.1829723 C24.0410713,18.2823449 23.7518016,18.3320312 23.4223746,18.3320312 C23.1065602,18.3320312 22.8213743,18.2843868 22.566817,18.189098 C22.3122597,18.0938092 22.1060275,17.9495147 21.9481203,17.7562145 C21.7902131,17.5629143 21.7003693,17.3206084 21.678589,17.0292969 L21.678589,17.0292969 L20.1879996,17.0292969 C20.2097799,17.5846946 20.354755,18.0556937 20.622925,18.442294 C20.891095,18.8288944 21.2640826,19.1229285 21.741888,19.3243963 C22.2196934,19.5258641 22.7839394,19.626598 23.434626,19.626598 Z" id="IPFS" fill="#FFFFFF" fill-rule="nonzero"></path>
    </g>
</svg>