<?xml version="1.0" encoding="UTF-8"?>
<svg width="30px" height="30px" viewBox="0 0 30 30" version="1.1" xmlns="http://www.w3.org/2000/svg" xmlns:xlink="http://www.w3.org/1999/xlink">
    <title>ic-iota</title>
    <g id="ic-iota" stroke="none" stroke-width="1" fill="none" fill-rule="evenodd">
        <circle id="path-2" fill="#000000" fill-rule="nonzero" cx="15" cy="15" r="15"></circle>
        <g id="IOTA" transform="translate(4.500000, 5.400000)" fill="#FFFFFF" fill-rule="nonzero">
            <path d="M11.4401031,17.2377067 C11.9742181,17.2377067 12.4071648,17.669488 12.4071648,18.2021601 C12.4071648,18.7348322 11.9742181,19.1666667 11.4401031,19.1666667 C10.9059881,19.1666667 10.4729881,18.7348322 10.4729881,18.2021601 C10.4729881,17.669488 10.9059881,17.2377067 11.4401031,17.2377067 Z M7.65406856,17.196605 C8.10863338,17.196605 8.47715195,17.5641248 8.47715195,18.0174685 C8.47715195,18.4707589 8.10863338,18.8382787 7.65406856,18.8382787 C7.19950374,18.8382787 6.83103841,18.4707589 6.83103841,18.0174685 C6.83103841,17.5641248 7.19950374,17.196605 7.65406856,17.196605 Z M15.8433703,16.2321517 C16.4797717,16.2321517 16.9956764,16.7466155 16.9956764,17.3812966 C16.9956764,18.0159777 16.4797717,18.5304948 15.8433703,18.5304948 C15.2070221,18.5304948 14.6911174,18.0159777 14.6911174,17.3812966 C14.6911174,16.7466155 15.2070221,16.2321517 15.8433703,16.2321517 Z M9.3622142,15.8008496 C9.81677902,15.8008496 10.1852976,16.1683694 10.1852976,16.6217131 C10.1852976,17.0750035 9.81677902,17.4425233 9.3622142,17.4425233 C8.90770263,17.4425233 8.53918405,17.0750035 8.53918405,16.6217131 C8.53918405,16.1683694 8.90770263,15.8008496 9.3622142,15.8008496 Z M13.0249832,15.1855481 C13.5590982,15.1855481 13.9920982,15.6173293 13.9920982,16.1500014 C13.9920982,16.6826736 13.5590982,17.114508 13.0249832,17.114508 C12.4909215,17.114508 12.0579215,16.6826736 12.0579215,16.1500014 C12.0579215,15.6173293 12.4909215,15.1855481 13.0249832,15.1855481 Z M6.23462509,15.5957669 C6.63232272,15.5957669 6.95478313,15.9172868 6.95478313,16.3139825 C6.95478313,16.7106249 6.63232272,17.0321981 6.23462509,17.0321981 C5.83687422,17.0321981 5.51441381,16.7106249 5.51441381,16.3139825 C5.51441381,15.9172868 5.83687422,15.5957669 6.23462509,15.5957669 Z M7.94223827,14.2005439 C8.33998914,14.2005439 8.6623963,14.5220638 8.6623963,14.9187595 C8.6623963,15.3154019 8.33998914,15.6369751 7.94223827,15.6369751 C7.5444874,15.6369751 7.22208023,15.3154019 7.22208023,14.9187595 C7.22208023,14.5220638 7.5444874,14.2005439 7.94223827,14.2005439 Z M10.966902,13.7489572 C11.4214668,13.7489572 11.7899322,14.116477 11.7899322,14.5698206 C11.7899322,15.0231643 11.4214668,15.3906309 10.966902,15.3906309 C10.5123372,15.3906309 10.1438719,15.0231643 10.1438719,14.5698206 C10.1438719,14.116477 10.5123372,13.7489572 10.966902,13.7489572 Z M5.3704887,14.0365096 C5.71137237,14.0365096 5.98777462,14.3121362 5.98777462,14.6521306 C5.98777462,14.992125 5.71137237,15.2677516 5.3704887,15.2677516 C5.02955177,15.2677516 4.75320277,14.992125 4.75320277,14.6521306 C4.75320277,14.3121362 5.02955177,14.0365096 5.3704887,14.0365096 Z M13.9918852,13.4003378 C14.196458,13.4003378 14.3622674,13.5657563 14.3622674,13.769721 C14.3622674,13.973739 14.196458,14.1391042 13.9918852,14.1391042 C13.7873657,14.1391042 13.621503,13.973739 13.621503,13.769721 C13.621503,13.5657563 13.7873657,13.4003378 13.9918852,13.4003378 Z M7.07810187,12.6407542 C7.4190388,12.6407542 7.69538779,12.9163808 7.69538779,13.2563752 C7.69538779,13.5963696 7.4190388,13.8719962 7.07810187,13.8719962 C6.73716495,13.8719962 6.46081595,13.5963696 6.46081595,13.2563752 C6.46081595,12.9163808 6.73716495,12.6407542 7.07810187,12.6407542 Z M15.0824255,12.9488043 C15.3324707,12.9488043 15.5351267,13.1509056 15.5351267,13.4002845 C15.5351267,13.6496102 15.3324707,13.8517115 15.0824255,13.8517115 C14.8324335,13.8517115 14.6297775,13.6496102 14.6297775,13.4002845 C14.6297775,13.1509056 14.8324335,12.9488043 15.0824255,12.9488043 Z M4.97896766,12.5793678 C5.26309064,12.5793678 5.49338147,12.809101 5.49338147,13.0923942 C5.49338147,13.3757406 5.26309064,13.6054205 4.97896766,13.6054205 C4.69489793,13.6054205 4.46460709,13.3757406 4.46460709,13.0923942 C4.46460709,12.809101 4.69489793,12.5793678 4.97896766,12.5793678 Z M9.52717166,12.1688829 C9.92486928,12.1688829 10.2473297,12.490456 10.2473297,12.8871517 C10.2473297,13.2837941 9.92486928,13.6053673 9.52717166,13.6053673 C9.12942079,13.6053673 8.80696037,13.2837941 8.80696037,12.8871517 C8.80696037,12.490456 9.12942079,12.1688829 9.52717166,12.1688829 Z M16.2548587,12.1891675 C16.5389817,12.1891675 16.7692725,12.4188474 16.7692725,12.7021939 C16.7692725,12.9855403 16.5389817,13.2152202 16.2548587,13.2152202 C15.970789,13.2152202 15.7404449,12.9855403 15.7404449,12.7021939 C15.7404449,12.4188474 15.970789,12.1891675 16.2548587,12.1891675 Z M13.0243443,12.1688829 C13.2743363,12.1688829 13.4770455,12.3710374 13.4770455,12.6203631 C13.4770455,12.8696888 13.2743363,13.0718433 13.0243443,13.0718433 C12.7743523,13.0718433 12.5716963,12.8696888 12.5716963,12.6203631 C12.5716963,12.3710374 12.7743523,12.1688829 13.0243443,12.1688829 Z M14.19731,11.4098317 C14.4813797,11.4098317 14.7116706,11.6395116 14.7116706,11.9228581 C14.7116706,12.2061513 14.4813797,12.4358844 14.19731,12.4358844 C13.913187,12.4358844 13.6828962,12.2061513 13.6828962,11.9228581 C13.6828962,11.6395116 13.913187,11.4098317 14.19731,11.4098317 Z M17.4075908,10.9787959 C17.7485277,10.9787959 18.0248767,11.2544224 18.0248767,11.5944169 C18.0248767,11.9344113 17.7485277,12.2100378 17.4075908,12.2100378 C17.0666539,12.2100378 16.7903049,11.9344113 16.7903049,11.5944169 C16.7903049,11.2544224 17.0666539,10.9787959 17.4075908,10.9787959 Z M6.70793265,11.1836657 C6.99205563,11.1836657 7.22234646,11.4133456 7.22234646,11.696692 C7.22234646,11.9799852 6.99205563,12.2096652 6.70793265,12.2096652 C6.42386292,12.2096652 6.19351884,11.9799852 6.19351884,11.696692 C6.19351884,11.4133456 6.42386292,11.1836657 6.70793265,11.1836657 Z M4.95884051,11.2863136 C5.20888577,11.2863136 5.4115417,11.4884681 5.4115417,11.7377938 C5.4115417,11.9871195 5.20888577,12.189274 4.95884051,12.189274 C4.70884849,12.189274 4.50619256,11.9871195 4.50619256,11.7377938 C4.50619256,11.4884681 4.70884849,11.2863136 4.95884051,11.2863136 Z M11.6254539,11.0609461 C11.9095237,11.0609461 12.1398145,11.290626 12.1398145,11.5739725 C12.1398145,11.8573189 11.9095237,12.0869988 11.6254539,12.0869988 C11.3413309,12.0869988 11.1110401,11.8573189 11.1110401,11.5739725 C11.1110401,11.290626 11.3413309,11.0609461 11.6254539,11.0609461 Z M8.68326891,10.5888618 C9.02420583,10.5888618 9.30055483,10.8644883 9.30055483,11.2044828 C9.30055483,11.5444772 9.02420583,11.8201037 8.68326891,11.8201037 C8.34238523,11.8201037 8.06598298,11.5444772 8.06598298,11.2044828 C8.06598298,10.8644883 8.34238523,10.5888618 8.68326891,10.5888618 Z M1.15226883,9.23442111 C1.7886436,9.23442111 2.30453234,9.7489382 2.30453234,10.3836193 C2.30453234,11.0183004 1.7886436,11.5327643 1.15226883,11.5327643 C0.515888736,11.5327643 1.47955722e-13,11.0183004 1.47955722e-13,10.3836193 C1.47955722e-13,9.7489382 0.515888736,9.23442111 1.15226883,9.23442111 Z M15.3292227,10.1988744 C15.6701064,10.1988744 15.9465086,10.474501 15.9465086,10.8145487 C15.9465086,11.1545431 15.6701064,11.4301696 15.3292227,11.4301696 C14.9882858,11.4301696 14.7119368,11.1545431 14.7119368,10.8145487 C14.7119368,10.474501 14.9882858,10.1988744 15.3292227,10.1988744 Z M12.7776535,9.82922501 C13.1185905,9.82922501 13.3949395,10.1048516 13.3949395,10.444846 C13.3949395,10.7848404 13.1185905,11.060467 12.7776535,11.060467 C12.4367166,11.060467 12.1603676,10.7848404 12.1603676,10.444846 C12.1603676,10.1048516 12.4367166,9.82922501 12.7776535,9.82922501 Z M5.18492487,10.2399762 C5.38944443,10.2399762 5.55525383,10.4053415 5.55525383,10.6093594 C5.55525383,10.8133774 5.38944443,10.9787427 5.18492487,10.9787427 C4.98035207,10.9787427 4.81454267,10.8133774 4.81454267,10.6093594 C4.81454267,10.4053415 4.98035207,10.2399762 5.18492487,10.2399762 Z M6.66650693,9.89109058 C6.91649894,9.89109058 7.11915487,10.0932451 7.11915487,10.3425708 C7.11915487,10.5918965 6.91649894,10.7939978 6.66650693,10.7939978 C6.41646167,10.7939978 6.21380574,10.5918965 6.21380574,10.3425708 C6.21380574,10.0932451 6.41646167,9.89109058 6.66650693,9.89109058 Z M18.4360457,9.29602047 C18.8337966,9.29602047 19.1562037,9.61759365 19.1562037,10.0142893 C19.1562037,10.4109317 18.8337966,10.7325049 18.4360457,10.7325049 C18.0382948,10.7325049 17.7158877,10.4109317 17.7158877,10.0142893 C17.7158877,9.61759365 18.0382948,9.29602047 18.4360457,9.29602047 Z M8.29180111,9.15253708 C8.57592409,9.15253708 8.80621492,9.38221699 8.80621492,9.66556343 C8.80621492,9.94890986 8.57592409,10.1785898 8.29180111,10.1785898 C8.00773138,10.1785898 7.7773873,9.94890986 7.7773873,9.66556343 C7.7773873,9.38221699 8.00773138,9.15253708 8.29180111,9.15253708 Z M16.3582101,8.4956014 C16.7559077,8.4956014 17.0783681,8.81717458 17.0783681,9.21387024 C17.0783681,9.61051266 16.7559077,9.93208584 16.3582101,9.93208584 C15.9604592,9.93208584 15.6379988,9.61051266 15.6379988,9.21387024 C15.6379988,8.81717458 15.9604592,8.4956014 16.3582101,8.4956014 Z M13.7858215,8.14676904 C14.1835724,8.14676904 14.5059796,8.46828898 14.5059796,8.86498463 C14.5059796,9.26162705 14.1835724,9.58320023 13.7858215,9.58320023 C13.3880707,9.58320023 13.0656635,9.26162705 13.0656635,8.86498463 C13.0656635,8.46828898 13.3880707,8.14676904 13.7858215,8.14676904 Z M3.62160953,7.63384917 C4.15572452,7.63384917 4.58867129,8.06563037 4.58867129,8.5983025 C4.58867129,9.13097464 4.15572452,9.56280908 3.62160953,9.56280908 C3.08749454,9.56280908 2.65452115,9.13097464 2.65452115,8.5983025 C2.65452115,8.06563037 3.08749454,7.63384917 3.62160953,7.63384917 Z M19.1769699,7.12092929 C19.6314814,7.12092929 20,7.48844911 20,7.94173951 C20,8.39508316 19.6314814,8.76260297 19.1769699,8.76260297 C18.722405,8.76260297 18.3538865,8.39508316 18.3538865,7.94173951 C18.3538865,7.48844911 18.722405,7.12092929 19.1769699,7.12092929 Z M6.00832774,6.75154606 C6.46289256,6.75154606 6.83135789,7.11901263 6.83135789,7.57235628 C6.83135789,8.02569993 6.46289256,8.3931665 6.00832774,8.3931665 C5.55376293,8.3931665 5.18529759,8.02569993 5.18529759,7.57235628 C5.18529759,7.11901263 5.55376293,6.75154606 6.00832774,6.75154606 Z M11.6046346,7.20254712 C11.8887575,7.20254712 12.1190484,7.43222704 12.1190484,7.71557348 C12.1190484,7.99891991 11.8887575,8.22859983 11.6046346,8.22859983 C11.3205648,8.22859983 11.0902208,7.99891991 11.0902208,7.71557348 C11.0902208,7.43222704 11.3205648,7.20254712 11.6046346,7.20254712 Z M17.1193679,6.32051022 C17.5739327,6.32051022 17.942398,6.68797679 17.942398,7.14132044 C17.942398,7.59466409 17.5739327,7.9621839 17.1193679,7.9621839 C16.664803,7.9621839 16.2963377,7.59466409 16.2963377,7.14132044 C16.2963377,6.68797679 16.664803,6.32051022 17.1193679,6.32051022 Z M8.18924848,6.46399362 C8.5869461,6.46399362 8.90940652,6.7855668 8.90940652,7.18220922 C8.90940652,7.57890487 8.5869461,7.90047805 8.18924848,7.90047805 C7.79149761,7.90047805 7.4690372,7.57890487 7.4690372,7.18220922 C7.4690372,6.7855668 7.79149761,6.46399362 8.18924848,6.46399362 Z M10.0617659,6.66939583 C10.4027028,6.66939583 10.6790518,6.94502237 10.6790518,7.2850168 C10.6790518,7.62501123 10.4027028,7.90063778 10.0617659,7.90063778 C9.72082894,7.90063778 9.44447994,7.62501123 9.44447994,7.2850168 C9.44447994,6.94502237 9.72082894,6.66939583 10.0617659,6.66939583 Z M14.5475118,5.97162462 C15.0020766,5.97162462 15.3705952,6.33914443 15.3705952,6.79248808 C15.3705952,7.24577848 15.0020766,7.6132983 14.5475118,7.6132983 C14.092947,7.6132983 13.7244816,7.24577848 13.7244816,6.79248808 C13.7244816,6.33914443 14.092947,5.97162462 14.5475118,5.97162462 Z M2.65443064,5.23280491 C3.18855628,5.23280491 3.62150304,5.66463936 3.62150304,6.19731149 C3.62150304,6.72998362 3.18855628,7.16176483 2.65443064,7.16176483 C2.12032629,7.16176483 1.68735291,6.72998362 1.68735291,6.19731149 C1.68735291,5.66463936 2.12032629,5.23280491 2.65443064,5.23280491 Z M11.8309852,5.52009115 C12.0809772,5.52009115 12.2836331,5.72219244 12.2836331,5.97151813 C12.2836331,6.22084383 12.0809772,6.42299836 11.8309852,6.42299836 C11.5809932,6.42299836 11.378284,6.22084383 11.378284,5.97151813 C11.378284,5.72219244 11.5809932,5.52009115 11.8309852,5.52009115 Z M5.04115949,4.3505018 C5.49572431,4.3505018 5.86418964,4.71802162 5.86418964,5.17131202 C5.86418964,5.62465567 5.49572431,5.99217548 5.04115949,5.99217548 C4.58659468,5.99217548 4.21812935,5.62465567 4.21812935,5.17131202 C4.21812935,4.71802162 4.58659468,4.3505018 5.04115949,4.3505018 Z M10.6379988,4.80203527 C10.9220685,4.80203527 11.1524126,5.03171519 11.1524126,5.31506162 C11.1524126,5.59840806 10.9220685,5.82808798 10.6379988,5.82808798 C10.3538758,5.82808798 10.123585,5.59840806 10.123585,5.31506162 C10.123585,5.03171519 10.3538758,4.80203527 10.6379988,4.80203527 Z M17.4485373,3.6116821 C17.9825991,3.6116821 18.4155991,4.04351655 18.4155991,4.57613544 C18.4155991,5.10880757 17.9825991,5.54064202 17.4485373,5.54064202 C16.9144223,5.54064202 16.4814223,5.10880757 16.4814223,4.57613544 C16.4814223,4.04351655 16.9144223,3.6116821 17.4485373,3.6116821 Z M7.22208023,4.08376643 C7.61977786,4.08376643 7.94223827,4.40533961 7.94223827,4.80198203 C7.94223827,5.19867769 7.61977786,5.52025087 7.22208023,5.52025087 C6.82432936,5.52025087 6.50186895,5.19867769 6.50186895,4.80198203 C6.50186895,4.40533961 6.82432936,4.08376643 7.22208023,4.08376643 Z M9.09459762,4.26808537 C9.43553454,4.26808537 9.71188354,4.54371192 9.71188354,4.88370634 C9.71188354,5.22370077 9.43553454,5.49932732 9.09459762,5.49932732 C8.75366069,5.49932732 8.47731169,5.22370077 8.47731169,4.88370634 C8.47731169,4.54371192 8.75366069,4.26808537 9.09459762,4.26808537 Z M14.8766813,3.24224562 C15.4107962,3.24224562 15.843743,3.67408007 15.843743,4.2067522 C15.843743,4.73942433 15.4107962,5.17120554 14.8766813,5.17120554 C14.3425663,5.17120554 13.9095663,4.73942433 13.9095663,4.2067522 C13.9095663,3.67408007 14.3425663,3.24224562 14.8766813,3.24224562 Z M12.3253251,4.2067522 C12.5298979,4.2067522 12.6957073,4.37211748 12.6957073,4.57613544 C12.6957073,4.78010015 12.5298979,4.94546543 12.3253251,4.94546543 C12.1208055,4.94546543 11.9549429,4.78010015 11.9549429,4.57613544 C11.9549429,4.37211748 12.1208055,4.2067522 12.3253251,4.2067522 Z M11.4607627,3.34494673 C11.7107547,3.34494673 11.9134106,3.54710126 11.9134106,3.79642695 C11.9134106,4.04575265 11.7107547,4.24785394 11.4607627,4.24785394 C11.2107707,4.24785394 11.0080615,4.04575265 11.0080615,3.79642695 C11.0080615,3.54710126 11.2107707,3.34494673 11.4607627,3.34494673 Z M4.69122392,2.17509118 C5.14578874,2.17509118 5.51425407,2.54261099 5.51425407,2.99595464 C5.51425407,3.44929829 5.14578874,3.81676486 4.69122392,3.81676486 C4.23665911,3.81676486 3.86814053,3.44929829 3.86814053,2.99595464 C3.86814053,2.54261099 4.23665911,2.17509118 4.69122392,2.17509118 Z M10.2880632,2.62667789 C10.5721329,2.62667789 10.8024238,2.85635781 10.8024238,3.13970424 C10.8024238,3.42305068 10.5721329,3.65273059 10.2880632,3.65273059 C10.0039402,3.65273059 9.7736494,3.42305068 9.7736494,3.13970424 C9.7736494,2.85635781 10.0039402,2.62667789 10.2880632,2.62667789 Z M6.87262388,1.88785818 C7.27037475,1.88785818 7.59278191,2.20943136 7.59278191,2.60607378 C7.59278191,3.00276944 7.27037475,3.32434262 6.87262388,3.32434262 C6.47487301,3.32434262 6.15246584,3.00276944 6.15246584,2.60607378 C6.15246584,2.20943136 6.47487301,1.88785818 6.87262388,1.88785818 Z M8.74466204,2.09322844 C9.08554572,2.09322844 9.36194797,2.3688337 9.36194797,2.70888136 C9.36194797,3.04887579 9.08554572,3.32450234 8.74466204,3.32450234 C8.40372512,3.32450234 8.12737612,3.04887579 8.12737612,2.70888136 C8.12737612,2.3688337 8.40372512,2.09322844 8.74466204,2.09322844 Z M14.5470858,-1.77191595e-13 C15.183434,-1.77191595e-13 15.6993387,0.514501117 15.6993387,1.14917158 C15.6993387,1.78383671 15.183434,2.29834315 14.5470858,2.29834315 C13.9106844,2.29834315 13.3947797,1.78383671 13.3947797,1.14917158 C13.3947797,0.514501117 13.9106844,-1.77191595e-13 14.5470858,-1.77191595e-13 Z" id="形状结合"></path>
        </g>
    </g>
</svg>