<?xml version="1.0" encoding="UTF-8"?>
<svg width="30px" height="30px" viewBox="0 0 30 30" version="1.1" xmlns="http://www.w3.org/2000/svg" xmlns:xlink="http://www.w3.org/1999/xlink">
    <title>ic-iost</title>
    <defs>
        <polygon id="path-1" points="0 0 29.9999 0 29.9999 29.9998 0 29.9998"></polygon>
    </defs>
    <g id="ic-iost" stroke="none" stroke-width="1" fill="none" fill-rule="evenodd">
        <g id="编组" transform="translate(-0.000000, 0.000000)">
            <g>
                <mask id="mask-2" fill="white">
                    <use xlink:href="#path-1"></use>
                </mask>
                <g id="Clip-2"></g>
                <path d="M30,15 C30,23.284 23.284,30 15,30 C6.716,30 0,23.284 0,15 C0,6.715 6.716,0 15,0 C23.284,0 30,6.715 30,15" id="Fill-1" fill="#1C1C1C" mask="url(#mask-2)"></path>
            </g>
            <path d="M15.0864,20.6743 L9.0234,17.1403 L9.0234,15.4593 L15.1734,18.9943 L18.0664,17.2613 L16.1084,16.1353 L15.3984,16.6033 L14.0644,15.7543 L14.7574,15.3563 L13.7524,14.8013 L13.2154,15.1653 L11.7944,14.3333 L12.3864,14.0023 L9.3174,12.1853 L15.1554,8.7893 L20.6654,11.9603 L19.2104,12.8433 L15.1734,10.5223 L12.2454,12.2023 L13.8564,13.1553 L14.7334,12.6343 L16.1084,13.4493 L15.2524,13.9673 L16.1954,14.5073 L16.8884,14.0733 L18.2394,14.8703 L17.5464,15.3033 L20.9774,17.2443 L15.0864,20.6743 Z M15.0004,5.7093 L6.9534,10.3543 L6.9534,19.6453 L15.0004,24.2903 L23.0454,19.6453 L23.0454,10.3543 L15.0004,5.7093 Z" id="Fill-3" fill="#FFFFFF"></path>
        </g>
    </g>
</svg>