<?xml version="1.0" encoding="UTF-8"?>
<svg width="30px" height="30px" viewBox="0 0 30 30" version="1.1" xmlns="http://www.w3.org/2000/svg" xmlns:xlink="http://www.w3.org/1999/xlink">
    <title>ic-ksm</title>
    <g id="ic-ksm" stroke="none" stroke-width="1" fill="none" fill-rule="evenodd">
        <g id="KUSAMA_6" fill-rule="nonzero">
            <circle id="椭圆形" fill="#000000" cx="15" cy="15" r="15"></circle>
            <path d="M5.51961009,19.8438421 L5.51961009,20.0589412 C5.51961009,20.0589412 13.2525229,16.9546694 14.7576835,17.7564026 L13.8497706,18.0277208 C13.9292431,18.0277208 15.4006881,18.1254932 15.4006881,18.1254932 C15.4704937,18.749964 15.812545,19.3097448 16.3326835,19.6507417 C17.218922,20.2447087 17.2357798,20.5673574 17.2357798,20.5673574 C17.2357798,20.5673574 16.7758028,20.7580135 16.7758028,21 C17.2035187,20.8757353 17.6458336,20.8107793 18.090711,20.8068996 C18.4919987,20.8214365 18.8899741,20.8862956 19.2755734,21 C19.2755734,21 19.2298165,20.7555691 18.6108945,20.5673574 C17.9919725,20.3791456 17.3947248,19.7142937 17.0936927,19.3452031 C16.7264384,18.8652641 16.6349643,18.2246441 16.852867,17.6586302 C17.0672018,17.1013279 17.8161697,16.7909007 19.3357798,15.9891675 C21.1395642,15.0432201 21.5513761,14.3343706 21.8042431,13.7892898 C22.0571101,13.244209 22.4376147,12.1516031 22.647133,11.6382983 C22.8213324,11.1585196 23.1210622,10.7359964 23.5141055,10.416144 C23.781422,10.2083778 25,9.74151489 25,9.74151489 C25,9.74151489 24.0704128,8.93733738 23.7669725,8.69535083 C23.38771,8.33077956 22.9080687,8.09205795 22.3918578,8.01094444 C21.746445,7.92539365 21.0913991,8.36048057 20.6482798,8.65135328 C20.2051606,8.942226 19.3478211,9.79284537 19.0010321,10.0372762 C18.6542431,10.2817071 17.7655963,10.5261379 16.3519495,11.4036447 C14.9383028,12.2811515 9.32706422,15.9158382 9.32706422,15.9158382 L10.7720183,15.9305041 L4.28658257,19.3452031 L4.93440367,19.3452031 L4,20.0784957 C4.51752486,20.198749 5.06073623,20.1148679 5.51961009,19.8438421 L5.51961009,19.8438421 Z" id="路径" fill="#FFFFFF"></path>
        </g>
    </g>
</svg>