<?xml version="1.0" encoding="UTF-8"?>
<svg width="30px" height="30px" viewBox="0 0 30 30" version="1.1" xmlns="http://www.w3.org/2000/svg" xmlns:xlink="http://www.w3.org/1999/xlink">
    <title>ic-linkedin</title>
    <g id="ic-linkedin" stroke="none" stroke-width="1" fill="none" fill-rule="evenodd">
        <g id="编组" transform="translate(1.000000, 1.000000)">
            <path d="M25.1803279,-1.05855056e-13 L2.81967213,-1.05855056e-13 C2.03278311,-1.05855056e-13 1.36612302,0.268068935 0.819672131,0.804219409 C0.27322133,1.34036988 7.29179972e-14,2.00233851 7.29179972e-14,2.79015051 L7.29179972e-14,25.2098474 C7.29179972e-14,25.9757756 0.27322133,26.6322753 0.819672131,27.1793669 C1.36612302,27.7264583 2.03278311,28 2.81967213,28 L25.1803279,28 C25.9672173,28 26.6338791,27.7264583 27.1803258,27.1793669 C27.7267767,26.6322753 28,25.9757756 28,25.2098474 L28,2.79015051 C28,2.00233851 27.7267767,1.34036988 27.1803258,0.804219409 C26.6338791,0.268068935 25.9672173,-1.05855056e-13 25.1803279,-1.05855056e-13 Z" id="路径" fill="#1766C2"></path>
            <path d="M18.8852459,10.8980079 C20.2404428,10.8980079 21.3989015,11.3794403 22.3606557,12.3423221 C23.32241,13.3051997 23.8032787,14.4650167 23.8032787,15.8218024 L23.8032787,23.7983584 L19.6065574,23.7983584 L19.6065574,16.379835 C19.6065574,15.788975 19.3989078,15.2911308 18.9836087,14.8862817 C18.5683053,14.4814367 18.0765041,14.2790142 17.5081967,14.2790142 C16.9180286,14.2790142 16.4207675,14.4814367 16.0163924,14.8862817 C15.6120215,15.2911308 15.4098361,15.788975 15.4098361,16.379835 L15.4098361,23.7983584 L11.2131148,23.7983584 L11.2131148,11.1934337 L15.4098361,11.1934337 L15.4098361,12.8675273 C15.7595656,12.2766673 16.267755,11.8007053 16.9344252,11.4396247 C17.6010953,11.078544 18.2513647,10.8980079 18.8852459,10.8980079 Z M8.39344262,11.1934337 L8.39344262,23.7983584 L4.19672131,23.7983584 L4.19672131,11.1934337 L8.39344262,11.1934337 Z M6.29508197,3.74208283 C6.99453692,3.74208283 7.59562492,3.99374436 8.09836275,4.4970674 C8.60109639,5.00039045 8.85245902,5.60218317 8.85245902,6.30246237 C8.85245902,7.00273737 8.60109639,7.59905955 8.09836275,8.09144153 C7.59562492,8.5838235 6.99453692,8.83001029 6.29508197,8.83001029 C5.59562702,8.83001029 5.00000315,8.5838235 4.50819777,8.09144153 C4.01639113,7.59905955 3.7704918,7.00273737 3.7704918,6.30246237 C3.7704918,5.60218317 4.01639113,5.00039045 4.50819777,4.4970674 C4.95082261,4.04407666 5.47754043,3.79493175 6.0883604,3.74963268 L6.29508197,3.74208283 Z" id="形状结合" fill="#FFFFFF"></path>
        </g>
    </g>
</svg>