<?xml version="1.0" encoding="UTF-8"?>
<svg width="30px" height="30px" viewBox="0 0 30 30" version="1.1" xmlns="http://www.w3.org/2000/svg" xmlns:xlink="http://www.w3.org/1999/xlink">
    <title>ic-near</title>
    <g id="ic-near" stroke="none" stroke-width="1" fill="none" fill-rule="evenodd">
        <g id="near_icon">
            <circle id="椭圆形" fill="#FFFFFF" cx="15" cy="15" r="15"></circle>
            <path d="M19.8422214,7.81222223 L16.4977772,12.7777775 C16.3992746,12.9256575 16.4250629,13.1235531 16.5581736,13.2412511 C16.6912844,13.358949 16.8908485,13.3603124 17.0255549,13.2444441 L20.3177769,10.3888887 C20.3572012,10.3536185 20.4137478,10.3449903 20.4618966,10.366898 C20.5100454,10.3888057 20.5406897,10.4371058 20.5399992,10.4899998 L20.5399992,19.4299993 C20.5399779,19.4860668 20.5048833,19.5361311 20.4521841,19.5552718 C20.399485,19.5744126 20.3404415,19.5585399 20.3044436,19.5155548 L10.3533331,7.60333335 C10.0293699,7.22078472 9.55351606,7 9.05222209,7 L8.70444434,7 C7.76310572,7 7,7.76310578 7,8.7044444 L7,21.2955547 C7,22.2368933 7.76310572,23 8.70444434,23 L8.70444434,23 C9.29710358,23 9.84735542,22.6926364 10.1577776,22.1877769 L13.5022218,17.2222216 C13.6007244,17.0743416 13.5749361,16.876446 13.4418254,16.7587481 C13.3087146,16.6410501 13.1091505,16.6396867 12.9744441,16.755555 L9.68222205,19.6111104 C9.64279784,19.6463806 9.58625118,19.6550089 9.53810237,19.6331012 C9.48995357,19.6111934 9.45930933,19.5628933 9.45999985,19.5099993 L9.45999985,10.5677776 C9.46002107,10.5117101 9.49511574,10.4616458 9.54781489,10.4425051 C9.60051404,10.4233643 9.65955749,10.439237 9.69555539,10.4822221 L19.6455548,22.3966658 C19.969518,22.7792144 20.4453718,23 20.9466658,23 L21.2944436,23 C21.7466828,23.0002939 22.1805004,22.8208492 22.500386,22.5011719 C22.8202717,22.1814946 23,21.747794 23,21.2955547 L23,8.7044444 C23,7.76310578 22.2368933,7 21.2955547,7 L21.2955547,7 C20.7028954,7 20.1526436,7.30736276 19.8422214,7.81222223 Z" id="路径" fill="#000000" fill-rule="nonzero"></path>
        </g>
    </g>
</svg>