<?xml version="1.0" encoding="UTF-8"?>
<svg width="30px" height="30px" viewBox="0 0 30 30" version="1.1" xmlns="http://www.w3.org/2000/svg" xmlns:xlink="http://www.w3.org/1999/xlink">
    <title>ic-reddit</title>
    <g id="ic-reddit" stroke="none" stroke-width="1" fill="none" fill-rule="evenodd">
        <path d="M28.811385,9.17410875 C29.6037975,11.0267963 30,12.9687412 30,15 C30,17.0312587 29.6037975,18.9732037 28.811385,20.8258912 C28.0189688,22.6785825 26.9531325,24.2745487 25.6138388,25.6138387 C24.274545,26.9531317 22.6785825,28.0189691 20.8258912,28.8113839 C18.9732037,29.6037986 17.0312588,30 15,30 C12.9687413,30 11.0267963,29.6037986 9.17410875,28.8113839 C7.3214175,28.0189691 5.72545125,26.9531317 4.38616125,25.6138387 C3.04686825,24.2745487 1.98103088,22.6785825 1.18861612,20.8258912 C0.396201375,18.9732037 0,17.0312587 0,15 C0,12.9687412 0.396201375,11.0267963 1.18861612,9.17410875 C1.98103088,7.3214175 3.04686825,5.725455 4.38616125,4.38616125 C5.72545125,3.0468675 7.3214175,1.98103125 9.17410875,1.188615 C11.0267963,0.3962025 12.9687413,0 15,0 C17.0312588,0 18.9732037,0.3962025 20.8258912,1.188615 C22.6785825,1.98103125 24.274545,3.0468675 25.6138388,4.38616125 C26.9531325,5.725455 28.0189688,7.3214175 28.811385,9.17410875 Z" id="路径" fill="#FF4500"></path>
        <path d="M21.2444212,5.9933025 C21.6573675,5.9933025 22.0117162,6.14118 22.3074787,6.4369425 C22.6032375,6.73270125 22.751115,7.08705 22.751115,7.5 C22.751115,7.91295 22.6032375,8.26729875 22.3074787,8.5630575 C22.0117162,8.85882 21.6573675,9.0066975 21.2444212,9.0066975 C20.8314712,9.0066975 20.4799125,8.86161 20.1897337,8.5714275 C19.8995512,8.28124875 19.7544637,7.92969 19.7544637,7.51674 L19.7544637,7.51674 L16.40625,6.76339125 L15.3515625,11.501115 C17.3716612,11.5680825 19.107135,12.1037888 20.5580362,13.10826 C20.9598225,12.70647 21.4397287,12.5055788 21.9977662,12.5055788 C22.5558075,12.5055788 23.0301337,12.70089 23.42076,13.0915163 C23.8113862,13.4821463 24.0066975,13.9508888 24.0066975,14.4977663 C24.0066975,14.8883963 23.90625,15.242745 23.7053587,15.5608275 C23.5044637,15.8789063 23.2366087,16.1216513 22.9017862,16.2890625 C22.97991,16.5680813 23.0189737,16.88616 23.0189737,17.2433025 C23.0189737,18.8281313 22.2377325,20.1841463 20.6752237,21.311385 C19.112715,22.43862 17.2265737,23.0022338 15.01674,23.0022338 C12.81807,23.0022338 10.9375087,22.43862 9.375,21.311385 C7.81249125,20.1841463 7.03125,18.8281313 7.03125,17.2433025 C7.03125,16.91964 7.06473,16.607145 7.1316975,16.3058025 C6.78571125,16.1383913 6.50948625,15.89286 6.303015,15.5691975 C6.09654,15.245535 5.9933025,14.8883963 5.9933025,14.4977663 C5.9933025,13.9508888 6.18861375,13.4821463 6.57924,13.0915163 C6.96986625,12.70089 7.4441925,12.5055788 8.00223375,12.5055788 C8.58259125,12.5055788 9.0680775,12.71205 9.45870375,13.125 C10.898445,12.1205325 12.6227587,11.5792425 14.6316975,11.501115 L14.6316975,11.501115 L15.7868287,6.27790125 C15.8537962,6.04352625 15.9933025,5.9542425 16.2053587,6.01004625 L16.2053587,6.01004625 L19.905135,6.83035875 C20.1953137,6.2723175 20.6417362,5.9933025 21.2444212,5.9933025 Z M18.0803587,19.436385 C17.9799112,19.436385 17.8962075,19.469865 17.82924,19.5368288 C17.2823625,20.0837063 16.3392937,20.3571413 15,20.3571413 C13.6495462,20.3571413 12.7064775,20.0837063 12.17076,19.5368288 C12.1037925,19.469865 12.0200887,19.436385 11.9196412,19.436385 C11.8191975,19.436385 11.73549,19.469865 11.6685262,19.5368288 C11.489955,19.7154038 11.489955,19.8883913 11.6685262,20.0558025 C12.360495,20.7477713 13.470975,21.09375 15,21.09375 C16.529025,21.09375 17.639505,20.7477713 18.3314737,20.0558025 C18.510045,19.8883913 18.510045,19.7154038 18.3314737,19.5368288 C18.26451,19.469865 18.1808025,19.436385 18.0803587,19.436385 Z M11.70201,15 C11.28906,15 10.9347112,15.1450875 10.6389525,15.4352662 C10.34319,15.7254487 10.1953125,16.0825875 10.1953125,16.5066975 C10.1953125,16.9196437 10.34319,17.2712025 10.6389525,17.561385 C10.9347112,17.8515637 11.28906,17.9966512 11.70201,17.9966512 C12.1149562,17.9966512 12.466515,17.8515637 12.7566975,17.561385 C13.0468762,17.2712025 13.1919637,16.9196437 13.1919637,16.5066975 C13.1919637,16.0937475 13.0468762,15.7421887 12.7566975,15.45201 C12.466515,15.1506675 12.1149562,15 11.70201,15 Z M18.29799,15 C17.8850437,15 17.533485,15.1478775 17.2433025,15.44364 C16.9531237,15.7393987 16.8080362,16.0937475 16.8080362,16.5066975 C16.8080362,16.9196437 16.9531237,17.2712025 17.2433025,17.561385 C17.533485,17.8515637 17.8850437,17.9966512 18.29799,17.9966512 C18.71094,17.9966512 19.0652887,17.8515637 19.3610475,17.561385 C19.65681,17.2712025 19.8046875,16.9196437 19.8046875,16.5066975 C19.8046875,16.0825875 19.65681,15.7254487 19.3610475,15.4352662 C19.0652887,15.1450875 18.71094,15 18.29799,15 Z" id="形状结合" fill="#FFFFFF"></path>
    </g>
</svg>