<?xml version="1.0" encoding="UTF-8"?>
<svg width="30px" height="30px" viewBox="0 0 30 30" version="1.1" xmlns="http://www.w3.org/2000/svg" xmlns:xlink="http://www.w3.org/1999/xlink">
    <title>ic-resilio</title>
    <g id="ic-resilio" stroke="none" stroke-width="1" fill="none" fill-rule="evenodd">
        <circle id="path-2" fill="#000000" cx="15" cy="15" r="15"></circle>
        <path d="M3.49983366,14.3614221 L3.58567375,14.4368174 L6.46,17.313 C7.20591636,18.0584903 6.1532159,19.1631532 5.385115,18.5421771 L5.30675685,18.4716969 L4.049,17.219 L4.06805339,17.3144691 C5.01392226,21.7793645 8.62763785,25.3118666 13.2671689,26.0441251 L13.5584604,26.0862282 C19.117756,26.8162611 24.3589255,23.3173257 25.8186546,17.90128 C25.9361696,17.465263 26.3848959,17.2070662 26.8209128,17.3245812 C27.2569297,17.4420962 27.5151266,17.8908225 27.3976116,18.3268394 C25.7246428,24.5340706 19.7175025,28.5443579 13.3455448,27.7076082 C7.07641745,26.8843619 2.35893625,21.6193897 2.19416562,15.3270416 L2.192,15.138 L2.18925238,15.1285878 C2.16666687,14.95541 2.19950373,14.77636 2.28783107,14.6201408 L2.33462553,14.5458707 C2.5867337,14.1868832 3.11586141,14.0669348 3.49983366,14.3614221 Z M16.6540582,2.29135789 C23.0235589,3.12379246 27.7948905,8.54175059 27.8176505,14.9675939 C27.8201003,15.6610165 27.0237868,16.0271434 26.5017166,15.6194151 L26.42172,15.5485409 L23.5233835,12.6490594 C23.2041344,12.3296841 23.2042367,11.8119768 23.5236119,11.4927277 C23.8163726,11.2000827 24.2757873,11.1757815 24.5962264,11.4197638 L24.6799436,11.4929561 L25.955,12.769 L25.9367502,12.6731809 C24.9862507,8.21125694 21.371218,4.68378888 16.733327,3.95477167 L16.4421418,3.91286877 C10.8849397,3.18659407 5.64772943,6.68527108 4.18874206,12.0988607 C4.07123304,12.5348792 3.62251029,12.7930822 3.18649174,12.6755732 C2.75047319,12.5580642 2.49227019,12.1093415 2.6097792,11.6733229 C4.28189796,5.46890681 10.2845001,1.4589158 16.6540582,2.29135789 Z" id="形状结合" fill="#FFFFFF" fill-rule="nonzero"></path>
    </g>
</svg>