<?xml version="1.0" encoding="UTF-8"?>
<svg width="30px" height="30px" viewBox="0 0 30 30" version="1.1" xmlns="http://www.w3.org/2000/svg" xmlns:xlink="http://www.w3.org/1999/xlink">
    <title>ic-sc</title>
    <g id="ic-sc" stroke="none" stroke-width="1" fill="none" fill-rule="evenodd">
        <g id="编组" transform="translate(0.000000, -0.000100)">
            <path d="M30,15 C30,23.284 23.284,30 15,30 C6.716,30 0,23.284 0,15 C0,6.716 6.716,0 15,0 C23.284,0 30,6.716 30,15" id="Fill-1" fill="#00F474"></path>
            <path d="M15,6.8652 L15,6.8652 C10.507,6.8652 6.865,10.5072 6.865,15.0002 C6.865,19.4932 10.507,23.1352 15,23.1352 L23.135,23.1352 L23.135,15.0002 C23.135,10.5072 19.493,6.8652 15,6.8652 M15,10.1462 C17.676,10.1462 19.854,12.3232 19.854,15.0002 L19.854,19.8542 L15,19.8542 C12.324,19.8542 10.146,17.6762 10.146,15.0002 C10.146,12.3232 12.324,10.1462 15,10.1462" id="Fill-3" fill="#FEFFFE"></path>
        </g>
    </g>
</svg>