<?xml version="1.0" encoding="UTF-8"?>
<svg width="30px" height="30px" viewBox="0 0 30 30" version="1.1" xmlns="http://www.w3.org/2000/svg" xmlns:xlink="http://www.w3.org/1999/xlink">
    <title>ic-tiktok</title>
    <g id="ic-tiktok" stroke="none" stroke-width="1" fill="none" fill-rule="evenodd">
        <g id="TikTok" transform="translate(1.500000, 0.000000)" fill-rule="nonzero">
            <path d="M10.3398288,11.8147411 L10.3398288,10.6457238 C9.93402494,10.581417 9.5241443,10.5461929 9.11331877,10.5402796 C5.13597768,10.5319102 1.61467821,13.1093038 0.420336192,16.903096 C-0.774005826,20.6968884 0.63577857,24.8266602 3.90065114,27.098206 C1.45502882,24.4808351 0.7759588,20.6706067 2.16677194,17.3694952 C3.55758508,14.0683837 6.75854501,11.8928763 10.3398288,11.8147411 L10.3398288,11.8147411 Z" id="路径" fill="#25F4EE"></path>
            <path d="M10.5602173,25.0572166 C12.783999,25.0542247 14.6119182,23.3022929 14.7092708,21.0806411 L14.7092708,1.25525636 L18.3313082,1.25525636 C18.2573749,0.841004821 18.2220887,0.42078013 18.225905,0 L13.2719544,0 L13.2719544,19.8062205 C13.1895803,22.0391767 11.357373,23.8079127 9.12290087,23.8115424 C8.45516645,23.8058573 7.79833171,23.6416486 7.20647895,23.3324369 C7.98446765,24.4103431 9.2308889,25.0513598 10.5602173,25.0572166 Z" id="路径" fill="#25F4EE"></path>
            <path d="M25.0962776,7.9818973 L25.0962776,6.87995469 C23.7632869,6.88041104 22.459869,6.48705219 21.3496727,5.74926576 C22.3229086,6.88064239 23.63807,7.66435746 25.0962776,7.9818973 L25.0962776,7.9818973 Z" id="路径" fill="#25F4EE"></path>
            <path d="M21.3496727,5.74926576 C20.2560695,4.50390927 19.6531911,2.90304591 19.6536393,1.24567425 L18.3313082,1.24567425 C18.6764718,3.09759438 19.7679288,4.72611749 21.3496727,5.74926576 L21.3496727,5.74926576 Z" id="路径" fill="#FE2C55"></path>
            <path d="M9.11331877,15.4942712 C7.20499723,15.504062 5.54824868,16.8114213 5.09501083,18.6651641 C4.64177298,20.5189069 5.50838069,22.4432237 7.19689684,23.3324369 C6.28198155,22.0692962 6.15273841,20.3997686 6.86235124,19.0108684 C7.57196407,17.621968 9.00054008,16.7483568 10.5602173,16.7495276 C10.9760911,16.75471 11.389095,16.8192418 11.7867274,16.9411698 L11.7867274,11.9009801 C11.3806638,11.8401391 10.9708028,11.8081187 10.5602173,11.805159 L10.3398288,11.805159 L10.3398288,15.6380029 C9.94013248,15.5308312 9.52696393,15.482413 9.11331877,15.4942712 Z" id="路径" fill="#FE2C55"></path>
            <path d="M25.0962776,7.9818973 L25.0962776,11.8147411 C22.6286022,11.8099686 20.2249827,11.0288761 18.225905,9.5821096 L18.225905,19.6529068 C18.2153366,24.6781635 14.1385866,28.7463399 9.11331877,28.7463288 C7.24707199,28.74964 5.42577682,28.1737893 3.90065114,27.098206 C6.44587242,29.8356334 10.4069622,30.7367236 13.885886,29.3697012 C17.3648097,28.0026788 19.6528469,24.6460315 19.6536393,20.9081632 L19.6536393,10.8661123 C21.6594235,12.3033964 24.0660167,13.0743107 26.533594,13.0699975 L26.533594,8.13521105 C26.0504909,8.13367346 25.5688354,8.08229688 25.0962776,7.9818973 Z" id="路径" fill="#FE2C55"></path>
            <path d="M18.225905,19.6529068 L18.225905,9.5821096 C20.2310996,11.0205661 22.6380811,11.7916048 25.1058597,11.7859948 L25.1058597,7.95315097 C23.6479319,7.64528991 22.3296119,6.87178586 21.3496727,5.74926576 C19.7679288,4.72611749 18.6764718,3.09759438 18.3313082,1.24567425 L14.7092708,1.24567425 L14.7092708,21.0806411 C14.6368182,22.8502329 13.4515562,24.3797807 11.7560689,24.8916667 C10.0605816,25.4035527 8.22692087,24.7854503 7.18731474,23.3516011 C5.49879858,22.4623879 4.63219087,20.5380711 5.08542872,18.6843283 C5.53866657,16.8305855 7.19541512,15.5232263 9.10373666,15.5134354 C9.51973294,15.5171431 9.93294762,15.5817079 10.3302467,15.7050776 L10.3302467,11.8722338 C6.72888114,11.9332422 3.50373602,14.1163416 2.10897021,17.4372127 C0.714204396,20.7580836 1.4133084,24.5893678 3.89106903,27.2036092 C5.43123116,28.2437532 7.25517844,28.7825706 9.11331877,28.7463288 C14.1385866,28.7463399 18.2153366,24.6781635 18.225905,19.6529068 Z" id="路径" fill="#000000"></path>
        </g>
    </g>
</svg>