<?xml version="1.0" encoding="UTF-8"?>
<svg width="30px" height="30px" viewBox="0 0 30 30" version="1.1" xmlns="http://www.w3.org/2000/svg" xmlns:xlink="http://www.w3.org/1999/xlink">
    <title>ic-xmr</title>
    <g id="ic-xmr" stroke="none" stroke-width="1" fill="none" fill-rule="evenodd">
        <g id="xmr" fill-rule="nonzero">
            <path d="M15,0 C23.2842713,0 30,6.71572875 30,15 C30,23.2842713 23.2842713,30 15,30 C6.71572875,30 0,23.2842713 0,15 C0,6.71572875 6.71572875,0 15,0 Z" id="Rectangle-3" fill="#F1580B"></path>
            <path d="M14.9751429,6.85714284 C19.4631429,6.85714284 23.0931429,10.4871429 23.0931429,14.9751429 C23.0931429,15.8771428 22.9391428,16.7351428 22.6751428,17.5491429 L20.2551429,17.5491429 L20.2551429,10.7291428 L14.9751429,16.0091428 L9.69514284,10.7291428 L9.69514284,17.5491429 L7.27514285,17.5491429 C7.01114285,16.7351428 6.85714284,15.8771428 6.85714284,14.9751429 C6.85714284,10.4871429 10.4871428,6.85714284 14.9751429,6.85714284 Z M13.7651428,17.1971428 L14.9971429,18.4071429 L16.2071428,17.1971428 L18.4951429,14.8871428 L18.4951429,19.1771428 L18.6711429,19.1771428 L20.2551429,19.1771428 L21.9051429,19.1771428 C20.4971428,21.5091429 17.9011429,23.0711428 14.9751429,23.0711428 C12.0491428,23.0711428 9.47514287,21.5091429 8.04514284,19.1771428 L9.69514284,19.1771428 L10.5751429,19.1771428 L11.4551428,19.1771428 L11.4551428,14.8871428 L13.7651428,17.1971428 Z" id="Shape" fill="#FFFFFF"></path>
        </g>
    </g>
</svg>