<?xml version="1.0" encoding="UTF-8"?>
<svg width="30px" height="30px" viewBox="0 0 30 30" version="1.1" xmlns="http://www.w3.org/2000/svg" xmlns:xlink="http://www.w3.org/1999/xlink">
    <title>ic-xtz</title>
    <defs>
        <polygon id="path-1" points="0 0 29.9998 0 29.9998 29.9998 0 29.9998"></polygon>
    </defs>
    <g id="ic-xtz" stroke="none" stroke-width="1" fill="none" fill-rule="evenodd">
        <g id="编组" transform="translate(-0.000000, 0.000000)">
            <g>
                <mask id="mask-2" fill="white">
                    <use xlink:href="#path-1"></use>
                </mask>
                <g id="Clip-2"></g>
                <path d="M29.9998,15 C29.9998,23.284 23.2838,30 14.9998,30 C6.7158,30 -0.0002,23.284 -0.0002,15 C-0.0002,6.715 6.7158,0 14.9998,0 C23.2838,0 29.9998,6.715 29.9998,15" id="Fill-1" fill="#367CF7" mask="url(#mask-2)"></path>
            </g>
            <path d="M10.2332,5.7212 L13.1932,5.2762 L13.1932,9.4402 L21.5212,9.4402 L21.5212,10.6452 L17.4622,14.8882 C17.4622,14.8882 22.2032,15.1502 22.2032,19.6292 C22.2032,24.1082 18.6932,24.7232 17.1082,24.7232 C15.5242,24.7232 13.1402,23.7152 13.1402,21.7772 C13.1402,19.8392 15.5242,20.2052 15.5242,21.4622 C15.5242,22.7202 15.0422,22.9812 15.0422,22.9812 C15.0422,22.9812 15.4712,23.8462 17.1732,23.8462 C18.8772,23.8462 20.2912,22.1172 20.2912,19.6812 C20.2912,17.2452 18.6142,15.7002 17.3572,15.7002 C16.1002,15.7002 15.0422,16.8002 15.0422,16.8002 L15.0422,15.5692 L19.3742,10.5142 L13.1672,10.5142 L13.1672,17.1932 C13.1672,17.9792 13.8212,18.5292 14.5812,18.5292 C15.3402,18.5292 16.3622,17.7432 16.8592,16.7212 L16.8592,18.2152 C16.8592,18.2152 15.9692,19.4982 14.3452,19.4982 C12.7212,19.4982 11.0712,18.3982 11.0712,16.8792 L11.0712,10.5402 L7.7972,10.5402 L7.7972,9.3882 L11.1242,9.3882 L11.1242,6.6122 C11.1242,6.2192 10.2542,6.0462 10.2542,6.0462 L10.2332,5.7212 Z" id="Fill-3" fill="#FEFFFE"></path>
        </g>
    </g>
</svg>