<?xml version="1.0" encoding="UTF-8"?>
<svg width="30px" height="30px" viewBox="0 0 30 30" version="1.1" xmlns="http://www.w3.org/2000/svg" xmlns:xlink="http://www.w3.org/1999/xlink">
    <title>ic-xlm</title>
    <g id="ic-xlm" stroke="none" stroke-width="1" fill="none" fill-rule="evenodd">
        <circle id="椭圆形备份" fill="#000000" fill-rule="nonzero" cx="15" cy="15" r="15"></circle>
        <path d="M24.4104547,11.001285 L24.4104547,12.6302579 L23.7223944,12.9806951 C23.199814,13.2476023 22.8885016,13.8021083 22.9327254,14.3872444 C22.9479267,14.590466 22.9559274,14.7960878 22.9559274,15.0017096 C22.9549526,18.009366 21.2673429,20.7623882 18.5875706,22.1278737 C15.9077984,23.4933592 12.6886389,23.2405949 10.254816,21.4735966 L10.254816,21.4735966 L11.6677397,20.7535201 L11.7477467,20.7111156 C13.7754701,21.8480817 16.2538942,21.8250852 18.2601721,20.6506889 C20.2664499,19.4762926 21.4999593,17.3264689 21.5014001,15.0017096 C21.50131,14.7138385 21.4826026,14.4262746 21.4453952,14.1408182 L21.4453952,14.1408182 L10.4388322,19.7494136 L8.16183291,20.9095367 L5.5,22.2656806 L5.5,20.6327073 L8.18023452,19.2669624 L9.48274849,18.6020918 L24.4104547,11.001285 Z M11.3209206,7.87312716 C14.0007061,6.50670484 17.2204434,6.75886795 19.6548386,8.52582222 L19.6548386,8.52582222 L19.4604215,8.62503276 L18.1571075,9.28910324 C16.1299036,8.15689768 13.6548103,8.18254838 11.6515057,9.35652422 C9.64820108,10.5305001 8.41611401,12.6773298 8.41305489,14.9993094 C8.41317164,15.2853186 8.43187938,15.5710179 8.46905979,15.8546001 L8.46905979,15.8546001 L19.4644219,10.2540057 L21.7414211,9.09388252 L24.4104547,7.73213798 L24.4104547,9.3659114 L21.7182191,10.738057 L20.4157051,11.4013274 L8.82429088,17.3075544 L8.17863438,17.6363893 L7.52337704,17.9708248 L5.5,19.0021342 L5.5,17.3675607 L6.18726014,17.0171235 C6.71030703,16.7506108 7.02202658,16.1959416 6.9777293,15.6105742 C6.96226128,15.4084194 6.95452727,15.2054646 6.95452727,15.0017096 C6.9542167,11.9936159 8.64113514,9.23954949 11.3209206,7.87312716 Z" id="Combined-Shape" fill="#FFFFFF" fill-rule="nonzero"></path>
    </g>
</svg>