<?xml version="1.0" encoding="UTF-8"?>
<svg width="30px" height="30px" viewBox="0 0 30 30" version="1.1" xmlns="http://www.w3.org/2000/svg" xmlns:xlink="http://www.w3.org/1999/xlink">
    <title>ic-xem</title>
    <g id="ic-xem" stroke="none" stroke-width="1" fill="none" fill-rule="evenodd">
        <g id="编组" transform="translate(0.000000, -0.000200)">
            <path d="M30,15 C30,23.285 23.284,30 15,30 C6.716,30 0,23.285 0,15 C0,6.716 6.716,0 15,0 C23.284,0 30,6.716 30,15" id="Fill-1" fill="#50B3ED"></path>
            <path d="M12.9280009,16.8839296 C14.2373579,16.3071711 15.5522696,15.801087 17.3359,16.831 C20.0389,18.392 19.6399,21.076 18.7019,22.701 C17.7629,24.327 15.6519,25.816 14.0269,24.877 C9.9629,22.531 7.4939,16.772 7.4939,16.772 C9.6324,18.2305 11.11615,17.68125 12.55365,17.049375 Z M20.1784,7.475 C22.0554,7.475 24.4004,8.559 24.4004,10.436 C24.4004,15.128 20.6484,20.145 20.6484,20.145 C20.833487,17.6762174 19.7273735,16.6447958 18.5227854,15.7469745 L17.8631401,15.2626671 C16.7713509,14.4514499 15.7774,13.5547391 15.7774,11.593 C15.7774,8.472 18.3014,7.475 20.1784,7.475 Z M14.8578051,6.95723436 C16.1390021,6.96621674 16.9925,7.068 16.9925,7.068 C14.5591087,8.23930435 14.375275,9.88643478 14.2010043,11.5144394 L14.1563396,11.9207557 C13.9994792,13.2719055 13.7196304,14.5811304 12.0205,15.562 C9.3175,17.122 7.1925,15.435 6.2535,13.809 C5.3155,12.184 5.0815,9.611 6.7075,8.672 C9.1152037,7.28177778 12.2810748,6.9759561 14.4610408,6.95751826 Z" id="形状结合" fill="#FFFFFF"></path>
        </g>
    </g>
</svg>