<?xml version="1.0" encoding="UTF-8"?>
<svg width="30px" height="30px" viewBox="0 0 30 30" version="1.1" xmlns="http://www.w3.org/2000/svg" xmlns:xlink="http://www.w3.org/1999/xlink">
    <title>ic-xrp</title>
    <g id="ic-xrp" stroke="none" stroke-width="1" fill="none" fill-rule="evenodd">
        <g id="xrp" fill-rule="nonzero">
            <path d="M15,0 C23.2842713,0 30,6.71572875 30,15 C30,23.2842713 23.2842713,30 15,30 C6.71572875,30 0,23.2842713 0,15 C0,6.71572875 6.71572875,0 15,0 Z" id="Rectangle-3" fill="#000000"></path>
            <path d="M11.9339226,16.4314977 C13.8614525,14.670576 16.7293746,14.6036737 18.4448495,16.3191487 L18.4448495,16.3191487 L24.125,22 L20.908,22 L16.8361088,17.9278894 L16.7276132,17.8262444 L16.5929036,17.7169271 C15.6266767,16.9926328 14.1872405,17.1271479 13.2344398,18.0799486 L13.2344398,18.0799486 L9.315,22 L6.357,22 L11.7560355,16.6015444 Z M9.315,8 L13.2344398,11.9200514 C14.1872405,12.8728521 15.6266767,13.0073672 16.5929036,12.2830729 L16.7276132,12.1737556 L16.8361088,12.0721106 L20.908,8 L24.125,8 L18.4448495,13.6808513 C16.7293746,15.3963263 13.8614525,15.329424 11.9339226,13.5685023 L11.7560355,13.3984556 L6.357,8 L9.315,8 Z" id="形状结合" fill="#FFFFFF"></path>
        </g>
    </g>
</svg>