<?xml version="1.0" encoding="UTF-8"?>
<svg width="30px" height="30px" viewBox="0 0 30 30" version="1.1" xmlns="http://www.w3.org/2000/svg" xmlns:xlink="http://www.w3.org/1999/xlink">
    <title>ic-zec</title>
    <g id="ic-zec" stroke="none" stroke-width="1" fill="none" fill-rule="evenodd">
        <g id="编组" transform="translate(0.000000, 0.000000)" fill-rule="nonzero">
            <path d="M15,7.10542736e-15 C6.72803904,7.10542736e-15 0,6.72803904 0,15 C0,23.271961 6.72803904,30 15,30 C23.271961,30 30,23.271961 30,15 C30,6.72803904 23.271961,7.10542736e-15 15,7.10542736e-15 Z M15,27.5244011 C8.09228039,27.5244011 2.47559894,21.9077196 2.47559894,15 C2.47559894,8.09228039 8.09228039,2.47559894 15,2.47559894 C21.9077196,2.47559894 27.5244011,8.09228039 27.5244011,15 C27.5244011,21.9077196 21.9077196,27.5244011 15,27.5244011 Z" id="形状" fill="#231F20"></path>
            <circle id="椭圆形" fill="#F4B728" cx="15" cy="15" r="11.8189885"></circle>
            <polygon id="路径" fill="#231F20" points="9.64951198 19.6650399 9.64951198 21.9543035 13.742236 21.9543035 13.742236 24.4631766 16.257764 24.4631766 16.257764 21.9543035 20.350488 21.9543035 20.350488 18.9263531 14.0017746 18.9263531 20.350488 10.3149956 20.350488 8.02573203 16.257764 8.02573203 16.257764 5.52351375 13.742236 5.52351375 13.742236 8.02573203 9.64951198 8.02573203 9.64951198 11.0603372 15.9982254 11.0603372"></polygon>
        </g>
    </g>
</svg>